M48
;DRILL file {KiCad (5.0.0)} date 09/18/18 23:33:17
;FORMAT={-:-/ absolute / inch / decimal}
FMAT,2
INCH,TZ
T1C0.0394
T2C0.0669
T3C0.0748
T4C0.0866
T5C0.1200
T6C0.1570
T7C0.1575
%
G90
G05
M72
T1
X4.6695Y-4.3346
X5.0805Y-4.3346
X3.9195Y-3.5846
X4.3305Y-3.5846
X4.6695Y-5.0846
X5.0805Y-5.0846
X3.9195Y-2.4596
X4.3305Y-2.4596
X3.1695Y-6.5846
X3.5805Y-6.5846
X1.6695Y-2.4596
X2.0805Y-2.4596
X3.1695Y-5.8346
X3.5805Y-5.8346
X3.1695Y-5.0846
X3.5805Y-5.0846
X2.4195Y-3.5846
X2.8305Y-3.5846
X3.9195Y-4.7096
X4.3305Y-4.7096
X3.9195Y-6.2096
X4.3305Y-6.2096
X3.1695Y-4.3346
X3.5805Y-4.3346
X4.6695Y-2.4596
X5.0805Y-2.4596
X2.4196Y-5.0845
X2.8306Y-5.0845
X1.6695Y-3.5846
X2.0805Y-3.5846
X2.4195Y-4.3346
X2.8305Y-4.3346
X4.6695Y-3.5846
X5.0805Y-3.5846
X4.6695Y-1.7096
X5.0805Y-1.7096
X2.0445Y-6.5846
X2.4555Y-6.5846
X2.4195Y-2.4596
X2.8305Y-2.4596
X4.6695Y-6.5846
X5.0805Y-6.5846
X3.1695Y-3.5846
X3.5805Y-3.5846
X4.6695Y-5.8346
X5.0805Y-5.8346
X1.6695Y-5.0846
X2.0805Y-5.0846
X1.6695Y-5.8346
X2.0805Y-5.8346
X3.9195Y-1.7096
X4.3305Y-1.7096
X2.4195Y-5.8346
X2.8305Y-5.8346
X1.6695Y-4.3346
X2.0805Y-4.3346
X3.1695Y-2.4596
X3.5805Y-2.4596
T2
X2.425Y-6.
X2.825Y-6.
X1.675Y-4.5
X2.075Y-4.5
X3.175Y-2.625
X3.575Y-2.625
X4.675Y-4.5
X5.075Y-4.5
X3.925Y-3.75
X4.325Y-3.75
X4.675Y-5.25
X5.075Y-5.25
X3.925Y-2.625
X4.325Y-2.625
X3.175Y-6.75
X3.575Y-6.75
X1.675Y-2.625
X2.075Y-2.625
X3.175Y-6.
X3.575Y-6.
X3.175Y-5.25
X3.575Y-5.25
X2.425Y-3.75
X2.825Y-3.75
X3.925Y-4.875
X4.325Y-4.875
X3.925Y-6.375
X4.325Y-6.375
X3.175Y-4.5
X3.575Y-4.5
X4.675Y-2.625
X5.075Y-2.625
X2.4251Y-5.2499
X2.8251Y-5.2499
X1.675Y-3.75
X2.075Y-3.75
X2.425Y-4.5
X2.825Y-4.5
X4.675Y-3.75
X5.075Y-3.75
X4.675Y-1.875
X5.075Y-1.875
X2.05Y-6.75
X2.45Y-6.75
X2.425Y-2.625
X2.825Y-2.625
X4.675Y-6.75
X5.075Y-6.75
X3.175Y-3.75
X3.575Y-3.75
X4.675Y-6.
X5.075Y-6.
X1.675Y-5.25
X2.075Y-5.25
X1.675Y-6.
X2.075Y-6.
X3.925Y-1.875
X4.325Y-1.875
T3
X3.9085Y-3.75
X4.3416Y-3.75
X4.6585Y-5.25
X5.0916Y-5.25
X3.9085Y-2.625
X4.3416Y-2.625
X3.1585Y-6.75
X3.5916Y-6.75
X1.6585Y-2.625
X2.0916Y-2.625
X3.1585Y-6.
X3.5916Y-6.
X3.1585Y-5.25
X3.5916Y-5.25
X2.4085Y-3.75
X2.8416Y-3.75
X3.9085Y-4.875
X4.3416Y-4.875
X3.9085Y-6.375
X4.3416Y-6.375
X3.1585Y-4.5
X3.5916Y-4.5
X4.6585Y-2.625
X5.0916Y-2.625
X2.4085Y-5.2499
X2.8416Y-5.2499
X1.6585Y-3.75
X2.0916Y-3.75
X2.4085Y-4.5
X2.8416Y-4.5
X4.6585Y-3.75
X5.0916Y-3.75
X4.6585Y-1.875
X5.0916Y-1.875
X2.0335Y-6.75
X2.4666Y-6.75
X2.4085Y-2.625
X2.8416Y-2.625
X4.6585Y-6.75
X5.0916Y-6.75
X3.1585Y-3.75
X3.5916Y-3.75
X4.6585Y-6.
X5.0916Y-6.
X1.6585Y-5.25
X2.0916Y-5.25
X1.6585Y-6.
X2.0916Y-6.
X3.9085Y-1.875
X4.3416Y-1.875
X2.4085Y-6.
X2.8416Y-6.
X1.6585Y-4.5
X2.0916Y-4.5
X3.1585Y-2.625
X3.5916Y-2.625
X4.6585Y-4.5
X5.0916Y-4.5
T4
X3.6451Y-2.1506
X2.9561Y-2.1506
X3.6451Y-1.6093
X2.9561Y-1.6093
T5
X4.4Y-4.405
X4.4Y-5.345
X4.4Y-5.905
X4.4Y-6.845
X1.78Y-7.025
X2.72Y-7.025
T6
X3.8Y-5.905
X3.8Y-6.845
X1.78Y-6.425
X2.72Y-6.425
X3.8Y-4.405
X3.8Y-5.345
T7
X3.375Y-3.75
X4.875Y-6.
X1.875Y-5.25
X1.875Y-6.
X4.125Y-1.875
X2.625Y-6.
X1.875Y-4.5
X3.375Y-2.625
X4.875Y-4.5
X4.125Y-3.75
X4.875Y-5.25
X4.125Y-2.625
X3.375Y-6.75
X1.875Y-2.625
X3.375Y-6.
X3.375Y-5.25
X2.625Y-3.75
X4.125Y-4.875
X4.125Y-6.375
X3.375Y-4.5
X4.875Y-2.625
X2.6251Y-5.2499
X1.875Y-3.75
X2.625Y-4.5
X4.875Y-3.75
X4.875Y-1.875
X2.25Y-6.75
X2.625Y-2.625
X4.875Y-6.75
T0
M30
