G04 #@! TF.GenerationSoftware,KiCad,Pcbnew,(5.0.0)*
G04 #@! TF.CreationDate,2018-09-18T23:33:11-07:00*
G04 #@! TF.ProjectId,chiral,63686972616C2E6B696361645F706362,v0.2*
G04 #@! TF.SameCoordinates,Original*
G04 #@! TF.FileFunction,Soldermask,Bot*
G04 #@! TF.FilePolarity,Negative*
%FSLAX46Y46*%
G04 Gerber Fmt 4.6, Leading zero omitted, Abs format (unit mm)*
G04 Created by KiCad (PCBNEW (5.0.0)) date 09/18/18 23:33:11*
%MOMM*%
%LPD*%
G01*
G04 APERTURE LIST*
%ADD10C,3.479800*%
%ADD11C,2.540000*%
%ADD12R,1.700000X1.350000*%
%ADD13R,1.797000X1.797000*%
%ADD14C,1.797000*%
%ADD15R,1.350000X1.700000*%
%ADD16C,2.600000*%
%ADD17C,5.100000*%
%ADD18R,1.035000X1.543000*%
%ADD19C,1.924000*%
%ADD20R,1.924000X1.924000*%
%ADD21C,1.650000*%
%ADD22C,1.650000*%
%ADD23C,4.400000*%
%ADD24C,2.300000*%
%ADD25C,2.800000*%
%ADD26C,1.950000*%
%ADD27C,1.950000*%
%ADD28C,2.100000*%
%ADD29C,1.400000*%
%ADD30C,2.400000*%
%ADD31R,2.000000X1.400000*%
G04 APERTURE END LIST*
D10*
G04 #@! TO.C,SW?*
X45212000Y-163195000D03*
X69088000Y-163195000D03*
D11*
X45212000Y-178435000D03*
X69088000Y-178435000D03*
G04 #@! TD*
D10*
G04 #@! TO.C,SW?*
X96520000Y-173863000D03*
X96520000Y-149987000D03*
D11*
X111760000Y-173863000D03*
X111760000Y-149987000D03*
G04 #@! TD*
D10*
G04 #@! TO.C,SW?*
X96520000Y-135763000D03*
X96520000Y-111887000D03*
D11*
X111760000Y-135763000D03*
X111760000Y-111887000D03*
G04 #@! TD*
D12*
G04 #@! TO.C,D1*
X106550000Y-55562500D03*
X103000000Y-55562500D03*
D13*
X100965000Y-55562500D03*
D14*
X108585000Y-55562500D03*
G04 #@! TD*
G04 #@! TO.C,D2*
X121602968Y-55562500D03*
D13*
X129222968Y-55562500D03*
D12*
X127187968Y-55562500D03*
X123637968Y-55562500D03*
G04 #@! TD*
D14*
G04 #@! TO.C,D3*
X55562968Y-64451578D03*
D13*
X55562968Y-72071578D03*
D15*
X55562968Y-70036578D03*
X55562968Y-66486578D03*
G04 #@! TD*
G04 #@! TO.C,D4*
X58737968Y-66486578D03*
X58737968Y-70036578D03*
D13*
X58737968Y-72071578D03*
D14*
X58737968Y-64451578D03*
G04 #@! TD*
G04 #@! TO.C,D5*
X77787968Y-64451578D03*
D13*
X77787968Y-72071578D03*
D15*
X77787968Y-70036578D03*
X77787968Y-66486578D03*
G04 #@! TD*
G04 #@! TO.C,D6*
X96837968Y-66486578D03*
X96837968Y-70036578D03*
D13*
X96837968Y-72071578D03*
D14*
X96837968Y-64451578D03*
G04 #@! TD*
G04 #@! TO.C,D7*
X121602968Y-75405328D03*
D13*
X129222968Y-75405328D03*
D12*
X127187968Y-75405328D03*
X123637968Y-75405328D03*
G04 #@! TD*
D15*
G04 #@! TO.C,D8*
X55562968Y-95061578D03*
X55562968Y-98611578D03*
D13*
X55562968Y-100646578D03*
D14*
X55562968Y-93026578D03*
G04 #@! TD*
G04 #@! TO.C,D9*
X58925468Y-93026578D03*
D13*
X58925468Y-100646578D03*
D15*
X58925468Y-98611578D03*
X58925468Y-95061578D03*
G04 #@! TD*
G04 #@! TO.C,D10*
X77787968Y-95061578D03*
X77787968Y-98611578D03*
D13*
X77787968Y-100646578D03*
D14*
X77787968Y-93026578D03*
G04 #@! TD*
G04 #@! TO.C,D11*
X96837968Y-93026578D03*
D13*
X96837968Y-100646578D03*
D15*
X96837968Y-98611578D03*
X96837968Y-95061578D03*
G04 #@! TD*
D12*
G04 #@! TO.C,D12*
X123637968Y-104774078D03*
X127187968Y-104774078D03*
D13*
X129222968Y-104774078D03*
D14*
X121602968Y-104774078D03*
G04 #@! TD*
D15*
G04 #@! TO.C,D13*
X55562968Y-114111578D03*
X55562968Y-117661578D03*
D13*
X55562968Y-119696578D03*
D14*
X55562968Y-112076578D03*
G04 #@! TD*
D15*
G04 #@! TO.C,D14*
X58737968Y-114111578D03*
X58737968Y-117661578D03*
D13*
X58737968Y-119696578D03*
D14*
X58737968Y-112076578D03*
G04 #@! TD*
G04 #@! TO.C,D15*
X77787968Y-112076578D03*
D13*
X77787968Y-119696578D03*
D15*
X77787968Y-117661578D03*
X77787968Y-114111578D03*
G04 #@! TD*
G04 #@! TO.C,D16*
X93662968Y-120042828D03*
X93662968Y-116492828D03*
D13*
X93662968Y-114457828D03*
D14*
X93662968Y-122077828D03*
G04 #@! TD*
G04 #@! TO.C,D17*
X121602968Y-123824078D03*
D13*
X129222968Y-123824078D03*
D12*
X127187968Y-123824078D03*
X123637968Y-123824078D03*
G04 #@! TD*
D14*
G04 #@! TO.C,D18*
X55562968Y-131126578D03*
D13*
X55562968Y-138746578D03*
D15*
X55562968Y-136711578D03*
X55562968Y-133161578D03*
G04 #@! TD*
G04 #@! TO.C,D19*
X58737968Y-133161578D03*
X58737968Y-136711578D03*
D13*
X58737968Y-138746578D03*
D14*
X58737968Y-131126578D03*
G04 #@! TD*
G04 #@! TO.C,D20*
X77787968Y-131126578D03*
D13*
X77787968Y-138746578D03*
D15*
X77787968Y-136711578D03*
X77787968Y-133161578D03*
G04 #@! TD*
D12*
G04 #@! TO.C,D21*
X123637968Y-142874078D03*
X127187968Y-142874078D03*
D13*
X129222968Y-142874078D03*
D14*
X121602968Y-142874078D03*
G04 #@! TD*
G04 #@! TO.C,D22*
X55562968Y-150176578D03*
D13*
X55562968Y-157796578D03*
D15*
X55562968Y-155761578D03*
X55562968Y-152211578D03*
G04 #@! TD*
G04 #@! TO.C,D23*
X58737968Y-152211578D03*
X58737968Y-155761578D03*
D13*
X58737968Y-157796578D03*
D14*
X58737968Y-150176578D03*
G04 #@! TD*
G04 #@! TO.C,D24*
X77787968Y-150176578D03*
D13*
X77787968Y-157796578D03*
D15*
X77787968Y-155761578D03*
X77787968Y-152211578D03*
G04 #@! TD*
G04 #@! TO.C,D25*
X93662968Y-158142828D03*
X93662968Y-154592828D03*
D13*
X93662968Y-152557828D03*
D14*
X93662968Y-160177828D03*
G04 #@! TD*
G04 #@! TO.C,D26*
X121602968Y-160336578D03*
D13*
X129222968Y-160336578D03*
D12*
X127187968Y-160336578D03*
X123637968Y-160336578D03*
G04 #@! TD*
D15*
G04 #@! TO.C,D27*
X75406718Y-171261578D03*
X75406718Y-174811578D03*
D13*
X75406718Y-176846578D03*
D14*
X75406718Y-169226578D03*
G04 #@! TD*
G04 #@! TO.C,D28*
X77787968Y-169226578D03*
D13*
X77787968Y-176846578D03*
D15*
X77787968Y-174811578D03*
X77787968Y-171261578D03*
G04 #@! TD*
D12*
G04 #@! TO.C,D29*
X123637968Y-163511578D03*
X127187968Y-163511578D03*
D13*
X129222968Y-163511578D03*
D14*
X121602968Y-163511578D03*
G04 #@! TD*
G04 #@! TO.C,H1*
X47464960Y-48892460D03*
X42384960Y-48892460D03*
X44924960Y-48892460D03*
X42384960Y-51432460D03*
X52544960Y-48892460D03*
X47464960Y-51432460D03*
X55084960Y-48892460D03*
X57624960Y-48892460D03*
X50004960Y-48892460D03*
X52544960Y-51432460D03*
X57624960Y-51432460D03*
X60164960Y-48892460D03*
X60164960Y-51432460D03*
X62704960Y-48892460D03*
X62704960Y-51432460D03*
X65244960Y-48892460D03*
X65244960Y-51432460D03*
X50004960Y-51432460D03*
X55084960Y-51432460D03*
X44924960Y-51432460D03*
X65247500Y-46355000D03*
X65247500Y-43815000D03*
X62707500Y-46355000D03*
X62707500Y-43815000D03*
X60167500Y-46355000D03*
X60167500Y-43815000D03*
X57627500Y-46355000D03*
X57627500Y-43815000D03*
X55087500Y-46355000D03*
X55087500Y-43815000D03*
X52547500Y-46355000D03*
X52547500Y-43815000D03*
X50007500Y-46355000D03*
X50007500Y-43815000D03*
X47467500Y-46355000D03*
X47467500Y-43815000D03*
X44927500Y-46355000D03*
X44927500Y-43815000D03*
X42387500Y-46355000D03*
X42387500Y-43815000D03*
G04 #@! TD*
D16*
G04 #@! TO.C,H2*
X75085000Y-40875000D03*
G04 #@! TD*
G04 #@! TO.C,H3*
X75085000Y-54625000D03*
G04 #@! TD*
G04 #@! TO.C,H4*
X92585000Y-40875000D03*
G04 #@! TD*
G04 #@! TO.C,H5*
X92585000Y-54625000D03*
G04 #@! TD*
D17*
G04 #@! TO.C,H6*
X114300000Y-57150000D03*
G04 #@! TD*
G04 #@! TO.C,H7*
X57150000Y-80962500D03*
G04 #@! TD*
G04 #@! TO.C,H8*
X95250000Y-80962500D03*
G04 #@! TD*
G04 #@! TO.C,H9*
X114300000Y-80962500D03*
G04 #@! TD*
G04 #@! TO.C,H10*
X57150000Y-104775000D03*
G04 #@! TD*
G04 #@! TO.C,H11*
X95250000Y-104775000D03*
G04 #@! TD*
G04 #@! TO.C,H12*
X114300000Y-104775000D03*
G04 #@! TD*
G04 #@! TO.C,H13*
X114300000Y-123825000D03*
G04 #@! TD*
G04 #@! TO.C,H14*
X57150000Y-142875000D03*
G04 #@! TD*
G04 #@! TO.C,H15*
X95250000Y-142875000D03*
G04 #@! TD*
G04 #@! TO.C,H16*
X114300000Y-142875000D03*
G04 #@! TD*
G04 #@! TO.C,H17*
X114300000Y-161925000D03*
G04 #@! TD*
D18*
G04 #@! TO.C,JP8*
X72725380Y-44335000D03*
X71724620Y-44335000D03*
G04 #@! TD*
G04 #@! TO.C,JP9*
X71724240Y-46875000D03*
X72725000Y-46875000D03*
G04 #@! TD*
G04 #@! TO.C,JP10*
X71724240Y-49415000D03*
X72725000Y-49415000D03*
G04 #@! TD*
G04 #@! TO.C,JP11*
X72725380Y-51955000D03*
X71724620Y-51955000D03*
G04 #@! TD*
D19*
G04 #@! TO.C,MCU1*
X43656718Y-56514078D03*
X46196718Y-56514078D03*
X48736718Y-56514078D03*
X51276718Y-56514078D03*
X53816718Y-56514078D03*
X56356718Y-56514078D03*
X58896718Y-56514078D03*
X61436718Y-56514078D03*
X63976718Y-56514078D03*
X66516718Y-56514078D03*
X69056718Y-56514078D03*
X71596718Y-56514078D03*
X71596718Y-41274078D03*
X69056718Y-41274078D03*
X66516718Y-41274078D03*
X63976718Y-41274078D03*
X61436718Y-41274078D03*
X58896718Y-41274078D03*
X56356718Y-41274078D03*
X53816718Y-41274078D03*
X51276718Y-41274078D03*
X48736718Y-41274078D03*
X46196718Y-41274078D03*
X43656718Y-41274078D03*
X65246718Y-55244078D03*
X62706718Y-40004078D03*
X50006718Y-55244078D03*
X42386718Y-40004078D03*
X44926718Y-40004078D03*
X70326718Y-55244078D03*
X60166718Y-55244078D03*
X47466718Y-40004078D03*
X50006718Y-40004078D03*
X52546718Y-40004078D03*
X44926718Y-55244078D03*
X42386718Y-55244078D03*
X55086718Y-40004078D03*
X60166718Y-40004078D03*
X70326718Y-40004078D03*
X57626718Y-55244078D03*
X52546718Y-55244078D03*
X47466718Y-55244078D03*
X55086718Y-55244078D03*
X57626718Y-40004078D03*
X65246718Y-40004078D03*
X67786718Y-40004078D03*
X67786718Y-55244078D03*
X62706718Y-55244078D03*
G04 #@! TD*
D14*
G04 #@! TO.C,P1*
X75410000Y-44335000D03*
X75410000Y-46875000D03*
X75410000Y-49415000D03*
X75410000Y-51955000D03*
G04 #@! TD*
D20*
G04 #@! TO.C,P2*
X41675000Y-78422500D03*
X41675000Y-80962500D03*
X41675000Y-83502500D03*
G04 #@! TD*
D13*
G04 #@! TO.C,P3*
X94005000Y-45085000D03*
D14*
X96545000Y-45085000D03*
X94005000Y-47625000D03*
X96545000Y-47625000D03*
X94005000Y-50165000D03*
X96545000Y-50165000D03*
G04 #@! TD*
G04 #@! TO.C,R1*
X80803750Y-53975000D03*
X85883750Y-53975000D03*
G04 #@! TD*
G04 #@! TO.C,R2*
X85883750Y-56356250D03*
X80803750Y-56356250D03*
G04 #@! TD*
D21*
G04 #@! TO.C,SW1*
X99675468Y-51524078D03*
D22*
X99980792Y-51887949D02*
X99370144Y-51160207D01*
D23*
X104775468Y-47624078D03*
D24*
X110275468Y-47624078D03*
X99275468Y-47624078D03*
D21*
X109875468Y-51524078D03*
D22*
X110180792Y-51160207D02*
X109570144Y-51887949D01*
D16*
X104775468Y-53524078D03*
D25*
X102235468Y-52704078D03*
D26*
X108585468Y-50164078D03*
D27*
X108987210Y-49685300D02*
X108183726Y-50642856D01*
D25*
X107315468Y-52704078D03*
D26*
X100965468Y-50164078D03*
D27*
X101367210Y-50642856D02*
X100563726Y-49685300D01*
D25*
X102235468Y-52124078D03*
X102235468Y-51624078D03*
X107315468Y-51624078D03*
X107315468Y-52124078D03*
D28*
X99695468Y-47624078D03*
X109855468Y-47624078D03*
D29*
X99555468Y-43424078D03*
X109995468Y-43424078D03*
G04 #@! TD*
D21*
G04 #@! TO.C,SW2*
X118725468Y-51524078D03*
D22*
X119030792Y-51887949D02*
X118420144Y-51160207D01*
D23*
X123825468Y-47624078D03*
D24*
X129325468Y-47624078D03*
X118325468Y-47624078D03*
D21*
X128925468Y-51524078D03*
D22*
X129230792Y-51160207D02*
X128620144Y-51887949D01*
D16*
X123825468Y-53524078D03*
D25*
X121285468Y-52704078D03*
D26*
X127635468Y-50164078D03*
D27*
X128037210Y-49685300D02*
X127233726Y-50642856D01*
D25*
X126365468Y-52704078D03*
D26*
X120015468Y-50164078D03*
D27*
X120417210Y-50642856D02*
X119613726Y-49685300D01*
D25*
X121285468Y-52124078D03*
X121285468Y-51624078D03*
X126365468Y-51624078D03*
X126365468Y-52124078D03*
D28*
X118745468Y-47624078D03*
X128905468Y-47624078D03*
D29*
X118605468Y-43424078D03*
X129045468Y-43424078D03*
G04 #@! TD*
G04 #@! TO.C,SW3*
X52845468Y-62474078D03*
X42405468Y-62474078D03*
D28*
X52705468Y-66674078D03*
X42545468Y-66674078D03*
D25*
X50165468Y-71174078D03*
X50165468Y-70674078D03*
X45085468Y-70674078D03*
X45085468Y-71174078D03*
D26*
X43815468Y-69214078D03*
D27*
X44217210Y-69692856D02*
X43413726Y-68735300D01*
D25*
X50165468Y-71754078D03*
D26*
X51435468Y-69214078D03*
D27*
X51837210Y-68735300D02*
X51033726Y-69692856D01*
D25*
X45085468Y-71754078D03*
D16*
X47625468Y-72574078D03*
D21*
X52725468Y-70574078D03*
D22*
X53030792Y-70210207D02*
X52420144Y-70937949D01*
D24*
X42125468Y-66674078D03*
X53125468Y-66674078D03*
D23*
X47625468Y-66674078D03*
D21*
X42525468Y-70574078D03*
D22*
X42830792Y-70937949D02*
X42220144Y-70210207D01*
G04 #@! TD*
D21*
G04 #@! TO.C,SW4*
X61575468Y-70574078D03*
D22*
X61880792Y-70937949D02*
X61270144Y-70210207D01*
D23*
X66675468Y-66674078D03*
D24*
X72175468Y-66674078D03*
X61175468Y-66674078D03*
D21*
X71775468Y-70574078D03*
D22*
X72080792Y-70210207D02*
X71470144Y-70937949D01*
D16*
X66675468Y-72574078D03*
D25*
X64135468Y-71754078D03*
D26*
X70485468Y-69214078D03*
D27*
X70887210Y-68735300D02*
X70083726Y-69692856D01*
D25*
X69215468Y-71754078D03*
D26*
X62865468Y-69214078D03*
D27*
X63267210Y-69692856D02*
X62463726Y-68735300D01*
D25*
X64135468Y-71174078D03*
X64135468Y-70674078D03*
X69215468Y-70674078D03*
X69215468Y-71174078D03*
D28*
X61595468Y-66674078D03*
X71755468Y-66674078D03*
D29*
X61455468Y-62474078D03*
X71895468Y-62474078D03*
G04 #@! TD*
G04 #@! TO.C,SW5*
X90945468Y-62474078D03*
X80505468Y-62474078D03*
D28*
X90805468Y-66674078D03*
X80645468Y-66674078D03*
D25*
X88265468Y-71174078D03*
X88265468Y-70674078D03*
X83185468Y-70674078D03*
X83185468Y-71174078D03*
D26*
X81915468Y-69214078D03*
D27*
X82317210Y-69692856D02*
X81513726Y-68735300D01*
D25*
X88265468Y-71754078D03*
D26*
X89535468Y-69214078D03*
D27*
X89937210Y-68735300D02*
X89133726Y-69692856D01*
D25*
X83185468Y-71754078D03*
D16*
X85725468Y-72574078D03*
D21*
X90825468Y-70574078D03*
D22*
X91130792Y-70210207D02*
X90520144Y-70937949D01*
D24*
X80225468Y-66674078D03*
X91225468Y-66674078D03*
D23*
X85725468Y-66674078D03*
D21*
X80625468Y-70574078D03*
D22*
X80930792Y-70937949D02*
X80320144Y-70210207D01*
G04 #@! TD*
D21*
G04 #@! TO.C,SW6*
X99675468Y-70574078D03*
D22*
X99980792Y-70937949D02*
X99370144Y-70210207D01*
D23*
X104775468Y-66674078D03*
D24*
X110275468Y-66674078D03*
X99275468Y-66674078D03*
D21*
X109875468Y-70574078D03*
D22*
X110180792Y-70210207D02*
X109570144Y-70937949D01*
D16*
X104775468Y-72574078D03*
D25*
X102235468Y-71754078D03*
D26*
X108585468Y-69214078D03*
D27*
X108987210Y-68735300D02*
X108183726Y-69692856D01*
D25*
X107315468Y-71754078D03*
D26*
X100965468Y-69214078D03*
D27*
X101367210Y-69692856D02*
X100563726Y-68735300D01*
D25*
X102235468Y-71174078D03*
X102235468Y-70674078D03*
X107315468Y-70674078D03*
X107315468Y-71174078D03*
D28*
X99695468Y-66674078D03*
X109855468Y-66674078D03*
D29*
X99555468Y-62474078D03*
X109995468Y-62474078D03*
G04 #@! TD*
G04 #@! TO.C,SW7*
X129045468Y-62474078D03*
X118605468Y-62474078D03*
D28*
X128905468Y-66674078D03*
X118745468Y-66674078D03*
D25*
X126365468Y-71174078D03*
X126365468Y-70674078D03*
X121285468Y-70674078D03*
X121285468Y-71174078D03*
D26*
X120015468Y-69214078D03*
D27*
X120417210Y-69692856D02*
X119613726Y-68735300D01*
D25*
X126365468Y-71754078D03*
D26*
X127635468Y-69214078D03*
D27*
X128037210Y-68735300D02*
X127233726Y-69692856D01*
D25*
X121285468Y-71754078D03*
D16*
X123825468Y-72574078D03*
D21*
X128925468Y-70574078D03*
D22*
X129230792Y-70210207D02*
X128620144Y-70937949D01*
D24*
X118325468Y-66674078D03*
X129325468Y-66674078D03*
D23*
X123825468Y-66674078D03*
D21*
X118725468Y-70574078D03*
D22*
X119030792Y-70937949D02*
X118420144Y-70210207D01*
G04 #@! TD*
D29*
G04 #@! TO.C,SW8*
X52845468Y-91049078D03*
X42405468Y-91049078D03*
D28*
X52705468Y-95249078D03*
X42545468Y-95249078D03*
D25*
X50165468Y-99749078D03*
X50165468Y-99249078D03*
X45085468Y-99249078D03*
X45085468Y-99749078D03*
D26*
X43815468Y-97789078D03*
D27*
X44217210Y-98267856D02*
X43413726Y-97310300D01*
D25*
X50165468Y-100329078D03*
D26*
X51435468Y-97789078D03*
D27*
X51837210Y-97310300D02*
X51033726Y-98267856D01*
D25*
X45085468Y-100329078D03*
D16*
X47625468Y-101149078D03*
D21*
X52725468Y-99149078D03*
D22*
X53030792Y-98785207D02*
X52420144Y-99512949D01*
D24*
X42125468Y-95249078D03*
X53125468Y-95249078D03*
D23*
X47625468Y-95249078D03*
D21*
X42525468Y-99149078D03*
D22*
X42830792Y-99512949D02*
X42220144Y-98785207D01*
G04 #@! TD*
D29*
G04 #@! TO.C,SW9*
X71895468Y-91049078D03*
X61455468Y-91049078D03*
D28*
X71755468Y-95249078D03*
X61595468Y-95249078D03*
D25*
X69215468Y-99749078D03*
X69215468Y-99249078D03*
X64135468Y-99249078D03*
X64135468Y-99749078D03*
D26*
X62865468Y-97789078D03*
D27*
X63267210Y-98267856D02*
X62463726Y-97310300D01*
D25*
X69215468Y-100329078D03*
D26*
X70485468Y-97789078D03*
D27*
X70887210Y-97310300D02*
X70083726Y-98267856D01*
D25*
X64135468Y-100329078D03*
D16*
X66675468Y-101149078D03*
D21*
X71775468Y-99149078D03*
D22*
X72080792Y-98785207D02*
X71470144Y-99512949D01*
D24*
X61175468Y-95249078D03*
X72175468Y-95249078D03*
D23*
X66675468Y-95249078D03*
D21*
X61575468Y-99149078D03*
D22*
X61880792Y-99512949D02*
X61270144Y-98785207D01*
G04 #@! TD*
D29*
G04 #@! TO.C,SW10*
X90945468Y-91049078D03*
X80505468Y-91049078D03*
D28*
X90805468Y-95249078D03*
X80645468Y-95249078D03*
D25*
X88265468Y-99749078D03*
X88265468Y-99249078D03*
X83185468Y-99249078D03*
X83185468Y-99749078D03*
D26*
X81915468Y-97789078D03*
D27*
X82317210Y-98267856D02*
X81513726Y-97310300D01*
D25*
X88265468Y-100329078D03*
D26*
X89535468Y-97789078D03*
D27*
X89937210Y-97310300D02*
X89133726Y-98267856D01*
D25*
X83185468Y-100329078D03*
D16*
X85725468Y-101149078D03*
D21*
X90825468Y-99149078D03*
D22*
X91130792Y-98785207D02*
X90520144Y-99512949D01*
D24*
X80225468Y-95249078D03*
X91225468Y-95249078D03*
D23*
X85725468Y-95249078D03*
D21*
X80625468Y-99149078D03*
D22*
X80930792Y-99512949D02*
X80320144Y-98785207D01*
G04 #@! TD*
D29*
G04 #@! TO.C,SW11*
X109995468Y-91049078D03*
X99555468Y-91049078D03*
D28*
X109855468Y-95249078D03*
X99695468Y-95249078D03*
D25*
X107315468Y-99749078D03*
X107315468Y-99249078D03*
X102235468Y-99249078D03*
X102235468Y-99749078D03*
D26*
X100965468Y-97789078D03*
D27*
X101367210Y-98267856D02*
X100563726Y-97310300D01*
D25*
X107315468Y-100329078D03*
D26*
X108585468Y-97789078D03*
D27*
X108987210Y-97310300D02*
X108183726Y-98267856D01*
D25*
X102235468Y-100329078D03*
D16*
X104775468Y-101149078D03*
D21*
X109875468Y-99149078D03*
D22*
X110180792Y-98785207D02*
X109570144Y-99512949D01*
D24*
X99275468Y-95249078D03*
X110275468Y-95249078D03*
D23*
X104775468Y-95249078D03*
D21*
X99675468Y-99149078D03*
D22*
X99980792Y-99512949D02*
X99370144Y-98785207D01*
G04 #@! TD*
D21*
G04 #@! TO.C,SW12*
X118725468Y-99149078D03*
D22*
X119030792Y-99512949D02*
X118420144Y-98785207D01*
D23*
X123825468Y-95249078D03*
D24*
X129325468Y-95249078D03*
X118325468Y-95249078D03*
D21*
X128925468Y-99149078D03*
D22*
X129230792Y-98785207D02*
X128620144Y-99512949D01*
D16*
X123825468Y-101149078D03*
D25*
X121285468Y-100329078D03*
D26*
X127635468Y-97789078D03*
D27*
X128037210Y-97310300D02*
X127233726Y-98267856D01*
D25*
X126365468Y-100329078D03*
D26*
X120015468Y-97789078D03*
D27*
X120417210Y-98267856D02*
X119613726Y-97310300D01*
D25*
X121285468Y-99749078D03*
X121285468Y-99249078D03*
X126365468Y-99249078D03*
X126365468Y-99749078D03*
D28*
X118745468Y-95249078D03*
X128905468Y-95249078D03*
D29*
X118605468Y-91049078D03*
X129045468Y-91049078D03*
G04 #@! TD*
D21*
G04 #@! TO.C,SW13*
X42525468Y-118199078D03*
D22*
X42830792Y-118562949D02*
X42220144Y-117835207D01*
D23*
X47625468Y-114299078D03*
D24*
X53125468Y-114299078D03*
X42125468Y-114299078D03*
D21*
X52725468Y-118199078D03*
D22*
X53030792Y-117835207D02*
X52420144Y-118562949D01*
D16*
X47625468Y-120199078D03*
D25*
X45085468Y-119379078D03*
D26*
X51435468Y-116839078D03*
D27*
X51837210Y-116360300D02*
X51033726Y-117317856D01*
D25*
X50165468Y-119379078D03*
D26*
X43815468Y-116839078D03*
D27*
X44217210Y-117317856D02*
X43413726Y-116360300D01*
D25*
X45085468Y-118799078D03*
X45085468Y-118299078D03*
X50165468Y-118299078D03*
X50165468Y-118799078D03*
D28*
X42545468Y-114299078D03*
X52705468Y-114299078D03*
D29*
X42405468Y-110099078D03*
X52845468Y-110099078D03*
G04 #@! TD*
G04 #@! TO.C,SW14*
X71895468Y-110099078D03*
X61455468Y-110099078D03*
D28*
X71755468Y-114299078D03*
X61595468Y-114299078D03*
D25*
X69215468Y-118799078D03*
X69215468Y-118299078D03*
X64135468Y-118299078D03*
X64135468Y-118799078D03*
D26*
X62865468Y-116839078D03*
D27*
X63267210Y-117317856D02*
X62463726Y-116360300D01*
D25*
X69215468Y-119379078D03*
D26*
X70485468Y-116839078D03*
D27*
X70887210Y-116360300D02*
X70083726Y-117317856D01*
D25*
X64135468Y-119379078D03*
D16*
X66675468Y-120199078D03*
D21*
X71775468Y-118199078D03*
D22*
X72080792Y-117835207D02*
X71470144Y-118562949D01*
D24*
X61175468Y-114299078D03*
X72175468Y-114299078D03*
D23*
X66675468Y-114299078D03*
D21*
X61575468Y-118199078D03*
D22*
X61880792Y-118562949D02*
X61270144Y-117835207D01*
G04 #@! TD*
D21*
G04 #@! TO.C,SW15*
X80625468Y-118199078D03*
D22*
X80930792Y-118562949D02*
X80320144Y-117835207D01*
D23*
X85725468Y-114299078D03*
D24*
X91225468Y-114299078D03*
X80225468Y-114299078D03*
D21*
X90825468Y-118199078D03*
D22*
X91130792Y-117835207D02*
X90520144Y-118562949D01*
D16*
X85725468Y-120199078D03*
D25*
X83185468Y-119379078D03*
D26*
X89535468Y-116839078D03*
D27*
X89937210Y-116360300D02*
X89133726Y-117317856D01*
D25*
X88265468Y-119379078D03*
D26*
X81915468Y-116839078D03*
D27*
X82317210Y-117317856D02*
X81513726Y-116360300D01*
D25*
X83185468Y-118799078D03*
X83185468Y-118299078D03*
X88265468Y-118299078D03*
X88265468Y-118799078D03*
D28*
X80645468Y-114299078D03*
X90805468Y-114299078D03*
D29*
X80505468Y-110099078D03*
X90945468Y-110099078D03*
G04 #@! TD*
G04 #@! TO.C,SW16*
X109995468Y-119624078D03*
X99555468Y-119624078D03*
D28*
X109855468Y-123824078D03*
X99695468Y-123824078D03*
D25*
X107315468Y-128324078D03*
X107315468Y-127824078D03*
X102235468Y-127824078D03*
X102235468Y-128324078D03*
D26*
X100965468Y-126364078D03*
D27*
X101367210Y-126842856D02*
X100563726Y-125885300D01*
D25*
X107315468Y-128904078D03*
D26*
X108585468Y-126364078D03*
D27*
X108987210Y-125885300D02*
X108183726Y-126842856D01*
D25*
X102235468Y-128904078D03*
D16*
X104775468Y-129724078D03*
D21*
X109875468Y-127724078D03*
D22*
X110180792Y-127360207D02*
X109570144Y-128087949D01*
D24*
X99275468Y-123824078D03*
X110275468Y-123824078D03*
D23*
X104775468Y-123824078D03*
D21*
X99675468Y-127724078D03*
D22*
X99980792Y-128087949D02*
X99370144Y-127360207D01*
G04 #@! TD*
D21*
G04 #@! TO.C,SW17*
X118725468Y-118199078D03*
D22*
X119030792Y-118562949D02*
X118420144Y-117835207D01*
D23*
X123825468Y-114299078D03*
D24*
X129325468Y-114299078D03*
X118325468Y-114299078D03*
D21*
X128925468Y-118199078D03*
D22*
X129230792Y-117835207D02*
X128620144Y-118562949D01*
D16*
X123825468Y-120199078D03*
D25*
X121285468Y-119379078D03*
D26*
X127635468Y-116839078D03*
D27*
X128037210Y-116360300D02*
X127233726Y-117317856D01*
D25*
X126365468Y-119379078D03*
D26*
X120015468Y-116839078D03*
D27*
X120417210Y-117317856D02*
X119613726Y-116360300D01*
D25*
X121285468Y-118799078D03*
X121285468Y-118299078D03*
X126365468Y-118299078D03*
X126365468Y-118799078D03*
D28*
X118745468Y-114299078D03*
X128905468Y-114299078D03*
D29*
X118605468Y-110099078D03*
X129045468Y-110099078D03*
G04 #@! TD*
D21*
G04 #@! TO.C,SW18*
X42525468Y-137249078D03*
D22*
X42830792Y-137612949D02*
X42220144Y-136885207D01*
D23*
X47625468Y-133349078D03*
D24*
X53125468Y-133349078D03*
X42125468Y-133349078D03*
D21*
X52725468Y-137249078D03*
D22*
X53030792Y-136885207D02*
X52420144Y-137612949D01*
D16*
X47625468Y-139249078D03*
D25*
X45085468Y-138429078D03*
D26*
X51435468Y-135889078D03*
D27*
X51837210Y-135410300D02*
X51033726Y-136367856D01*
D25*
X50165468Y-138429078D03*
D26*
X43815468Y-135889078D03*
D27*
X44217210Y-136367856D02*
X43413726Y-135410300D01*
D25*
X45085468Y-137849078D03*
X45085468Y-137349078D03*
X50165468Y-137349078D03*
X50165468Y-137849078D03*
D28*
X42545468Y-133349078D03*
X52705468Y-133349078D03*
D29*
X42405468Y-129149078D03*
X52845468Y-129149078D03*
G04 #@! TD*
G04 #@! TO.C,SW19*
X71896872Y-129146312D03*
X61456872Y-129146312D03*
D28*
X71756872Y-133346312D03*
X61596872Y-133346312D03*
D25*
X69216872Y-137846312D03*
X69216872Y-137346312D03*
X64136872Y-137346312D03*
X64136872Y-137846312D03*
D26*
X62866872Y-135886312D03*
D27*
X63268614Y-136365090D02*
X62465130Y-135407534D01*
D25*
X69216872Y-138426312D03*
D26*
X70486872Y-135886312D03*
D27*
X70888614Y-135407534D02*
X70085130Y-136365090D01*
D25*
X64136872Y-138426312D03*
D16*
X66676872Y-139246312D03*
D21*
X71776872Y-137246312D03*
D22*
X72082196Y-136882441D02*
X71471548Y-137610183D01*
D24*
X61176872Y-133346312D03*
X72176872Y-133346312D03*
D23*
X66676872Y-133346312D03*
D21*
X61576872Y-137246312D03*
D22*
X61882196Y-137610183D02*
X61271548Y-136882441D01*
G04 #@! TD*
D21*
G04 #@! TO.C,SW20*
X80625468Y-137249078D03*
D22*
X80930792Y-137612949D02*
X80320144Y-136885207D01*
D23*
X85725468Y-133349078D03*
D24*
X91225468Y-133349078D03*
X80225468Y-133349078D03*
D21*
X90825468Y-137249078D03*
D22*
X91130792Y-136885207D02*
X90520144Y-137612949D01*
D16*
X85725468Y-139249078D03*
D25*
X83185468Y-138429078D03*
D26*
X89535468Y-135889078D03*
D27*
X89937210Y-135410300D02*
X89133726Y-136367856D01*
D25*
X88265468Y-138429078D03*
D26*
X81915468Y-135889078D03*
D27*
X82317210Y-136367856D02*
X81513726Y-135410300D01*
D25*
X83185468Y-137849078D03*
X83185468Y-137349078D03*
X88265468Y-137349078D03*
X88265468Y-137849078D03*
D28*
X80645468Y-133349078D03*
X90805468Y-133349078D03*
D29*
X80505468Y-129149078D03*
X90945468Y-129149078D03*
G04 #@! TD*
G04 #@! TO.C,SW21*
X129045468Y-129149078D03*
X118605468Y-129149078D03*
D28*
X128905468Y-133349078D03*
X118745468Y-133349078D03*
D25*
X126365468Y-137849078D03*
X126365468Y-137349078D03*
X121285468Y-137349078D03*
X121285468Y-137849078D03*
D26*
X120015468Y-135889078D03*
D27*
X120417210Y-136367856D02*
X119613726Y-135410300D01*
D25*
X126365468Y-138429078D03*
D26*
X127635468Y-135889078D03*
D27*
X128037210Y-135410300D02*
X127233726Y-136367856D01*
D25*
X121285468Y-138429078D03*
D16*
X123825468Y-139249078D03*
D21*
X128925468Y-137249078D03*
D22*
X129230792Y-136885207D02*
X128620144Y-137612949D01*
D24*
X118325468Y-133349078D03*
X129325468Y-133349078D03*
D23*
X123825468Y-133349078D03*
D21*
X118725468Y-137249078D03*
D22*
X119030792Y-137612949D02*
X118420144Y-136885207D01*
G04 #@! TD*
D29*
G04 #@! TO.C,SW22*
X52845468Y-148199078D03*
X42405468Y-148199078D03*
D28*
X52705468Y-152399078D03*
X42545468Y-152399078D03*
D25*
X50165468Y-156899078D03*
X50165468Y-156399078D03*
X45085468Y-156399078D03*
X45085468Y-156899078D03*
D26*
X43815468Y-154939078D03*
D27*
X44217210Y-155417856D02*
X43413726Y-154460300D01*
D25*
X50165468Y-157479078D03*
D26*
X51435468Y-154939078D03*
D27*
X51837210Y-154460300D02*
X51033726Y-155417856D01*
D25*
X45085468Y-157479078D03*
D16*
X47625468Y-158299078D03*
D21*
X52725468Y-156299078D03*
D22*
X53030792Y-155935207D02*
X52420144Y-156662949D01*
D24*
X42125468Y-152399078D03*
X53125468Y-152399078D03*
D23*
X47625468Y-152399078D03*
D21*
X42525468Y-156299078D03*
D22*
X42830792Y-156662949D02*
X42220144Y-155935207D01*
G04 #@! TD*
D21*
G04 #@! TO.C,SW23*
X61575468Y-156299078D03*
D22*
X61880792Y-156662949D02*
X61270144Y-155935207D01*
D23*
X66675468Y-152399078D03*
D24*
X72175468Y-152399078D03*
X61175468Y-152399078D03*
D21*
X71775468Y-156299078D03*
D22*
X72080792Y-155935207D02*
X71470144Y-156662949D01*
D16*
X66675468Y-158299078D03*
D25*
X64135468Y-157479078D03*
D26*
X70485468Y-154939078D03*
D27*
X70887210Y-154460300D02*
X70083726Y-155417856D01*
D25*
X69215468Y-157479078D03*
D26*
X62865468Y-154939078D03*
D27*
X63267210Y-155417856D02*
X62463726Y-154460300D01*
D25*
X64135468Y-156899078D03*
X64135468Y-156399078D03*
X69215468Y-156399078D03*
X69215468Y-156899078D03*
D28*
X61595468Y-152399078D03*
X71755468Y-152399078D03*
D29*
X61455468Y-148199078D03*
X71895468Y-148199078D03*
G04 #@! TD*
D21*
G04 #@! TO.C,SW24*
X80625468Y-156299078D03*
D22*
X80930792Y-156662949D02*
X80320144Y-155935207D01*
D23*
X85725468Y-152399078D03*
D24*
X91225468Y-152399078D03*
X80225468Y-152399078D03*
D21*
X90825468Y-156299078D03*
D22*
X91130792Y-155935207D02*
X90520144Y-156662949D01*
D16*
X85725468Y-158299078D03*
D25*
X83185468Y-157479078D03*
D26*
X89535468Y-154939078D03*
D27*
X89937210Y-154460300D02*
X89133726Y-155417856D01*
D25*
X88265468Y-157479078D03*
D26*
X81915468Y-154939078D03*
D27*
X82317210Y-155417856D02*
X81513726Y-154460300D01*
D25*
X83185468Y-156899078D03*
X83185468Y-156399078D03*
X88265468Y-156399078D03*
X88265468Y-156899078D03*
D28*
X80645468Y-152399078D03*
X90805468Y-152399078D03*
D29*
X80505468Y-148199078D03*
X90945468Y-148199078D03*
G04 #@! TD*
G04 #@! TO.C,SW25*
X109995468Y-157724078D03*
X99555468Y-157724078D03*
D28*
X109855468Y-161924078D03*
X99695468Y-161924078D03*
D25*
X107315468Y-166424078D03*
X107315468Y-165924078D03*
X102235468Y-165924078D03*
X102235468Y-166424078D03*
D26*
X100965468Y-164464078D03*
D27*
X101367210Y-164942856D02*
X100563726Y-163985300D01*
D25*
X107315468Y-167004078D03*
D26*
X108585468Y-164464078D03*
D27*
X108987210Y-163985300D02*
X108183726Y-164942856D01*
D25*
X102235468Y-167004078D03*
D16*
X104775468Y-167824078D03*
D21*
X109875468Y-165824078D03*
D22*
X110180792Y-165460207D02*
X109570144Y-166187949D01*
D24*
X99275468Y-161924078D03*
X110275468Y-161924078D03*
D23*
X104775468Y-161924078D03*
D21*
X99675468Y-165824078D03*
D22*
X99980792Y-166187949D02*
X99370144Y-165460207D01*
G04 #@! TD*
D21*
G04 #@! TO.C,SW26*
X118725468Y-156299078D03*
D22*
X119030792Y-156662949D02*
X118420144Y-155935207D01*
D23*
X123825468Y-152399078D03*
D24*
X129325468Y-152399078D03*
X118325468Y-152399078D03*
D21*
X128925468Y-156299078D03*
D22*
X129230792Y-155935207D02*
X128620144Y-156662949D01*
D16*
X123825468Y-158299078D03*
D25*
X121285468Y-157479078D03*
D26*
X127635468Y-154939078D03*
D27*
X128037210Y-154460300D02*
X127233726Y-155417856D01*
D25*
X126365468Y-157479078D03*
D26*
X120015468Y-154939078D03*
D27*
X120417210Y-155417856D02*
X119613726Y-154460300D01*
D25*
X121285468Y-156899078D03*
X121285468Y-156399078D03*
X126365468Y-156399078D03*
X126365468Y-156899078D03*
D28*
X118745468Y-152399078D03*
X128905468Y-152399078D03*
D29*
X118605468Y-148199078D03*
X129045468Y-148199078D03*
G04 #@! TD*
G04 #@! TO.C,SW27*
X62370468Y-167249078D03*
X51930468Y-167249078D03*
D28*
X62230468Y-171449078D03*
X52070468Y-171449078D03*
D25*
X59690468Y-175949078D03*
X59690468Y-175449078D03*
X54610468Y-175449078D03*
X54610468Y-175949078D03*
D26*
X53340468Y-173989078D03*
D27*
X53742210Y-174467856D02*
X52938726Y-173510300D01*
D25*
X59690468Y-176529078D03*
D26*
X60960468Y-173989078D03*
D27*
X61362210Y-173510300D02*
X60558726Y-174467856D01*
D25*
X54610468Y-176529078D03*
D16*
X57150468Y-177349078D03*
D21*
X62250468Y-175349078D03*
D22*
X62555792Y-174985207D02*
X61945144Y-175712949D01*
D24*
X51650468Y-171449078D03*
X62650468Y-171449078D03*
D23*
X57150468Y-171449078D03*
D21*
X52050468Y-175349078D03*
D22*
X52355792Y-175712949D02*
X51745144Y-174985207D01*
G04 #@! TD*
D21*
G04 #@! TO.C,SW28*
X80625468Y-175349078D03*
D22*
X80930792Y-175712949D02*
X80320144Y-174985207D01*
D23*
X85725468Y-171449078D03*
D24*
X91225468Y-171449078D03*
X80225468Y-171449078D03*
D21*
X90825468Y-175349078D03*
D22*
X91130792Y-174985207D02*
X90520144Y-175712949D01*
D16*
X85725468Y-177349078D03*
D25*
X83185468Y-176529078D03*
D26*
X89535468Y-173989078D03*
D27*
X89937210Y-173510300D02*
X89133726Y-174467856D01*
D25*
X88265468Y-176529078D03*
D26*
X81915468Y-173989078D03*
D27*
X82317210Y-174467856D02*
X81513726Y-173510300D01*
D25*
X83185468Y-175949078D03*
X83185468Y-175449078D03*
X88265468Y-175449078D03*
X88265468Y-175949078D03*
D28*
X80645468Y-171449078D03*
X90805468Y-171449078D03*
D29*
X80505468Y-167249078D03*
X90945468Y-167249078D03*
G04 #@! TD*
G04 #@! TO.C,SW29*
X129045468Y-167249078D03*
X118605468Y-167249078D03*
D28*
X128905468Y-171449078D03*
X118745468Y-171449078D03*
D25*
X126365468Y-175949078D03*
X126365468Y-175449078D03*
X121285468Y-175449078D03*
X121285468Y-175949078D03*
D26*
X120015468Y-173989078D03*
D27*
X120417210Y-174467856D02*
X119613726Y-173510300D01*
D25*
X126365468Y-176529078D03*
D26*
X127635468Y-173989078D03*
D27*
X128037210Y-173510300D02*
X127233726Y-174467856D01*
D25*
X121285468Y-176529078D03*
D16*
X123825468Y-177349078D03*
D21*
X128925468Y-175349078D03*
D22*
X129230792Y-174985207D02*
X128620144Y-175712949D01*
D24*
X118325468Y-171449078D03*
X129325468Y-171449078D03*
D23*
X123825468Y-171449078D03*
D21*
X118725468Y-175349078D03*
D22*
X119030792Y-175712949D02*
X118420144Y-174985207D01*
G04 #@! TD*
D30*
G04 #@! TO.C,SW30*
X90805000Y-50875000D03*
X90805000Y-44375000D03*
G04 #@! TD*
D31*
G04 #@! TO.C,U1*
X107175000Y-43498740D03*
X107175000Y-41748740D03*
X102375000Y-41748740D03*
X102375000Y-43498740D03*
G04 #@! TD*
G04 #@! TO.C,U2*
X126225000Y-43498740D03*
X126225000Y-41748740D03*
X121425000Y-41748740D03*
X121425000Y-43498740D03*
G04 #@! TD*
G04 #@! TO.C,U3*
X45225000Y-62548740D03*
X45225000Y-60798740D03*
X50025000Y-60798740D03*
X50025000Y-62548740D03*
G04 #@! TD*
G04 #@! TO.C,U4*
X69075000Y-62548740D03*
X69075000Y-60798740D03*
X64275000Y-60798740D03*
X64275000Y-62548740D03*
G04 #@! TD*
G04 #@! TO.C,U5*
X88125000Y-62548740D03*
X88125000Y-60798740D03*
X83325000Y-60798740D03*
X83325000Y-62548740D03*
G04 #@! TD*
G04 #@! TO.C,U6*
X102375000Y-62548740D03*
X102375000Y-60798740D03*
X107175000Y-60798740D03*
X107175000Y-62548740D03*
G04 #@! TD*
G04 #@! TO.C,U7*
X126225000Y-62548740D03*
X126225000Y-60798740D03*
X121425000Y-60798740D03*
X121425000Y-62548740D03*
G04 #@! TD*
G04 #@! TO.C,U8*
X50025000Y-91123740D03*
X50025000Y-89373740D03*
X45225000Y-89373740D03*
X45225000Y-91123740D03*
G04 #@! TD*
G04 #@! TO.C,U9*
X64275000Y-91123740D03*
X64275000Y-89373740D03*
X69075000Y-89373740D03*
X69075000Y-91123740D03*
G04 #@! TD*
G04 #@! TO.C,U10*
X83325000Y-91123740D03*
X83325000Y-89373740D03*
X88125000Y-89373740D03*
X88125000Y-91123740D03*
G04 #@! TD*
G04 #@! TO.C,U11*
X102375000Y-91123740D03*
X102375000Y-89373740D03*
X107175000Y-89373740D03*
X107175000Y-91123740D03*
G04 #@! TD*
G04 #@! TO.C,U12*
X126225000Y-91123740D03*
X126225000Y-89373740D03*
X121425000Y-89373740D03*
X121425000Y-91123740D03*
G04 #@! TD*
G04 #@! TO.C,U13*
X50025000Y-110173740D03*
X50025000Y-108423740D03*
X45225000Y-108423740D03*
X45225000Y-110173740D03*
G04 #@! TD*
G04 #@! TO.C,U14*
X64275000Y-110173740D03*
X64275000Y-108423740D03*
X69075000Y-108423740D03*
X69075000Y-110173740D03*
G04 #@! TD*
G04 #@! TO.C,U15*
X88125000Y-110173740D03*
X88125000Y-108423740D03*
X83325000Y-108423740D03*
X83325000Y-110173740D03*
G04 #@! TD*
G04 #@! TO.C,U16*
X102375000Y-119698740D03*
X102375000Y-117948740D03*
X107175000Y-117948740D03*
X107175000Y-119698740D03*
G04 #@! TD*
G04 #@! TO.C,U17*
X121425000Y-110173740D03*
X121425000Y-108423740D03*
X126225000Y-108423740D03*
X126225000Y-110173740D03*
G04 #@! TD*
G04 #@! TO.C,U18*
X45225000Y-129223740D03*
X45225000Y-127473740D03*
X50025000Y-127473740D03*
X50025000Y-129223740D03*
G04 #@! TD*
G04 #@! TO.C,U19*
X64275000Y-129223740D03*
X64275000Y-127473740D03*
X69075000Y-127473740D03*
X69075000Y-129223740D03*
G04 #@! TD*
G04 #@! TO.C,U20*
X88125000Y-129223740D03*
X88125000Y-127473740D03*
X83325000Y-127473740D03*
X83325000Y-129223740D03*
G04 #@! TD*
G04 #@! TO.C,U21*
X121425000Y-129223740D03*
X121425000Y-127473740D03*
X126225000Y-127473740D03*
X126225000Y-129223740D03*
G04 #@! TD*
G04 #@! TO.C,U22*
X45225000Y-148273740D03*
X45225000Y-146523740D03*
X50025000Y-146523740D03*
X50025000Y-148273740D03*
G04 #@! TD*
G04 #@! TO.C,U23*
X69075000Y-148273740D03*
X69075000Y-146523740D03*
X64275000Y-146523740D03*
X64275000Y-148273740D03*
G04 #@! TD*
G04 #@! TO.C,U24*
X88125000Y-148273740D03*
X88125000Y-146523740D03*
X83325000Y-146523740D03*
X83325000Y-148273740D03*
G04 #@! TD*
G04 #@! TO.C,U25*
X102375000Y-157798740D03*
X102375000Y-156048740D03*
X107175000Y-156048740D03*
X107175000Y-157798740D03*
G04 #@! TD*
G04 #@! TO.C,U26*
X126225000Y-148273740D03*
X126225000Y-146523740D03*
X121425000Y-146523740D03*
X121425000Y-148273740D03*
G04 #@! TD*
G04 #@! TO.C,U27*
X59550000Y-167323740D03*
X59550000Y-165573740D03*
X54750000Y-165573740D03*
X54750000Y-167323740D03*
G04 #@! TD*
G04 #@! TO.C,U28*
X83325000Y-167323740D03*
X83325000Y-165573740D03*
X88125000Y-165573740D03*
X88125000Y-167323740D03*
G04 #@! TD*
G04 #@! TO.C,U29*
X126225000Y-167323740D03*
X126225000Y-165573740D03*
X121425000Y-165573740D03*
X121425000Y-167323740D03*
G04 #@! TD*
M02*
