G04 #@! TF.GenerationSoftware,KiCad,Pcbnew,(5.0.0)*
G04 #@! TF.CreationDate,2018-09-18T23:33:11-07:00*
G04 #@! TF.ProjectId,chiral,63686972616C2E6B696361645F706362,v0.2*
G04 #@! TF.SameCoordinates,Original*
G04 #@! TF.FileFunction,Profile,NP*
%FSLAX46Y46*%
G04 Gerber Fmt 4.6, Leading zero omitted, Abs format (unit mm)*
G04 Created by KiCad (PCBNEW (5.0.0)) date 09/18/18 23:33:11*
%MOMM*%
%LPD*%
G01*
G04 APERTURE LIST*
%ADD10C,0.150000*%
G04 #@! TA.AperFunction,NonConductor*
%ADD11C,0.150000*%
G04 #@! TD*
G04 APERTURE END LIST*
D10*
X115350000Y-38625000D02*
X132825000Y-38625000D01*
X38625000Y-38625000D02*
X113250000Y-38625000D01*
X38625000Y-180450000D02*
X38625000Y-38625000D01*
X132825000Y-180450000D02*
X115325000Y-180450000D01*
X113300000Y-180450000D02*
X38625000Y-180450000D01*
X132825000Y-38625000D02*
X132825000Y-180450000D01*
D11*
G04 #@! TO.C,B1*
X113250000Y-38625000D02*
G75*
G02X113775000Y-39150000I0J-525000D01*
G01*
X115350000Y-38625000D02*
G75*
G03X114825000Y-39150000I0J-525000D01*
G01*
X114825000Y-46650000D02*
G75*
G02X113775000Y-46650000I-525000J0D01*
G01*
X113775000Y-39150000D02*
X113775000Y-46650000D01*
X114825000Y-46650000D02*
X114825000Y-39150000D01*
G04 #@! TO.C,B2*
X113775000Y-49125000D02*
X113775000Y-65175000D01*
X114825000Y-65175000D02*
X114825000Y-49125000D01*
X113775000Y-49125000D02*
G75*
G02X114825000Y-49125000I525000J0D01*
G01*
X114825000Y-65175000D02*
G75*
G02X113775000Y-65175000I-525000J0D01*
G01*
G04 #@! TO.C,B3*
X113775000Y-68175000D02*
X113775000Y-93750000D01*
X114825000Y-93750000D02*
X114825000Y-68175000D01*
X113775000Y-68175000D02*
G75*
G02X114825000Y-68175000I525000J0D01*
G01*
X114825000Y-93750000D02*
G75*
G02X113775000Y-93750000I-525000J0D01*
G01*
G04 #@! TO.C,B4*
X114825000Y-112800000D02*
G75*
G02X113775000Y-112800000I-525000J0D01*
G01*
X113775000Y-96750000D02*
G75*
G02X114825000Y-96750000I525000J0D01*
G01*
X114825000Y-112800000D02*
X114825000Y-96750000D01*
X113775000Y-96750000D02*
X113775000Y-112800000D01*
G04 #@! TO.C,B5*
X113775000Y-115800000D02*
X113775000Y-131850000D01*
X114825000Y-131850000D02*
X114825000Y-115800000D01*
X113775000Y-115800000D02*
G75*
G02X114825000Y-115800000I525000J0D01*
G01*
X114825000Y-131850000D02*
G75*
G02X113775000Y-131850000I-525000J0D01*
G01*
G04 #@! TO.C,B6*
X114825000Y-150900000D02*
G75*
G02X113775000Y-150900000I-525000J0D01*
G01*
X113775000Y-134850000D02*
G75*
G02X114825000Y-134850000I525000J0D01*
G01*
X114825000Y-150900000D02*
X114825000Y-134850000D01*
X113775000Y-134850000D02*
X113775000Y-150900000D01*
G04 #@! TO.C,B7*
X113775000Y-153900000D02*
X113775000Y-169950000D01*
X114825000Y-169950000D02*
X114825000Y-153900000D01*
X113775000Y-153900000D02*
G75*
G02X114825000Y-153900000I525000J0D01*
G01*
X114825000Y-169950000D02*
G75*
G02X113775000Y-169950000I-525000J0D01*
G01*
G04 #@! TO.C,B8*
X113775000Y-172425000D02*
X113775000Y-179925000D01*
X114825000Y-179925000D02*
X114825000Y-172425000D01*
X113775000Y-172425000D02*
G75*
G02X114825000Y-172425000I525000J0D01*
G01*
X113250000Y-180450000D02*
G75*
G03X113775000Y-179925000I0J525000D01*
G01*
X115350000Y-180450000D02*
G75*
G02X114825000Y-179925000I0J525000D01*
G01*
G04 #@! TO.C,U1*
X106525000Y-44873740D02*
X103025000Y-44873740D01*
X103025000Y-40373740D02*
X106525000Y-40373740D01*
X106525000Y-40373740D02*
X106525000Y-44873740D01*
X103025000Y-40373740D02*
X103025000Y-44873740D01*
G04 #@! TO.C,U2*
X125575000Y-44873740D02*
X122075000Y-44873740D01*
X122075000Y-40373740D02*
X125575000Y-40373740D01*
X125575000Y-40373740D02*
X125575000Y-44873740D01*
X122075000Y-40373740D02*
X122075000Y-44873740D01*
G04 #@! TO.C,U3*
X45875000Y-59423740D02*
X45875000Y-63923740D01*
X49375000Y-59423740D02*
X49375000Y-63923740D01*
X45875000Y-59423740D02*
X49375000Y-59423740D01*
X49375000Y-63923740D02*
X45875000Y-63923740D01*
G04 #@! TO.C,U4*
X68425000Y-63923740D02*
X64925000Y-63923740D01*
X64925000Y-59423740D02*
X68425000Y-59423740D01*
X68425000Y-59423740D02*
X68425000Y-63923740D01*
X64925000Y-59423740D02*
X64925000Y-63923740D01*
G04 #@! TO.C,U5*
X87475000Y-63923740D02*
X83975000Y-63923740D01*
X83975000Y-59423740D02*
X87475000Y-59423740D01*
X87475000Y-59423740D02*
X87475000Y-63923740D01*
X83975000Y-59423740D02*
X83975000Y-63923740D01*
G04 #@! TO.C,U6*
X103025000Y-59423740D02*
X103025000Y-63923740D01*
X106525000Y-59423740D02*
X106525000Y-63923740D01*
X103025000Y-59423740D02*
X106525000Y-59423740D01*
X106525000Y-63923740D02*
X103025000Y-63923740D01*
G04 #@! TO.C,U7*
X125575000Y-63923740D02*
X122075000Y-63923740D01*
X122075000Y-59423740D02*
X125575000Y-59423740D01*
X125575000Y-59423740D02*
X125575000Y-63923740D01*
X122075000Y-59423740D02*
X122075000Y-63923740D01*
G04 #@! TO.C,U8*
X49375000Y-92498740D02*
X45875000Y-92498740D01*
X45875000Y-87998740D02*
X49375000Y-87998740D01*
X49375000Y-87998740D02*
X49375000Y-92498740D01*
X45875000Y-87998740D02*
X45875000Y-92498740D01*
G04 #@! TO.C,U9*
X64925000Y-87998740D02*
X64925000Y-92498740D01*
X68425000Y-87998740D02*
X68425000Y-92498740D01*
X64925000Y-87998740D02*
X68425000Y-87998740D01*
X68425000Y-92498740D02*
X64925000Y-92498740D01*
G04 #@! TO.C,U10*
X83975000Y-87998740D02*
X83975000Y-92498740D01*
X87475000Y-87998740D02*
X87475000Y-92498740D01*
X83975000Y-87998740D02*
X87475000Y-87998740D01*
X87475000Y-92498740D02*
X83975000Y-92498740D01*
G04 #@! TO.C,U11*
X103025000Y-87998740D02*
X103025000Y-92498740D01*
X106525000Y-87998740D02*
X106525000Y-92498740D01*
X103025000Y-87998740D02*
X106525000Y-87998740D01*
X106525000Y-92498740D02*
X103025000Y-92498740D01*
G04 #@! TO.C,U12*
X125575000Y-92498740D02*
X122075000Y-92498740D01*
X122075000Y-87998740D02*
X125575000Y-87998740D01*
X125575000Y-87998740D02*
X125575000Y-92498740D01*
X122075000Y-87998740D02*
X122075000Y-92498740D01*
G04 #@! TO.C,U13*
X49375000Y-111548740D02*
X45875000Y-111548740D01*
X45875000Y-107048740D02*
X49375000Y-107048740D01*
X49375000Y-107048740D02*
X49375000Y-111548740D01*
X45875000Y-107048740D02*
X45875000Y-111548740D01*
G04 #@! TO.C,U14*
X64925000Y-107048740D02*
X64925000Y-111548740D01*
X68425000Y-107048740D02*
X68425000Y-111548740D01*
X64925000Y-107048740D02*
X68425000Y-107048740D01*
X68425000Y-111548740D02*
X64925000Y-111548740D01*
G04 #@! TO.C,U15*
X87475000Y-111548740D02*
X83975000Y-111548740D01*
X83975000Y-107048740D02*
X87475000Y-107048740D01*
X87475000Y-107048740D02*
X87475000Y-111548740D01*
X83975000Y-107048740D02*
X83975000Y-111548740D01*
G04 #@! TO.C,U16*
X103025000Y-116573740D02*
X103025000Y-121073740D01*
X106525000Y-116573740D02*
X106525000Y-121073740D01*
X103025000Y-116573740D02*
X106525000Y-116573740D01*
X106525000Y-121073740D02*
X103025000Y-121073740D01*
G04 #@! TO.C,U17*
X122075000Y-107048740D02*
X122075000Y-111548740D01*
X125575000Y-107048740D02*
X125575000Y-111548740D01*
X122075000Y-107048740D02*
X125575000Y-107048740D01*
X125575000Y-111548740D02*
X122075000Y-111548740D01*
G04 #@! TO.C,U18*
X45875000Y-126098740D02*
X45875000Y-130598740D01*
X49375000Y-126098740D02*
X49375000Y-130598740D01*
X45875000Y-126098740D02*
X49375000Y-126098740D01*
X49375000Y-130598740D02*
X45875000Y-130598740D01*
G04 #@! TO.C,U19*
X64925000Y-126098740D02*
X64925000Y-130598740D01*
X68425000Y-126098740D02*
X68425000Y-130598740D01*
X64925000Y-126098740D02*
X68425000Y-126098740D01*
X68425000Y-130598740D02*
X64925000Y-130598740D01*
G04 #@! TO.C,U20*
X87475000Y-130598740D02*
X83975000Y-130598740D01*
X83975000Y-126098740D02*
X87475000Y-126098740D01*
X87475000Y-126098740D02*
X87475000Y-130598740D01*
X83975000Y-126098740D02*
X83975000Y-130598740D01*
G04 #@! TO.C,U21*
X122075000Y-126098740D02*
X122075000Y-130598740D01*
X125575000Y-126098740D02*
X125575000Y-130598740D01*
X122075000Y-126098740D02*
X125575000Y-126098740D01*
X125575000Y-130598740D02*
X122075000Y-130598740D01*
G04 #@! TO.C,U22*
X45875000Y-145148740D02*
X45875000Y-149648740D01*
X49375000Y-145148740D02*
X49375000Y-149648740D01*
X45875000Y-145148740D02*
X49375000Y-145148740D01*
X49375000Y-149648740D02*
X45875000Y-149648740D01*
G04 #@! TO.C,U23*
X68425000Y-149648740D02*
X64925000Y-149648740D01*
X64925000Y-145148740D02*
X68425000Y-145148740D01*
X68425000Y-145148740D02*
X68425000Y-149648740D01*
X64925000Y-145148740D02*
X64925000Y-149648740D01*
G04 #@! TO.C,U24*
X87475000Y-149648740D02*
X83975000Y-149648740D01*
X83975000Y-145148740D02*
X87475000Y-145148740D01*
X87475000Y-145148740D02*
X87475000Y-149648740D01*
X83975000Y-145148740D02*
X83975000Y-149648740D01*
G04 #@! TO.C,U25*
X103025000Y-154673740D02*
X103025000Y-159173740D01*
X106525000Y-154673740D02*
X106525000Y-159173740D01*
X103025000Y-154673740D02*
X106525000Y-154673740D01*
X106525000Y-159173740D02*
X103025000Y-159173740D01*
G04 #@! TO.C,U26*
X125575000Y-149648740D02*
X122075000Y-149648740D01*
X122075000Y-145148740D02*
X125575000Y-145148740D01*
X125575000Y-145148740D02*
X125575000Y-149648740D01*
X122075000Y-145148740D02*
X122075000Y-149648740D01*
G04 #@! TO.C,U27*
X58900000Y-168698740D02*
X55400000Y-168698740D01*
X55400000Y-164198740D02*
X58900000Y-164198740D01*
X58900000Y-164198740D02*
X58900000Y-168698740D01*
X55400000Y-164198740D02*
X55400000Y-168698740D01*
G04 #@! TO.C,U28*
X83975000Y-164198740D02*
X83975000Y-168698740D01*
X87475000Y-164198740D02*
X87475000Y-168698740D01*
X83975000Y-164198740D02*
X87475000Y-164198740D01*
X87475000Y-168698740D02*
X83975000Y-168698740D01*
G04 #@! TO.C,U29*
X125575000Y-168698740D02*
X122075000Y-168698740D01*
X122075000Y-164198740D02*
X125575000Y-164198740D01*
X125575000Y-164198740D02*
X125575000Y-168698740D01*
X122075000Y-164198740D02*
X122075000Y-168698740D01*
G04 #@! TD*
M02*
