G04 #@! TF.GenerationSoftware,KiCad,Pcbnew,(5.0.0)*
G04 #@! TF.CreationDate,2018-09-18T23:33:11-07:00*
G04 #@! TF.ProjectId,chiral,63686972616C2E6B696361645F706362,v0.2*
G04 #@! TF.SameCoordinates,Original*
G04 #@! TF.FileFunction,Legend,Top*
G04 #@! TF.FilePolarity,Positive*
%FSLAX46Y46*%
G04 Gerber Fmt 4.6, Leading zero omitted, Abs format (unit mm)*
G04 Created by KiCad (PCBNEW (5.0.0)) date 09/18/18 23:33:11*
%MOMM*%
%LPD*%
G01*
G04 APERTURE LIST*
%ADD10C,0.200000*%
%ADD11C,0.300000*%
%ADD12C,0.750000*%
%ADD13C,0.010000*%
%ADD14C,0.150000*%
G04 APERTURE END LIST*
D10*
X118262619Y-85237142D02*
X118560238Y-86070476D01*
X118857857Y-85237142D01*
X119572142Y-84820476D02*
X119691190Y-84820476D01*
X119810238Y-84880000D01*
X119869761Y-84939523D01*
X119929285Y-85058571D01*
X119988809Y-85296666D01*
X119988809Y-85594285D01*
X119929285Y-85832380D01*
X119869761Y-85951428D01*
X119810238Y-86010952D01*
X119691190Y-86070476D01*
X119572142Y-86070476D01*
X119453095Y-86010952D01*
X119393571Y-85951428D01*
X119334047Y-85832380D01*
X119274523Y-85594285D01*
X119274523Y-85296666D01*
X119334047Y-85058571D01*
X119393571Y-84939523D01*
X119453095Y-84880000D01*
X119572142Y-84820476D01*
X120524523Y-85951428D02*
X120584047Y-86010952D01*
X120524523Y-86070476D01*
X120465000Y-86010952D01*
X120524523Y-85951428D01*
X120524523Y-86070476D01*
X121060238Y-84939523D02*
X121119761Y-84880000D01*
X121238809Y-84820476D01*
X121536428Y-84820476D01*
X121655476Y-84880000D01*
X121715000Y-84939523D01*
X121774523Y-85058571D01*
X121774523Y-85177619D01*
X121715000Y-85356190D01*
X121000714Y-86070476D01*
X121774523Y-86070476D01*
X123262619Y-85594285D02*
X124215000Y-85594285D01*
X125762619Y-85237142D02*
X125762619Y-86487142D01*
X125762619Y-85296666D02*
X125881666Y-85237142D01*
X126119761Y-85237142D01*
X126238809Y-85296666D01*
X126298333Y-85356190D01*
X126357857Y-85475238D01*
X126357857Y-85832380D01*
X126298333Y-85951428D01*
X126238809Y-86010952D01*
X126119761Y-86070476D01*
X125881666Y-86070476D01*
X125762619Y-86010952D01*
X126893571Y-86070476D02*
X126893571Y-85237142D01*
X126893571Y-85475238D02*
X126953095Y-85356190D01*
X127012619Y-85296666D01*
X127131666Y-85237142D01*
X127250714Y-85237142D01*
X127845952Y-86070476D02*
X127726904Y-86010952D01*
X127667380Y-85951428D01*
X127607857Y-85832380D01*
X127607857Y-85475238D01*
X127667380Y-85356190D01*
X127726904Y-85296666D01*
X127845952Y-85237142D01*
X128024523Y-85237142D01*
X128143571Y-85296666D01*
X128203095Y-85356190D01*
X128262619Y-85475238D01*
X128262619Y-85832380D01*
X128203095Y-85951428D01*
X128143571Y-86010952D01*
X128024523Y-86070476D01*
X127845952Y-86070476D01*
X128619761Y-85237142D02*
X129095952Y-85237142D01*
X128798333Y-84820476D02*
X128798333Y-85891904D01*
X128857857Y-86010952D01*
X128976904Y-86070476D01*
X129095952Y-86070476D01*
X129691190Y-86070476D02*
X129572142Y-86010952D01*
X129512619Y-85951428D01*
X129453095Y-85832380D01*
X129453095Y-85475238D01*
X129512619Y-85356190D01*
X129572142Y-85296666D01*
X129691190Y-85237142D01*
X129869761Y-85237142D01*
X129988809Y-85296666D01*
X130048333Y-85356190D01*
X130107857Y-85475238D01*
X130107857Y-85832380D01*
X130048333Y-85951428D01*
X129988809Y-86010952D01*
X129869761Y-86070476D01*
X129691190Y-86070476D01*
D11*
X64450000Y-82918571D02*
X64450000Y-81418571D01*
X64450000Y-82847142D02*
X64307142Y-82918571D01*
X64021428Y-82918571D01*
X63878571Y-82847142D01*
X63807142Y-82775714D01*
X63735714Y-82632857D01*
X63735714Y-82204285D01*
X63807142Y-82061428D01*
X63878571Y-81990000D01*
X64021428Y-81918571D01*
X64307142Y-81918571D01*
X64450000Y-81990000D01*
X65735714Y-82847142D02*
X65592857Y-82918571D01*
X65307142Y-82918571D01*
X65164285Y-82847142D01*
X65092857Y-82704285D01*
X65092857Y-82132857D01*
X65164285Y-81990000D01*
X65307142Y-81918571D01*
X65592857Y-81918571D01*
X65735714Y-81990000D01*
X65807142Y-82132857D01*
X65807142Y-82275714D01*
X65092857Y-82418571D01*
X66378571Y-82847142D02*
X66521428Y-82918571D01*
X66807142Y-82918571D01*
X66950000Y-82847142D01*
X67021428Y-82704285D01*
X67021428Y-82632857D01*
X66950000Y-82490000D01*
X66807142Y-82418571D01*
X66592857Y-82418571D01*
X66450000Y-82347142D01*
X66378571Y-82204285D01*
X66378571Y-82132857D01*
X66450000Y-81990000D01*
X66592857Y-81918571D01*
X66807142Y-81918571D01*
X66950000Y-81990000D01*
X67664285Y-82918571D02*
X67664285Y-81918571D01*
X67664285Y-81418571D02*
X67592857Y-81490000D01*
X67664285Y-81561428D01*
X67735714Y-81490000D01*
X67664285Y-81418571D01*
X67664285Y-81561428D01*
X69021428Y-81918571D02*
X69021428Y-83132857D01*
X68950000Y-83275714D01*
X68878571Y-83347142D01*
X68735714Y-83418571D01*
X68521428Y-83418571D01*
X68378571Y-83347142D01*
X69021428Y-82847142D02*
X68878571Y-82918571D01*
X68592857Y-82918571D01*
X68450000Y-82847142D01*
X68378571Y-82775714D01*
X68307142Y-82632857D01*
X68307142Y-82204285D01*
X68378571Y-82061428D01*
X68450000Y-81990000D01*
X68592857Y-81918571D01*
X68878571Y-81918571D01*
X69021428Y-81990000D01*
X69735714Y-81918571D02*
X69735714Y-82918571D01*
X69735714Y-82061428D02*
X69807142Y-81990000D01*
X69950000Y-81918571D01*
X70164285Y-81918571D01*
X70307142Y-81990000D01*
X70378571Y-82132857D01*
X70378571Y-82918571D01*
X71664285Y-82847142D02*
X71521428Y-82918571D01*
X71235714Y-82918571D01*
X71092857Y-82847142D01*
X71021428Y-82704285D01*
X71021428Y-82132857D01*
X71092857Y-81990000D01*
X71235714Y-81918571D01*
X71521428Y-81918571D01*
X71664285Y-81990000D01*
X71735714Y-82132857D01*
X71735714Y-82275714D01*
X71021428Y-82418571D01*
X73021428Y-82918571D02*
X73021428Y-81418571D01*
X73021428Y-82847142D02*
X72878571Y-82918571D01*
X72592857Y-82918571D01*
X72450000Y-82847142D01*
X72378571Y-82775714D01*
X72307142Y-82632857D01*
X72307142Y-82204285D01*
X72378571Y-82061428D01*
X72450000Y-81990000D01*
X72592857Y-81918571D01*
X72878571Y-81918571D01*
X73021428Y-81990000D01*
X74878571Y-82918571D02*
X74878571Y-81418571D01*
X74878571Y-81990000D02*
X75021428Y-81918571D01*
X75307142Y-81918571D01*
X75450000Y-81990000D01*
X75521428Y-82061428D01*
X75592857Y-82204285D01*
X75592857Y-82632857D01*
X75521428Y-82775714D01*
X75450000Y-82847142D01*
X75307142Y-82918571D01*
X75021428Y-82918571D01*
X74878571Y-82847142D01*
X76092857Y-81918571D02*
X76450000Y-82918571D01*
X76807142Y-81918571D02*
X76450000Y-82918571D01*
X76307142Y-83275714D01*
X76235714Y-83347142D01*
X76092857Y-83418571D01*
X78521428Y-82918571D02*
X78521428Y-81418571D01*
X78521428Y-81990000D02*
X78664285Y-81918571D01*
X78950000Y-81918571D01*
X79092857Y-81990000D01*
X79164285Y-82061428D01*
X79235714Y-82204285D01*
X79235714Y-82632857D01*
X79164285Y-82775714D01*
X79092857Y-82847142D01*
X78950000Y-82918571D01*
X78664285Y-82918571D01*
X78521428Y-82847142D01*
X80521428Y-82918571D02*
X80521428Y-82132857D01*
X80450000Y-81990000D01*
X80307142Y-81918571D01*
X80021428Y-81918571D01*
X79878571Y-81990000D01*
X80521428Y-82847142D02*
X80378571Y-82918571D01*
X80021428Y-82918571D01*
X79878571Y-82847142D01*
X79807142Y-82704285D01*
X79807142Y-82561428D01*
X79878571Y-82418571D01*
X80021428Y-82347142D01*
X80378571Y-82347142D01*
X80521428Y-82275714D01*
X81235714Y-82918571D02*
X81235714Y-81418571D01*
X81378571Y-82347142D02*
X81807142Y-82918571D01*
X81807142Y-81918571D02*
X81235714Y-82490000D01*
X83092857Y-82918571D02*
X83092857Y-82132857D01*
X83021428Y-81990000D01*
X82878571Y-81918571D01*
X82592857Y-81918571D01*
X82450000Y-81990000D01*
X83092857Y-82847142D02*
X82950000Y-82918571D01*
X82592857Y-82918571D01*
X82450000Y-82847142D01*
X82378571Y-82704285D01*
X82378571Y-82561428D01*
X82450000Y-82418571D01*
X82592857Y-82347142D01*
X82950000Y-82347142D01*
X83092857Y-82275714D01*
X84450000Y-81918571D02*
X84450000Y-83132857D01*
X84378571Y-83275714D01*
X84307142Y-83347142D01*
X84164285Y-83418571D01*
X83950000Y-83418571D01*
X83807142Y-83347142D01*
X84450000Y-82847142D02*
X84307142Y-82918571D01*
X84021428Y-82918571D01*
X83878571Y-82847142D01*
X83807142Y-82775714D01*
X83735714Y-82632857D01*
X83735714Y-82204285D01*
X83807142Y-82061428D01*
X83878571Y-81990000D01*
X84021428Y-81918571D01*
X84307142Y-81918571D01*
X84450000Y-81990000D01*
X85735714Y-82847142D02*
X85592857Y-82918571D01*
X85307142Y-82918571D01*
X85164285Y-82847142D01*
X85092857Y-82704285D01*
X85092857Y-82132857D01*
X85164285Y-81990000D01*
X85307142Y-81918571D01*
X85592857Y-81918571D01*
X85735714Y-81990000D01*
X85807142Y-82132857D01*
X85807142Y-82275714D01*
X85092857Y-82418571D01*
X86235714Y-81918571D02*
X86807142Y-81918571D01*
X86450000Y-81418571D02*
X86450000Y-82704285D01*
X86521428Y-82847142D01*
X86664285Y-82918571D01*
X86807142Y-82918571D01*
X87950000Y-82918571D02*
X87950000Y-82132857D01*
X87878571Y-81990000D01*
X87735714Y-81918571D01*
X87450000Y-81918571D01*
X87307142Y-81990000D01*
X87950000Y-82847142D02*
X87807142Y-82918571D01*
X87450000Y-82918571D01*
X87307142Y-82847142D01*
X87235714Y-82704285D01*
X87235714Y-82561428D01*
X87307142Y-82418571D01*
X87450000Y-82347142D01*
X87807142Y-82347142D01*
X87950000Y-82275714D01*
X88735714Y-82847142D02*
X88735714Y-82918571D01*
X88664285Y-83061428D01*
X88592857Y-83132857D01*
X63807142Y-85468571D02*
X63807142Y-83968571D01*
X63807142Y-84540000D02*
X63950000Y-84468571D01*
X64235714Y-84468571D01*
X64378571Y-84540000D01*
X64450000Y-84611428D01*
X64521428Y-84754285D01*
X64521428Y-85182857D01*
X64450000Y-85325714D01*
X64378571Y-85397142D01*
X64235714Y-85468571D01*
X63950000Y-85468571D01*
X63807142Y-85397142D01*
X65807142Y-85468571D02*
X65807142Y-84682857D01*
X65735714Y-84540000D01*
X65592857Y-84468571D01*
X65307142Y-84468571D01*
X65164285Y-84540000D01*
X65807142Y-85397142D02*
X65664285Y-85468571D01*
X65307142Y-85468571D01*
X65164285Y-85397142D01*
X65092857Y-85254285D01*
X65092857Y-85111428D01*
X65164285Y-84968571D01*
X65307142Y-84897142D01*
X65664285Y-84897142D01*
X65807142Y-84825714D01*
X66450000Y-85397142D02*
X66592857Y-85468571D01*
X66878571Y-85468571D01*
X67021428Y-85397142D01*
X67092857Y-85254285D01*
X67092857Y-85182857D01*
X67021428Y-85040000D01*
X66878571Y-84968571D01*
X66664285Y-84968571D01*
X66521428Y-84897142D01*
X66450000Y-84754285D01*
X66450000Y-84682857D01*
X66521428Y-84540000D01*
X66664285Y-84468571D01*
X66878571Y-84468571D01*
X67021428Y-84540000D01*
X68307142Y-85397142D02*
X68164285Y-85468571D01*
X67878571Y-85468571D01*
X67735714Y-85397142D01*
X67664285Y-85254285D01*
X67664285Y-84682857D01*
X67735714Y-84540000D01*
X67878571Y-84468571D01*
X68164285Y-84468571D01*
X68307142Y-84540000D01*
X68378571Y-84682857D01*
X68378571Y-84825714D01*
X67664285Y-84968571D01*
X69664285Y-85468571D02*
X69664285Y-83968571D01*
X69664285Y-85397142D02*
X69521428Y-85468571D01*
X69235714Y-85468571D01*
X69092857Y-85397142D01*
X69021428Y-85325714D01*
X68950000Y-85182857D01*
X68950000Y-84754285D01*
X69021428Y-84611428D01*
X69092857Y-84540000D01*
X69235714Y-84468571D01*
X69521428Y-84468571D01*
X69664285Y-84540000D01*
X71735714Y-85468571D02*
X71592857Y-85397142D01*
X71521428Y-85325714D01*
X71450000Y-85182857D01*
X71450000Y-84754285D01*
X71521428Y-84611428D01*
X71592857Y-84540000D01*
X71735714Y-84468571D01*
X71950000Y-84468571D01*
X72092857Y-84540000D01*
X72164285Y-84611428D01*
X72235714Y-84754285D01*
X72235714Y-85182857D01*
X72164285Y-85325714D01*
X72092857Y-85397142D01*
X71950000Y-85468571D01*
X71735714Y-85468571D01*
X72878571Y-84468571D02*
X72878571Y-85468571D01*
X72878571Y-84611428D02*
X72950000Y-84540000D01*
X73092857Y-84468571D01*
X73307142Y-84468571D01*
X73450000Y-84540000D01*
X73521428Y-84682857D01*
X73521428Y-85468571D01*
X75378571Y-84468571D02*
X75378571Y-85968571D01*
X75378571Y-84540000D02*
X75521428Y-84468571D01*
X75807142Y-84468571D01*
X75950000Y-84540000D01*
X76021428Y-84611428D01*
X76092857Y-84754285D01*
X76092857Y-85182857D01*
X76021428Y-85325714D01*
X75950000Y-85397142D01*
X75807142Y-85468571D01*
X75521428Y-85468571D01*
X75378571Y-85397142D01*
X76950000Y-85468571D02*
X76807142Y-85397142D01*
X76735714Y-85254285D01*
X76735714Y-83968571D01*
X78164285Y-84468571D02*
X78164285Y-85468571D01*
X77521428Y-84468571D02*
X77521428Y-85254285D01*
X77592857Y-85397142D01*
X77735714Y-85468571D01*
X77950000Y-85468571D01*
X78092857Y-85397142D01*
X78164285Y-85325714D01*
X78878571Y-85468571D02*
X78878571Y-84468571D01*
X78878571Y-83968571D02*
X78807142Y-84040000D01*
X78878571Y-84111428D01*
X78950000Y-84040000D01*
X78878571Y-83968571D01*
X78878571Y-84111428D01*
X79521428Y-85397142D02*
X79664285Y-85468571D01*
X79950000Y-85468571D01*
X80092857Y-85397142D01*
X80164285Y-85254285D01*
X80164285Y-85182857D01*
X80092857Y-85040000D01*
X79950000Y-84968571D01*
X79735714Y-84968571D01*
X79592857Y-84897142D01*
X79521428Y-84754285D01*
X79521428Y-84682857D01*
X79592857Y-84540000D01*
X79735714Y-84468571D01*
X79950000Y-84468571D01*
X80092857Y-84540000D01*
X80878571Y-85468571D02*
X81164285Y-85468571D01*
X81307142Y-85397142D01*
X81378571Y-85325714D01*
X81521428Y-85111428D01*
X81592857Y-84825714D01*
X81592857Y-84254285D01*
X81521428Y-84111428D01*
X81450000Y-84040000D01*
X81307142Y-83968571D01*
X81021428Y-83968571D01*
X80878571Y-84040000D01*
X80807142Y-84111428D01*
X80735714Y-84254285D01*
X80735714Y-84611428D01*
X80807142Y-84754285D01*
X80878571Y-84825714D01*
X81021428Y-84897142D01*
X81307142Y-84897142D01*
X81450000Y-84825714D01*
X81521428Y-84754285D01*
X81592857Y-84611428D01*
X82307142Y-83968571D02*
X82164285Y-84254285D01*
X82878571Y-85397142D02*
X83021428Y-85468571D01*
X83307142Y-85468571D01*
X83450000Y-85397142D01*
X83521428Y-85254285D01*
X83521428Y-85182857D01*
X83450000Y-85040000D01*
X83307142Y-84968571D01*
X83092857Y-84968571D01*
X82950000Y-84897142D01*
X82878571Y-84754285D01*
X82878571Y-84682857D01*
X82950000Y-84540000D01*
X83092857Y-84468571D01*
X83307142Y-84468571D01*
X83450000Y-84540000D01*
X85307142Y-85468571D02*
X85307142Y-83968571D01*
X85307142Y-84682857D02*
X86164285Y-84682857D01*
X86164285Y-85468571D02*
X86164285Y-83968571D01*
X87450000Y-85397142D02*
X87307142Y-85468571D01*
X87021428Y-85468571D01*
X86878571Y-85397142D01*
X86807142Y-85254285D01*
X86807142Y-84682857D01*
X86878571Y-84540000D01*
X87021428Y-84468571D01*
X87307142Y-84468571D01*
X87450000Y-84540000D01*
X87521428Y-84682857D01*
X87521428Y-84825714D01*
X86807142Y-84968571D01*
X88378571Y-85468571D02*
X88235714Y-85397142D01*
X88164285Y-85254285D01*
X88164285Y-83968571D01*
X88950000Y-85468571D02*
X88950000Y-84468571D01*
X88950000Y-83968571D02*
X88878571Y-84040000D01*
X88950000Y-84111428D01*
X89021428Y-84040000D01*
X88950000Y-83968571D01*
X88950000Y-84111428D01*
X89521428Y-85468571D02*
X90307142Y-84468571D01*
X89521428Y-84468571D02*
X90307142Y-85468571D01*
D12*
X66145952Y-79773571D02*
X65955476Y-79964047D01*
X65384047Y-80154523D01*
X65003095Y-80154523D01*
X64431666Y-79964047D01*
X64050714Y-79583095D01*
X63860238Y-79202142D01*
X63669761Y-78440238D01*
X63669761Y-77868809D01*
X63860238Y-77106904D01*
X64050714Y-76725952D01*
X64431666Y-76345000D01*
X65003095Y-76154523D01*
X65384047Y-76154523D01*
X65955476Y-76345000D01*
X66145952Y-76535476D01*
X67860238Y-80154523D02*
X67860238Y-76154523D01*
X69574523Y-80154523D02*
X69574523Y-78059285D01*
X69384047Y-77678333D01*
X69003095Y-77487857D01*
X68431666Y-77487857D01*
X68050714Y-77678333D01*
X67860238Y-77868809D01*
X71479285Y-80154523D02*
X71479285Y-77487857D01*
X71479285Y-76154523D02*
X71288809Y-76345000D01*
X71479285Y-76535476D01*
X71669761Y-76345000D01*
X71479285Y-76154523D01*
X71479285Y-76535476D01*
X73384047Y-80154523D02*
X73384047Y-77487857D01*
X73384047Y-78249761D02*
X73574523Y-77868809D01*
X73765000Y-77678333D01*
X74145952Y-77487857D01*
X74526904Y-77487857D01*
X77574523Y-80154523D02*
X77574523Y-78059285D01*
X77384047Y-77678333D01*
X77003095Y-77487857D01*
X76241190Y-77487857D01*
X75860238Y-77678333D01*
X77574523Y-79964047D02*
X77193571Y-80154523D01*
X76241190Y-80154523D01*
X75860238Y-79964047D01*
X75669761Y-79583095D01*
X75669761Y-79202142D01*
X75860238Y-78821190D01*
X76241190Y-78630714D01*
X77193571Y-78630714D01*
X77574523Y-78440238D01*
X80050714Y-80154523D02*
X79669761Y-79964047D01*
X79479285Y-79583095D01*
X79479285Y-76154523D01*
D13*
G04 #@! TO.C,LOGO1*
G36*
X105045804Y-137388653D02*
X105378158Y-137414570D01*
X105708269Y-137460400D01*
X106034909Y-137526109D01*
X106356848Y-137611661D01*
X106672859Y-137717022D01*
X106780541Y-137758062D01*
X106840611Y-137781883D01*
X106897679Y-137804820D01*
X106947170Y-137825013D01*
X106984505Y-137840599D01*
X107000145Y-137847403D01*
X107050416Y-137870073D01*
X107050416Y-137976530D01*
X107057962Y-138091394D01*
X107081444Y-138194098D01*
X107122131Y-138287742D01*
X107181290Y-138375424D01*
X107240450Y-138441049D01*
X107327848Y-138516898D01*
X107419563Y-138572936D01*
X107518207Y-138610230D01*
X107626393Y-138629848D01*
X107711875Y-138633625D01*
X107830546Y-138623226D01*
X107941570Y-138593121D01*
X108045209Y-138543240D01*
X108048762Y-138541101D01*
X108110483Y-138503677D01*
X108154595Y-138537937D01*
X108276625Y-138636722D01*
X108405710Y-138748476D01*
X108537024Y-138868654D01*
X108665737Y-138992709D01*
X108787021Y-139116094D01*
X108896048Y-139234265D01*
X108905471Y-139244916D01*
X109124373Y-139509115D01*
X109325147Y-139784105D01*
X109507584Y-140069413D01*
X109671475Y-140364565D01*
X109816612Y-140669087D01*
X109942786Y-140982507D01*
X110049789Y-141304349D01*
X110137411Y-141634141D01*
X110205445Y-141971408D01*
X110252329Y-142303500D01*
X110258996Y-142376829D01*
X110264709Y-142467018D01*
X110269397Y-142569778D01*
X110272985Y-142680820D01*
X110275404Y-142795856D01*
X110276579Y-142910596D01*
X110276438Y-143020752D01*
X110274910Y-143122036D01*
X110271922Y-143210158D01*
X110268563Y-143266583D01*
X110232075Y-143612217D01*
X110175535Y-143951264D01*
X110099054Y-144283426D01*
X110002742Y-144608405D01*
X109886711Y-144925902D01*
X109751072Y-145235619D01*
X109595935Y-145537258D01*
X109421410Y-145830519D01*
X109227610Y-146115106D01*
X109193849Y-146161125D01*
X109030610Y-146368846D01*
X108850390Y-146575384D01*
X108657184Y-146776725D01*
X108454987Y-146968854D01*
X108247796Y-147147759D01*
X108082291Y-147277793D01*
X107804923Y-147473374D01*
X107519851Y-147649461D01*
X107225853Y-147806694D01*
X106921705Y-147945713D01*
X106606188Y-148067158D01*
X106515958Y-148097994D01*
X106216943Y-148188812D01*
X105919978Y-148261208D01*
X105620197Y-148316152D01*
X105312734Y-148354612D01*
X105161291Y-148367480D01*
X105093235Y-148371216D01*
X105008851Y-148373956D01*
X104912953Y-148375706D01*
X104810355Y-148376470D01*
X104705874Y-148376252D01*
X104604322Y-148375059D01*
X104510514Y-148372894D01*
X104429266Y-148369763D01*
X104378125Y-148366684D01*
X104092511Y-148337219D01*
X103800338Y-148291171D01*
X103507015Y-148229414D01*
X103462666Y-148218706D01*
X103138490Y-148128278D01*
X102821591Y-148018280D01*
X102512813Y-147889303D01*
X102212999Y-147741941D01*
X101922991Y-147576788D01*
X101643633Y-147394437D01*
X101375767Y-147195482D01*
X101120238Y-146980516D01*
X100877887Y-146750131D01*
X100649558Y-146504923D01*
X100436094Y-146245484D01*
X100238337Y-145972407D01*
X100208743Y-145928291D01*
X100132712Y-145812069D01*
X100066777Y-145707235D01*
X100007932Y-145608555D01*
X99953169Y-145510794D01*
X99899480Y-145408718D01*
X99843858Y-145297093D01*
X99831736Y-145272125D01*
X99702852Y-144986637D01*
X99592098Y-144699863D01*
X99498732Y-144409118D01*
X99422010Y-144111718D01*
X99361190Y-143804978D01*
X99315528Y-143486215D01*
X99301518Y-143356541D01*
X99297040Y-143296564D01*
X99293475Y-143219354D01*
X99292219Y-143176463D01*
X99993106Y-143176463D01*
X99994546Y-143275232D01*
X99997770Y-143372380D01*
X100002716Y-143463369D01*
X100009322Y-143543663D01*
X100016656Y-143603170D01*
X100064510Y-143849916D01*
X100131237Y-144087112D01*
X100216774Y-144314670D01*
X100321058Y-144532499D01*
X100444027Y-144740512D01*
X100585619Y-144938618D01*
X100745772Y-145126731D01*
X100924424Y-145304759D01*
X101121511Y-145472615D01*
X101336972Y-145630209D01*
X101518078Y-145746152D01*
X101754259Y-145878040D01*
X102007494Y-145998952D01*
X102276540Y-146108557D01*
X102560156Y-146206522D01*
X102857101Y-146292519D01*
X103166132Y-146366214D01*
X103486008Y-146427279D01*
X103815488Y-146475381D01*
X104153329Y-146510190D01*
X104457500Y-146529607D01*
X104518904Y-146531694D01*
X104596813Y-146533222D01*
X104687255Y-146534208D01*
X104786261Y-146534667D01*
X104889862Y-146534616D01*
X104994088Y-146534070D01*
X105094969Y-146533045D01*
X105188536Y-146531558D01*
X105270818Y-146529624D01*
X105337847Y-146527260D01*
X105363846Y-146525953D01*
X105706955Y-146499006D01*
X106034619Y-146458574D01*
X106346718Y-146404699D01*
X106643132Y-146337425D01*
X106923743Y-146256797D01*
X107188430Y-146162858D01*
X107437075Y-146055652D01*
X107669556Y-145935222D01*
X107885754Y-145801612D01*
X108085551Y-145654866D01*
X108268826Y-145495028D01*
X108318817Y-145446284D01*
X108474215Y-145276709D01*
X108610627Y-145097791D01*
X108728020Y-144909597D01*
X108826358Y-144712196D01*
X108905610Y-144505654D01*
X108965741Y-144290041D01*
X109006719Y-144065423D01*
X109008670Y-144050884D01*
X109019744Y-143924045D01*
X109022172Y-143783290D01*
X109016322Y-143633855D01*
X109002564Y-143480975D01*
X108981266Y-143329886D01*
X108952797Y-143185823D01*
X108945575Y-143155458D01*
X108910474Y-143024128D01*
X108869666Y-142893604D01*
X108822376Y-142762421D01*
X108767831Y-142629112D01*
X108705256Y-142492211D01*
X108633877Y-142350253D01*
X108552920Y-142201771D01*
X108461612Y-142045300D01*
X108359178Y-141879372D01*
X108244844Y-141702523D01*
X108117836Y-141513285D01*
X107977381Y-141310194D01*
X107952986Y-141275430D01*
X107829404Y-141098733D01*
X107718244Y-140937399D01*
X107619007Y-140790028D01*
X107531191Y-140655217D01*
X107454298Y-140531566D01*
X107387828Y-140417674D01*
X107331281Y-140312138D01*
X107284157Y-140213559D01*
X107245956Y-140120533D01*
X107216180Y-140031661D01*
X107194327Y-139945541D01*
X107179898Y-139860771D01*
X107172394Y-139775951D01*
X107171314Y-139689678D01*
X107176160Y-139600552D01*
X107186430Y-139507172D01*
X107201626Y-139408135D01*
X107221247Y-139302041D01*
X107231323Y-139251938D01*
X107252476Y-139140412D01*
X107266062Y-139046233D01*
X107271720Y-138966847D01*
X107269091Y-138899701D01*
X107257814Y-138842238D01*
X107237530Y-138791907D01*
X107207878Y-138746151D01*
X107168498Y-138702416D01*
X107151593Y-138686421D01*
X107101326Y-138645365D01*
X107051416Y-138616402D01*
X106996671Y-138597781D01*
X106931901Y-138587754D01*
X106851915Y-138584572D01*
X106849333Y-138584564D01*
X106785363Y-138586459D01*
X106720511Y-138592842D01*
X106652954Y-138604340D01*
X106580872Y-138621578D01*
X106502443Y-138645184D01*
X106415847Y-138675782D01*
X106319261Y-138714000D01*
X106210866Y-138760463D01*
X106088839Y-138815797D01*
X105951360Y-138880630D01*
X105859791Y-138924789D01*
X105740703Y-138982575D01*
X105637777Y-139032366D01*
X105548146Y-139075433D01*
X105468943Y-139113047D01*
X105397298Y-139146478D01*
X105330345Y-139176998D01*
X105265216Y-139205878D01*
X105199042Y-139234388D01*
X105128956Y-139263801D01*
X105052090Y-139295386D01*
X104965577Y-139330415D01*
X104866547Y-139370158D01*
X104752134Y-139415888D01*
X104747710Y-139417655D01*
X104444917Y-139539256D01*
X104161086Y-139654688D01*
X103895095Y-139764466D01*
X103645821Y-139869104D01*
X103412144Y-139969117D01*
X103192942Y-140065020D01*
X102987091Y-140157328D01*
X102793472Y-140246556D01*
X102610961Y-140333218D01*
X102438436Y-140417830D01*
X102274777Y-140500906D01*
X102118861Y-140582961D01*
X101969567Y-140664510D01*
X101825771Y-140746067D01*
X101727000Y-140803905D01*
X101474237Y-140960595D01*
X101242342Y-141118492D01*
X101031033Y-141277932D01*
X100840028Y-141439249D01*
X100669046Y-141602780D01*
X100517807Y-141768860D01*
X100386027Y-141937824D01*
X100273427Y-142110009D01*
X100179724Y-142285750D01*
X100104637Y-142465382D01*
X100047886Y-142649242D01*
X100009187Y-142837664D01*
X100006426Y-142855910D01*
X100000109Y-142915796D01*
X99995825Y-142992208D01*
X99993511Y-143080610D01*
X99993106Y-143176463D01*
X99292219Y-143176463D01*
X99290823Y-143128824D01*
X99289085Y-143028889D01*
X99288260Y-142923462D01*
X99288349Y-142816457D01*
X99289350Y-142711788D01*
X99291266Y-142613369D01*
X99294094Y-142525113D01*
X99297836Y-142450935D01*
X99301518Y-142404041D01*
X99343283Y-142068899D01*
X99401555Y-141745690D01*
X99476882Y-141432440D01*
X99569813Y-141127176D01*
X99680897Y-140827926D01*
X99810681Y-140532716D01*
X99837035Y-140477875D01*
X99995164Y-140177053D01*
X100170540Y-139888061D01*
X100362461Y-139611514D01*
X100570223Y-139348024D01*
X100793125Y-139098204D01*
X101030464Y-138862668D01*
X101281537Y-138642028D01*
X101545641Y-138436899D01*
X101822074Y-138247893D01*
X102110134Y-138075624D01*
X102409116Y-137920704D01*
X102718320Y-137783748D01*
X103037042Y-137665367D01*
X103073375Y-137653268D01*
X103393388Y-137558978D01*
X103718529Y-137484809D01*
X104047569Y-137430727D01*
X104379281Y-137396697D01*
X104712436Y-137382683D01*
X105045804Y-137388653D01*
X105045804Y-137388653D01*
G37*
X105045804Y-137388653D02*
X105378158Y-137414570D01*
X105708269Y-137460400D01*
X106034909Y-137526109D01*
X106356848Y-137611661D01*
X106672859Y-137717022D01*
X106780541Y-137758062D01*
X106840611Y-137781883D01*
X106897679Y-137804820D01*
X106947170Y-137825013D01*
X106984505Y-137840599D01*
X107000145Y-137847403D01*
X107050416Y-137870073D01*
X107050416Y-137976530D01*
X107057962Y-138091394D01*
X107081444Y-138194098D01*
X107122131Y-138287742D01*
X107181290Y-138375424D01*
X107240450Y-138441049D01*
X107327848Y-138516898D01*
X107419563Y-138572936D01*
X107518207Y-138610230D01*
X107626393Y-138629848D01*
X107711875Y-138633625D01*
X107830546Y-138623226D01*
X107941570Y-138593121D01*
X108045209Y-138543240D01*
X108048762Y-138541101D01*
X108110483Y-138503677D01*
X108154595Y-138537937D01*
X108276625Y-138636722D01*
X108405710Y-138748476D01*
X108537024Y-138868654D01*
X108665737Y-138992709D01*
X108787021Y-139116094D01*
X108896048Y-139234265D01*
X108905471Y-139244916D01*
X109124373Y-139509115D01*
X109325147Y-139784105D01*
X109507584Y-140069413D01*
X109671475Y-140364565D01*
X109816612Y-140669087D01*
X109942786Y-140982507D01*
X110049789Y-141304349D01*
X110137411Y-141634141D01*
X110205445Y-141971408D01*
X110252329Y-142303500D01*
X110258996Y-142376829D01*
X110264709Y-142467018D01*
X110269397Y-142569778D01*
X110272985Y-142680820D01*
X110275404Y-142795856D01*
X110276579Y-142910596D01*
X110276438Y-143020752D01*
X110274910Y-143122036D01*
X110271922Y-143210158D01*
X110268563Y-143266583D01*
X110232075Y-143612217D01*
X110175535Y-143951264D01*
X110099054Y-144283426D01*
X110002742Y-144608405D01*
X109886711Y-144925902D01*
X109751072Y-145235619D01*
X109595935Y-145537258D01*
X109421410Y-145830519D01*
X109227610Y-146115106D01*
X109193849Y-146161125D01*
X109030610Y-146368846D01*
X108850390Y-146575384D01*
X108657184Y-146776725D01*
X108454987Y-146968854D01*
X108247796Y-147147759D01*
X108082291Y-147277793D01*
X107804923Y-147473374D01*
X107519851Y-147649461D01*
X107225853Y-147806694D01*
X106921705Y-147945713D01*
X106606188Y-148067158D01*
X106515958Y-148097994D01*
X106216943Y-148188812D01*
X105919978Y-148261208D01*
X105620197Y-148316152D01*
X105312734Y-148354612D01*
X105161291Y-148367480D01*
X105093235Y-148371216D01*
X105008851Y-148373956D01*
X104912953Y-148375706D01*
X104810355Y-148376470D01*
X104705874Y-148376252D01*
X104604322Y-148375059D01*
X104510514Y-148372894D01*
X104429266Y-148369763D01*
X104378125Y-148366684D01*
X104092511Y-148337219D01*
X103800338Y-148291171D01*
X103507015Y-148229414D01*
X103462666Y-148218706D01*
X103138490Y-148128278D01*
X102821591Y-148018280D01*
X102512813Y-147889303D01*
X102212999Y-147741941D01*
X101922991Y-147576788D01*
X101643633Y-147394437D01*
X101375767Y-147195482D01*
X101120238Y-146980516D01*
X100877887Y-146750131D01*
X100649558Y-146504923D01*
X100436094Y-146245484D01*
X100238337Y-145972407D01*
X100208743Y-145928291D01*
X100132712Y-145812069D01*
X100066777Y-145707235D01*
X100007932Y-145608555D01*
X99953169Y-145510794D01*
X99899480Y-145408718D01*
X99843858Y-145297093D01*
X99831736Y-145272125D01*
X99702852Y-144986637D01*
X99592098Y-144699863D01*
X99498732Y-144409118D01*
X99422010Y-144111718D01*
X99361190Y-143804978D01*
X99315528Y-143486215D01*
X99301518Y-143356541D01*
X99297040Y-143296564D01*
X99293475Y-143219354D01*
X99292219Y-143176463D01*
X99993106Y-143176463D01*
X99994546Y-143275232D01*
X99997770Y-143372380D01*
X100002716Y-143463369D01*
X100009322Y-143543663D01*
X100016656Y-143603170D01*
X100064510Y-143849916D01*
X100131237Y-144087112D01*
X100216774Y-144314670D01*
X100321058Y-144532499D01*
X100444027Y-144740512D01*
X100585619Y-144938618D01*
X100745772Y-145126731D01*
X100924424Y-145304759D01*
X101121511Y-145472615D01*
X101336972Y-145630209D01*
X101518078Y-145746152D01*
X101754259Y-145878040D01*
X102007494Y-145998952D01*
X102276540Y-146108557D01*
X102560156Y-146206522D01*
X102857101Y-146292519D01*
X103166132Y-146366214D01*
X103486008Y-146427279D01*
X103815488Y-146475381D01*
X104153329Y-146510190D01*
X104457500Y-146529607D01*
X104518904Y-146531694D01*
X104596813Y-146533222D01*
X104687255Y-146534208D01*
X104786261Y-146534667D01*
X104889862Y-146534616D01*
X104994088Y-146534070D01*
X105094969Y-146533045D01*
X105188536Y-146531558D01*
X105270818Y-146529624D01*
X105337847Y-146527260D01*
X105363846Y-146525953D01*
X105706955Y-146499006D01*
X106034619Y-146458574D01*
X106346718Y-146404699D01*
X106643132Y-146337425D01*
X106923743Y-146256797D01*
X107188430Y-146162858D01*
X107437075Y-146055652D01*
X107669556Y-145935222D01*
X107885754Y-145801612D01*
X108085551Y-145654866D01*
X108268826Y-145495028D01*
X108318817Y-145446284D01*
X108474215Y-145276709D01*
X108610627Y-145097791D01*
X108728020Y-144909597D01*
X108826358Y-144712196D01*
X108905610Y-144505654D01*
X108965741Y-144290041D01*
X109006719Y-144065423D01*
X109008670Y-144050884D01*
X109019744Y-143924045D01*
X109022172Y-143783290D01*
X109016322Y-143633855D01*
X109002564Y-143480975D01*
X108981266Y-143329886D01*
X108952797Y-143185823D01*
X108945575Y-143155458D01*
X108910474Y-143024128D01*
X108869666Y-142893604D01*
X108822376Y-142762421D01*
X108767831Y-142629112D01*
X108705256Y-142492211D01*
X108633877Y-142350253D01*
X108552920Y-142201771D01*
X108461612Y-142045300D01*
X108359178Y-141879372D01*
X108244844Y-141702523D01*
X108117836Y-141513285D01*
X107977381Y-141310194D01*
X107952986Y-141275430D01*
X107829404Y-141098733D01*
X107718244Y-140937399D01*
X107619007Y-140790028D01*
X107531191Y-140655217D01*
X107454298Y-140531566D01*
X107387828Y-140417674D01*
X107331281Y-140312138D01*
X107284157Y-140213559D01*
X107245956Y-140120533D01*
X107216180Y-140031661D01*
X107194327Y-139945541D01*
X107179898Y-139860771D01*
X107172394Y-139775951D01*
X107171314Y-139689678D01*
X107176160Y-139600552D01*
X107186430Y-139507172D01*
X107201626Y-139408135D01*
X107221247Y-139302041D01*
X107231323Y-139251938D01*
X107252476Y-139140412D01*
X107266062Y-139046233D01*
X107271720Y-138966847D01*
X107269091Y-138899701D01*
X107257814Y-138842238D01*
X107237530Y-138791907D01*
X107207878Y-138746151D01*
X107168498Y-138702416D01*
X107151593Y-138686421D01*
X107101326Y-138645365D01*
X107051416Y-138616402D01*
X106996671Y-138597781D01*
X106931901Y-138587754D01*
X106851915Y-138584572D01*
X106849333Y-138584564D01*
X106785363Y-138586459D01*
X106720511Y-138592842D01*
X106652954Y-138604340D01*
X106580872Y-138621578D01*
X106502443Y-138645184D01*
X106415847Y-138675782D01*
X106319261Y-138714000D01*
X106210866Y-138760463D01*
X106088839Y-138815797D01*
X105951360Y-138880630D01*
X105859791Y-138924789D01*
X105740703Y-138982575D01*
X105637777Y-139032366D01*
X105548146Y-139075433D01*
X105468943Y-139113047D01*
X105397298Y-139146478D01*
X105330345Y-139176998D01*
X105265216Y-139205878D01*
X105199042Y-139234388D01*
X105128956Y-139263801D01*
X105052090Y-139295386D01*
X104965577Y-139330415D01*
X104866547Y-139370158D01*
X104752134Y-139415888D01*
X104747710Y-139417655D01*
X104444917Y-139539256D01*
X104161086Y-139654688D01*
X103895095Y-139764466D01*
X103645821Y-139869104D01*
X103412144Y-139969117D01*
X103192942Y-140065020D01*
X102987091Y-140157328D01*
X102793472Y-140246556D01*
X102610961Y-140333218D01*
X102438436Y-140417830D01*
X102274777Y-140500906D01*
X102118861Y-140582961D01*
X101969567Y-140664510D01*
X101825771Y-140746067D01*
X101727000Y-140803905D01*
X101474237Y-140960595D01*
X101242342Y-141118492D01*
X101031033Y-141277932D01*
X100840028Y-141439249D01*
X100669046Y-141602780D01*
X100517807Y-141768860D01*
X100386027Y-141937824D01*
X100273427Y-142110009D01*
X100179724Y-142285750D01*
X100104637Y-142465382D01*
X100047886Y-142649242D01*
X100009187Y-142837664D01*
X100006426Y-142855910D01*
X100000109Y-142915796D01*
X99995825Y-142992208D01*
X99993511Y-143080610D01*
X99993106Y-143176463D01*
X99292219Y-143176463D01*
X99290823Y-143128824D01*
X99289085Y-143028889D01*
X99288260Y-142923462D01*
X99288349Y-142816457D01*
X99289350Y-142711788D01*
X99291266Y-142613369D01*
X99294094Y-142525113D01*
X99297836Y-142450935D01*
X99301518Y-142404041D01*
X99343283Y-142068899D01*
X99401555Y-141745690D01*
X99476882Y-141432440D01*
X99569813Y-141127176D01*
X99680897Y-140827926D01*
X99810681Y-140532716D01*
X99837035Y-140477875D01*
X99995164Y-140177053D01*
X100170540Y-139888061D01*
X100362461Y-139611514D01*
X100570223Y-139348024D01*
X100793125Y-139098204D01*
X101030464Y-138862668D01*
X101281537Y-138642028D01*
X101545641Y-138436899D01*
X101822074Y-138247893D01*
X102110134Y-138075624D01*
X102409116Y-137920704D01*
X102718320Y-137783748D01*
X103037042Y-137665367D01*
X103073375Y-137653268D01*
X103393388Y-137558978D01*
X103718529Y-137484809D01*
X104047569Y-137430727D01*
X104379281Y-137396697D01*
X104712436Y-137382683D01*
X105045804Y-137388653D01*
G36*
X107842560Y-137451381D02*
X107937934Y-137486374D01*
X108026041Y-137539584D01*
X108087724Y-137593144D01*
X108155101Y-137671953D01*
X108202854Y-137753990D01*
X108232450Y-137842837D01*
X108245360Y-137942075D01*
X108246207Y-137979786D01*
X108237036Y-138088168D01*
X108209572Y-138186263D01*
X108163386Y-138275138D01*
X108098050Y-138355857D01*
X108092873Y-138361105D01*
X108011434Y-138428448D01*
X107920006Y-138478754D01*
X107821634Y-138511085D01*
X107719365Y-138524503D01*
X107616243Y-138518070D01*
X107595458Y-138514252D01*
X107497083Y-138485067D01*
X107409676Y-138439313D01*
X107330043Y-138375164D01*
X107302062Y-138346566D01*
X107239995Y-138264930D01*
X107195870Y-138175775D01*
X107169267Y-138081679D01*
X107159767Y-137985223D01*
X107162760Y-137945118D01*
X107415489Y-137945118D01*
X107415626Y-138011147D01*
X107433483Y-138078041D01*
X107466496Y-138140616D01*
X107512104Y-138193685D01*
X107553546Y-138224431D01*
X107621317Y-138256269D01*
X107686401Y-138269186D01*
X107754062Y-138263878D01*
X107787783Y-138255424D01*
X107844397Y-138229371D01*
X107898445Y-138188070D01*
X107943599Y-138137101D01*
X107967297Y-138097028D01*
X107989302Y-138026286D01*
X107991902Y-137954302D01*
X107976338Y-137884496D01*
X107943850Y-137820288D01*
X107895681Y-137765097D01*
X107833072Y-137722343D01*
X107830881Y-137721237D01*
X107759454Y-137696293D01*
X107687786Y-137690755D01*
X107618723Y-137703088D01*
X107555114Y-137731756D01*
X107499805Y-137775226D01*
X107455645Y-137831963D01*
X107425480Y-137900431D01*
X107415489Y-137945118D01*
X107162760Y-137945118D01*
X107166951Y-137888987D01*
X107190400Y-137795551D01*
X107229694Y-137707495D01*
X107284414Y-137627400D01*
X107354141Y-137557845D01*
X107438456Y-137501410D01*
X107439488Y-137500859D01*
X107538384Y-137459345D01*
X107640231Y-137437503D01*
X107742474Y-137434970D01*
X107842560Y-137451381D01*
X107842560Y-137451381D01*
G37*
X107842560Y-137451381D02*
X107937934Y-137486374D01*
X108026041Y-137539584D01*
X108087724Y-137593144D01*
X108155101Y-137671953D01*
X108202854Y-137753990D01*
X108232450Y-137842837D01*
X108245360Y-137942075D01*
X108246207Y-137979786D01*
X108237036Y-138088168D01*
X108209572Y-138186263D01*
X108163386Y-138275138D01*
X108098050Y-138355857D01*
X108092873Y-138361105D01*
X108011434Y-138428448D01*
X107920006Y-138478754D01*
X107821634Y-138511085D01*
X107719365Y-138524503D01*
X107616243Y-138518070D01*
X107595458Y-138514252D01*
X107497083Y-138485067D01*
X107409676Y-138439313D01*
X107330043Y-138375164D01*
X107302062Y-138346566D01*
X107239995Y-138264930D01*
X107195870Y-138175775D01*
X107169267Y-138081679D01*
X107159767Y-137985223D01*
X107162760Y-137945118D01*
X107415489Y-137945118D01*
X107415626Y-138011147D01*
X107433483Y-138078041D01*
X107466496Y-138140616D01*
X107512104Y-138193685D01*
X107553546Y-138224431D01*
X107621317Y-138256269D01*
X107686401Y-138269186D01*
X107754062Y-138263878D01*
X107787783Y-138255424D01*
X107844397Y-138229371D01*
X107898445Y-138188070D01*
X107943599Y-138137101D01*
X107967297Y-138097028D01*
X107989302Y-138026286D01*
X107991902Y-137954302D01*
X107976338Y-137884496D01*
X107943850Y-137820288D01*
X107895681Y-137765097D01*
X107833072Y-137722343D01*
X107830881Y-137721237D01*
X107759454Y-137696293D01*
X107687786Y-137690755D01*
X107618723Y-137703088D01*
X107555114Y-137731756D01*
X107499805Y-137775226D01*
X107455645Y-137831963D01*
X107425480Y-137900431D01*
X107415489Y-137945118D01*
X107162760Y-137945118D01*
X107166951Y-137888987D01*
X107190400Y-137795551D01*
X107229694Y-137707495D01*
X107284414Y-137627400D01*
X107354141Y-137557845D01*
X107438456Y-137501410D01*
X107439488Y-137500859D01*
X107538384Y-137459345D01*
X107640231Y-137437503D01*
X107742474Y-137434970D01*
X107842560Y-137451381D01*
G36*
X106890150Y-138838663D02*
X106941876Y-138853250D01*
X106982689Y-138879532D01*
X106988589Y-138885127D01*
X107005945Y-138908424D01*
X107015923Y-138938166D01*
X107018569Y-138977319D01*
X107013928Y-139028845D01*
X107002046Y-139095710D01*
X106992548Y-139139627D01*
X106969059Y-139249245D01*
X106951203Y-139346683D01*
X106937770Y-139439791D01*
X106927549Y-139536416D01*
X106923236Y-139588875D01*
X106917694Y-139729767D01*
X106923872Y-139862177D01*
X106942658Y-139990239D01*
X106974937Y-140118088D01*
X107021598Y-140249857D01*
X107083529Y-140389680D01*
X107104140Y-140431662D01*
X107142542Y-140506163D01*
X107183902Y-140581754D01*
X107229468Y-140660396D01*
X107280487Y-140744049D01*
X107338207Y-140834673D01*
X107403878Y-140934227D01*
X107478746Y-141044671D01*
X107564059Y-141167965D01*
X107660344Y-141305045D01*
X107794072Y-141495958D01*
X107914957Y-141672062D01*
X108023832Y-141834701D01*
X108121531Y-141985221D01*
X108208887Y-142124966D01*
X108286734Y-142255283D01*
X108355904Y-142377515D01*
X108417233Y-142493008D01*
X108471552Y-142603107D01*
X108492200Y-142647458D01*
X108576025Y-142843151D01*
X108643601Y-143028974D01*
X108695616Y-143207752D01*
X108732757Y-143382311D01*
X108755711Y-143555475D01*
X108765167Y-143730072D01*
X108765504Y-143770816D01*
X108755512Y-143983128D01*
X108725548Y-144188440D01*
X108675629Y-144386709D01*
X108605774Y-144577893D01*
X108516000Y-144761951D01*
X108406326Y-144938840D01*
X108276769Y-145108519D01*
X108127346Y-145270945D01*
X108125755Y-145272530D01*
X107954741Y-145427881D01*
X107767008Y-145570323D01*
X107562548Y-145699860D01*
X107341352Y-145816495D01*
X107103413Y-145920229D01*
X106848724Y-146011066D01*
X106577277Y-146089008D01*
X106289065Y-146154058D01*
X105984079Y-146206219D01*
X105662313Y-146245493D01*
X105323758Y-146271884D01*
X105321513Y-146272013D01*
X105262387Y-146274638D01*
X105186920Y-146276824D01*
X105099207Y-146278552D01*
X105003341Y-146279803D01*
X104903418Y-146280559D01*
X104803530Y-146280800D01*
X104707773Y-146280508D01*
X104620240Y-146279665D01*
X104545027Y-146278251D01*
X104486226Y-146276247D01*
X104478666Y-146275874D01*
X104116369Y-146250134D01*
X103769998Y-146211536D01*
X103438508Y-146159870D01*
X103120855Y-146094929D01*
X102815995Y-146016505D01*
X102522884Y-145924389D01*
X102298500Y-145841625D01*
X102038802Y-145730533D01*
X101796734Y-145608694D01*
X101571352Y-145475511D01*
X101361711Y-145330387D01*
X101166866Y-145172725D01*
X101012476Y-145028708D01*
X100849978Y-144852999D01*
X100706705Y-144668445D01*
X100582697Y-144475144D01*
X100477994Y-144273192D01*
X100392636Y-144062687D01*
X100326664Y-143843726D01*
X100280116Y-143616405D01*
X100253033Y-143380822D01*
X100245379Y-143166041D01*
X100378168Y-143166041D01*
X100378975Y-143277288D01*
X100381679Y-143372340D01*
X100386817Y-143456125D01*
X100394925Y-143533573D01*
X100406540Y-143609610D01*
X100422196Y-143689166D01*
X100442430Y-143777169D01*
X100446432Y-143793602D01*
X100511166Y-144014264D01*
X100594828Y-144225578D01*
X100697278Y-144427385D01*
X100818374Y-144619521D01*
X100957975Y-144801827D01*
X101115941Y-144974139D01*
X101292130Y-145136298D01*
X101486402Y-145288141D01*
X101698614Y-145429507D01*
X101928626Y-145560234D01*
X102039208Y-145616185D01*
X102304722Y-145734987D01*
X102585247Y-145839680D01*
X102880945Y-145930303D01*
X103191977Y-146006896D01*
X103518503Y-146069499D01*
X103860684Y-146118149D01*
X104218682Y-146152888D01*
X104245833Y-146154908D01*
X104302393Y-146157929D01*
X104376398Y-146160186D01*
X104464824Y-146161713D01*
X104564650Y-146162542D01*
X104672852Y-146162707D01*
X104786407Y-146162242D01*
X104902293Y-146161180D01*
X105017487Y-146159554D01*
X105128966Y-146157399D01*
X105233707Y-146154747D01*
X105328688Y-146151632D01*
X105410886Y-146148088D01*
X105477278Y-146144147D01*
X105515833Y-146140852D01*
X105816778Y-146103335D01*
X106100001Y-146055467D01*
X106366414Y-145996938D01*
X106616927Y-145927438D01*
X106852452Y-145846656D01*
X107073901Y-145754280D01*
X107282186Y-145650001D01*
X107478219Y-145533508D01*
X107651426Y-145413118D01*
X107746635Y-145336145D01*
X107844686Y-145246329D01*
X107941877Y-145147747D01*
X108034503Y-145044474D01*
X108118863Y-144940588D01*
X108191252Y-144840163D01*
X108234360Y-144771468D01*
X108330977Y-144587865D01*
X108407115Y-144403894D01*
X108463382Y-144217333D01*
X108500385Y-144025960D01*
X108518731Y-143827553D01*
X108521099Y-143721666D01*
X108515943Y-143558970D01*
X108499838Y-143402775D01*
X108471790Y-143247157D01*
X108430802Y-143086192D01*
X108394898Y-142970250D01*
X108357468Y-142862396D01*
X108316336Y-142755664D01*
X108270595Y-142648453D01*
X108219341Y-142539161D01*
X108161667Y-142426187D01*
X108096669Y-142307930D01*
X108023441Y-142182788D01*
X107941078Y-142049162D01*
X107848674Y-141905448D01*
X107745324Y-141750047D01*
X107630122Y-141581357D01*
X107520531Y-141423938D01*
X107428923Y-141292858D01*
X107348699Y-141176981D01*
X107278684Y-141074472D01*
X107217704Y-140983495D01*
X107164584Y-140902217D01*
X107118147Y-140828800D01*
X107077221Y-140761412D01*
X107040628Y-140698216D01*
X107007195Y-140637377D01*
X106975746Y-140577060D01*
X106966348Y-140558444D01*
X106915269Y-140450274D01*
X106874302Y-140348103D01*
X106843233Y-140249064D01*
X106821847Y-140150291D01*
X106809930Y-140048916D01*
X106807268Y-139942072D01*
X106813647Y-139826893D01*
X106828853Y-139700511D01*
X106852671Y-139560060D01*
X106881231Y-139419541D01*
X106896805Y-139330689D01*
X106901399Y-139257537D01*
X106894861Y-139197602D01*
X106877041Y-139148396D01*
X106863439Y-139126465D01*
X106826806Y-139087507D01*
X106779959Y-139054164D01*
X106773792Y-139050774D01*
X106748839Y-139038056D01*
X106727640Y-139029722D01*
X106705002Y-139025051D01*
X106675735Y-139023327D01*
X106634645Y-139023830D01*
X106590041Y-139025343D01*
X106541078Y-139028160D01*
X106492971Y-139033368D01*
X106444013Y-139041606D01*
X106392493Y-139053518D01*
X106336703Y-139069746D01*
X106274935Y-139090930D01*
X106205479Y-139117714D01*
X106126628Y-139150740D01*
X106036671Y-139190649D01*
X105933901Y-139238083D01*
X105816608Y-139293684D01*
X105683084Y-139358095D01*
X105611083Y-139393130D01*
X105510556Y-139441803D01*
X105417409Y-139486061D01*
X105328228Y-139527395D01*
X105239600Y-139567297D01*
X105148114Y-139607258D01*
X105050355Y-139648771D01*
X104942910Y-139693325D01*
X104822369Y-139742414D01*
X104690333Y-139795519D01*
X104425717Y-139901966D01*
X104179696Y-140001983D01*
X103950901Y-140096174D01*
X103737962Y-140185141D01*
X103539511Y-140269490D01*
X103354179Y-140349823D01*
X103180596Y-140426743D01*
X103017394Y-140500855D01*
X102863204Y-140572761D01*
X102716655Y-140643066D01*
X102576380Y-140712373D01*
X102441010Y-140781285D01*
X102368646Y-140818977D01*
X102130995Y-140947458D01*
X101912826Y-141073272D01*
X101712767Y-141197363D01*
X101529443Y-141320677D01*
X101361482Y-141444158D01*
X101207510Y-141568753D01*
X101066153Y-141695405D01*
X100996250Y-141763318D01*
X100856536Y-141911991D01*
X100736521Y-142059622D01*
X100634977Y-142208335D01*
X100550674Y-142360257D01*
X100482384Y-142517512D01*
X100428878Y-142682225D01*
X100402304Y-142790333D01*
X100394593Y-142827670D01*
X100388699Y-142862308D01*
X100384386Y-142897939D01*
X100381415Y-142938254D01*
X100379550Y-142986948D01*
X100378554Y-143047711D01*
X100378189Y-143124237D01*
X100378168Y-143166041D01*
X100245379Y-143166041D01*
X100245333Y-143164763D01*
X100252150Y-142986182D01*
X100273255Y-142818505D01*
X100309627Y-142658872D01*
X100362245Y-142504420D01*
X100432089Y-142352289D01*
X100520139Y-142199618D01*
X100627374Y-142043546D01*
X100630799Y-142038916D01*
X100674584Y-141984036D01*
X100731508Y-141919089D01*
X100798286Y-141847362D01*
X100871633Y-141772140D01*
X100948264Y-141696712D01*
X101024895Y-141624362D01*
X101098241Y-141558379D01*
X101165018Y-141502047D01*
X101176666Y-141492728D01*
X101298545Y-141398818D01*
X101425641Y-141306207D01*
X101558852Y-141214446D01*
X101699075Y-141123083D01*
X101847209Y-141031667D01*
X102004152Y-140939748D01*
X102170803Y-140846875D01*
X102348058Y-140752597D01*
X102536816Y-140656464D01*
X102737976Y-140558025D01*
X102952435Y-140456829D01*
X103181091Y-140352426D01*
X103424842Y-140244364D01*
X103684587Y-140132194D01*
X103961223Y-140015464D01*
X104255649Y-139893723D01*
X104568762Y-139766522D01*
X104804614Y-139671966D01*
X104926230Y-139623458D01*
X105030724Y-139581720D01*
X105120620Y-139545648D01*
X105198442Y-139514134D01*
X105266713Y-139486073D01*
X105327959Y-139460358D01*
X105384702Y-139435884D01*
X105439468Y-139411543D01*
X105494779Y-139386231D01*
X105553161Y-139358840D01*
X105617137Y-139328265D01*
X105689231Y-139293399D01*
X105771967Y-139253136D01*
X105867869Y-139206370D01*
X105875666Y-139202568D01*
X105968696Y-139157534D01*
X106061648Y-139113148D01*
X106151523Y-139070796D01*
X106235325Y-139031869D01*
X106310058Y-138997755D01*
X106372724Y-138969843D01*
X106420327Y-138949521D01*
X106431291Y-138945085D01*
X106553240Y-138899512D01*
X106659057Y-138866196D01*
X106749784Y-138845024D01*
X106826468Y-138835883D01*
X106890150Y-138838663D01*
X106890150Y-138838663D01*
G37*
X106890150Y-138838663D02*
X106941876Y-138853250D01*
X106982689Y-138879532D01*
X106988589Y-138885127D01*
X107005945Y-138908424D01*
X107015923Y-138938166D01*
X107018569Y-138977319D01*
X107013928Y-139028845D01*
X107002046Y-139095710D01*
X106992548Y-139139627D01*
X106969059Y-139249245D01*
X106951203Y-139346683D01*
X106937770Y-139439791D01*
X106927549Y-139536416D01*
X106923236Y-139588875D01*
X106917694Y-139729767D01*
X106923872Y-139862177D01*
X106942658Y-139990239D01*
X106974937Y-140118088D01*
X107021598Y-140249857D01*
X107083529Y-140389680D01*
X107104140Y-140431662D01*
X107142542Y-140506163D01*
X107183902Y-140581754D01*
X107229468Y-140660396D01*
X107280487Y-140744049D01*
X107338207Y-140834673D01*
X107403878Y-140934227D01*
X107478746Y-141044671D01*
X107564059Y-141167965D01*
X107660344Y-141305045D01*
X107794072Y-141495958D01*
X107914957Y-141672062D01*
X108023832Y-141834701D01*
X108121531Y-141985221D01*
X108208887Y-142124966D01*
X108286734Y-142255283D01*
X108355904Y-142377515D01*
X108417233Y-142493008D01*
X108471552Y-142603107D01*
X108492200Y-142647458D01*
X108576025Y-142843151D01*
X108643601Y-143028974D01*
X108695616Y-143207752D01*
X108732757Y-143382311D01*
X108755711Y-143555475D01*
X108765167Y-143730072D01*
X108765504Y-143770816D01*
X108755512Y-143983128D01*
X108725548Y-144188440D01*
X108675629Y-144386709D01*
X108605774Y-144577893D01*
X108516000Y-144761951D01*
X108406326Y-144938840D01*
X108276769Y-145108519D01*
X108127346Y-145270945D01*
X108125755Y-145272530D01*
X107954741Y-145427881D01*
X107767008Y-145570323D01*
X107562548Y-145699860D01*
X107341352Y-145816495D01*
X107103413Y-145920229D01*
X106848724Y-146011066D01*
X106577277Y-146089008D01*
X106289065Y-146154058D01*
X105984079Y-146206219D01*
X105662313Y-146245493D01*
X105323758Y-146271884D01*
X105321513Y-146272013D01*
X105262387Y-146274638D01*
X105186920Y-146276824D01*
X105099207Y-146278552D01*
X105003341Y-146279803D01*
X104903418Y-146280559D01*
X104803530Y-146280800D01*
X104707773Y-146280508D01*
X104620240Y-146279665D01*
X104545027Y-146278251D01*
X104486226Y-146276247D01*
X104478666Y-146275874D01*
X104116369Y-146250134D01*
X103769998Y-146211536D01*
X103438508Y-146159870D01*
X103120855Y-146094929D01*
X102815995Y-146016505D01*
X102522884Y-145924389D01*
X102298500Y-145841625D01*
X102038802Y-145730533D01*
X101796734Y-145608694D01*
X101571352Y-145475511D01*
X101361711Y-145330387D01*
X101166866Y-145172725D01*
X101012476Y-145028708D01*
X100849978Y-144852999D01*
X100706705Y-144668445D01*
X100582697Y-144475144D01*
X100477994Y-144273192D01*
X100392636Y-144062687D01*
X100326664Y-143843726D01*
X100280116Y-143616405D01*
X100253033Y-143380822D01*
X100245379Y-143166041D01*
X100378168Y-143166041D01*
X100378975Y-143277288D01*
X100381679Y-143372340D01*
X100386817Y-143456125D01*
X100394925Y-143533573D01*
X100406540Y-143609610D01*
X100422196Y-143689166D01*
X100442430Y-143777169D01*
X100446432Y-143793602D01*
X100511166Y-144014264D01*
X100594828Y-144225578D01*
X100697278Y-144427385D01*
X100818374Y-144619521D01*
X100957975Y-144801827D01*
X101115941Y-144974139D01*
X101292130Y-145136298D01*
X101486402Y-145288141D01*
X101698614Y-145429507D01*
X101928626Y-145560234D01*
X102039208Y-145616185D01*
X102304722Y-145734987D01*
X102585247Y-145839680D01*
X102880945Y-145930303D01*
X103191977Y-146006896D01*
X103518503Y-146069499D01*
X103860684Y-146118149D01*
X104218682Y-146152888D01*
X104245833Y-146154908D01*
X104302393Y-146157929D01*
X104376398Y-146160186D01*
X104464824Y-146161713D01*
X104564650Y-146162542D01*
X104672852Y-146162707D01*
X104786407Y-146162242D01*
X104902293Y-146161180D01*
X105017487Y-146159554D01*
X105128966Y-146157399D01*
X105233707Y-146154747D01*
X105328688Y-146151632D01*
X105410886Y-146148088D01*
X105477278Y-146144147D01*
X105515833Y-146140852D01*
X105816778Y-146103335D01*
X106100001Y-146055467D01*
X106366414Y-145996938D01*
X106616927Y-145927438D01*
X106852452Y-145846656D01*
X107073901Y-145754280D01*
X107282186Y-145650001D01*
X107478219Y-145533508D01*
X107651426Y-145413118D01*
X107746635Y-145336145D01*
X107844686Y-145246329D01*
X107941877Y-145147747D01*
X108034503Y-145044474D01*
X108118863Y-144940588D01*
X108191252Y-144840163D01*
X108234360Y-144771468D01*
X108330977Y-144587865D01*
X108407115Y-144403894D01*
X108463382Y-144217333D01*
X108500385Y-144025960D01*
X108518731Y-143827553D01*
X108521099Y-143721666D01*
X108515943Y-143558970D01*
X108499838Y-143402775D01*
X108471790Y-143247157D01*
X108430802Y-143086192D01*
X108394898Y-142970250D01*
X108357468Y-142862396D01*
X108316336Y-142755664D01*
X108270595Y-142648453D01*
X108219341Y-142539161D01*
X108161667Y-142426187D01*
X108096669Y-142307930D01*
X108023441Y-142182788D01*
X107941078Y-142049162D01*
X107848674Y-141905448D01*
X107745324Y-141750047D01*
X107630122Y-141581357D01*
X107520531Y-141423938D01*
X107428923Y-141292858D01*
X107348699Y-141176981D01*
X107278684Y-141074472D01*
X107217704Y-140983495D01*
X107164584Y-140902217D01*
X107118147Y-140828800D01*
X107077221Y-140761412D01*
X107040628Y-140698216D01*
X107007195Y-140637377D01*
X106975746Y-140577060D01*
X106966348Y-140558444D01*
X106915269Y-140450274D01*
X106874302Y-140348103D01*
X106843233Y-140249064D01*
X106821847Y-140150291D01*
X106809930Y-140048916D01*
X106807268Y-139942072D01*
X106813647Y-139826893D01*
X106828853Y-139700511D01*
X106852671Y-139560060D01*
X106881231Y-139419541D01*
X106896805Y-139330689D01*
X106901399Y-139257537D01*
X106894861Y-139197602D01*
X106877041Y-139148396D01*
X106863439Y-139126465D01*
X106826806Y-139087507D01*
X106779959Y-139054164D01*
X106773792Y-139050774D01*
X106748839Y-139038056D01*
X106727640Y-139029722D01*
X106705002Y-139025051D01*
X106675735Y-139023327D01*
X106634645Y-139023830D01*
X106590041Y-139025343D01*
X106541078Y-139028160D01*
X106492971Y-139033368D01*
X106444013Y-139041606D01*
X106392493Y-139053518D01*
X106336703Y-139069746D01*
X106274935Y-139090930D01*
X106205479Y-139117714D01*
X106126628Y-139150740D01*
X106036671Y-139190649D01*
X105933901Y-139238083D01*
X105816608Y-139293684D01*
X105683084Y-139358095D01*
X105611083Y-139393130D01*
X105510556Y-139441803D01*
X105417409Y-139486061D01*
X105328228Y-139527395D01*
X105239600Y-139567297D01*
X105148114Y-139607258D01*
X105050355Y-139648771D01*
X104942910Y-139693325D01*
X104822369Y-139742414D01*
X104690333Y-139795519D01*
X104425717Y-139901966D01*
X104179696Y-140001983D01*
X103950901Y-140096174D01*
X103737962Y-140185141D01*
X103539511Y-140269490D01*
X103354179Y-140349823D01*
X103180596Y-140426743D01*
X103017394Y-140500855D01*
X102863204Y-140572761D01*
X102716655Y-140643066D01*
X102576380Y-140712373D01*
X102441010Y-140781285D01*
X102368646Y-140818977D01*
X102130995Y-140947458D01*
X101912826Y-141073272D01*
X101712767Y-141197363D01*
X101529443Y-141320677D01*
X101361482Y-141444158D01*
X101207510Y-141568753D01*
X101066153Y-141695405D01*
X100996250Y-141763318D01*
X100856536Y-141911991D01*
X100736521Y-142059622D01*
X100634977Y-142208335D01*
X100550674Y-142360257D01*
X100482384Y-142517512D01*
X100428878Y-142682225D01*
X100402304Y-142790333D01*
X100394593Y-142827670D01*
X100388699Y-142862308D01*
X100384386Y-142897939D01*
X100381415Y-142938254D01*
X100379550Y-142986948D01*
X100378554Y-143047711D01*
X100378189Y-143124237D01*
X100378168Y-143166041D01*
X100245379Y-143166041D01*
X100245333Y-143164763D01*
X100252150Y-142986182D01*
X100273255Y-142818505D01*
X100309627Y-142658872D01*
X100362245Y-142504420D01*
X100432089Y-142352289D01*
X100520139Y-142199618D01*
X100627374Y-142043546D01*
X100630799Y-142038916D01*
X100674584Y-141984036D01*
X100731508Y-141919089D01*
X100798286Y-141847362D01*
X100871633Y-141772140D01*
X100948264Y-141696712D01*
X101024895Y-141624362D01*
X101098241Y-141558379D01*
X101165018Y-141502047D01*
X101176666Y-141492728D01*
X101298545Y-141398818D01*
X101425641Y-141306207D01*
X101558852Y-141214446D01*
X101699075Y-141123083D01*
X101847209Y-141031667D01*
X102004152Y-140939748D01*
X102170803Y-140846875D01*
X102348058Y-140752597D01*
X102536816Y-140656464D01*
X102737976Y-140558025D01*
X102952435Y-140456829D01*
X103181091Y-140352426D01*
X103424842Y-140244364D01*
X103684587Y-140132194D01*
X103961223Y-140015464D01*
X104255649Y-139893723D01*
X104568762Y-139766522D01*
X104804614Y-139671966D01*
X104926230Y-139623458D01*
X105030724Y-139581720D01*
X105120620Y-139545648D01*
X105198442Y-139514134D01*
X105266713Y-139486073D01*
X105327959Y-139460358D01*
X105384702Y-139435884D01*
X105439468Y-139411543D01*
X105494779Y-139386231D01*
X105553161Y-139358840D01*
X105617137Y-139328265D01*
X105689231Y-139293399D01*
X105771967Y-139253136D01*
X105867869Y-139206370D01*
X105875666Y-139202568D01*
X105968696Y-139157534D01*
X106061648Y-139113148D01*
X106151523Y-139070796D01*
X106235325Y-139031869D01*
X106310058Y-138997755D01*
X106372724Y-138969843D01*
X106420327Y-138949521D01*
X106431291Y-138945085D01*
X106553240Y-138899512D01*
X106659057Y-138866196D01*
X106749784Y-138845024D01*
X106826468Y-138835883D01*
X106890150Y-138838663D01*
G36*
X101797441Y-143259669D02*
X101833084Y-143277026D01*
X101838606Y-143281977D01*
X101856360Y-143304743D01*
X101863811Y-143329766D01*
X101860330Y-143360221D01*
X101845290Y-143399283D01*
X101818062Y-143450129D01*
X101799064Y-143481976D01*
X101744755Y-143575995D01*
X101704109Y-143657427D01*
X101677290Y-143725733D01*
X101664460Y-143780377D01*
X101665783Y-143820822D01*
X101681421Y-143846528D01*
X101687312Y-143850440D01*
X101715695Y-143858403D01*
X101762262Y-143862051D01*
X101824495Y-143861472D01*
X101899874Y-143856759D01*
X101985880Y-143848001D01*
X102070958Y-143836637D01*
X102173127Y-143823368D01*
X102266879Y-143815585D01*
X102363993Y-143812440D01*
X102409625Y-143812302D01*
X102476302Y-143812893D01*
X102527012Y-143814440D01*
X102566952Y-143817523D01*
X102601317Y-143822721D01*
X102635306Y-143830614D01*
X102674113Y-143841782D01*
X102674208Y-143841810D01*
X102773673Y-143876521D01*
X102868607Y-143919750D01*
X102962130Y-143973463D01*
X103057363Y-144039629D01*
X103157427Y-144120212D01*
X103256291Y-144208640D01*
X103348325Y-144292475D01*
X103429050Y-144361498D01*
X103500955Y-144416950D01*
X103566527Y-144460071D01*
X103628254Y-144492102D01*
X103688623Y-144514283D01*
X103750123Y-144527856D01*
X103815240Y-144534060D01*
X103886462Y-144534138D01*
X103907166Y-144533264D01*
X104026405Y-144520680D01*
X104136150Y-144495805D01*
X104234375Y-144459570D01*
X104319057Y-144412906D01*
X104388170Y-144356746D01*
X104439689Y-144292019D01*
X104442747Y-144286914D01*
X104465245Y-144229033D01*
X104467117Y-144168091D01*
X104448559Y-144104849D01*
X104409762Y-144040069D01*
X104367542Y-143990977D01*
X104341429Y-143961307D01*
X104321668Y-143933691D01*
X104313534Y-143916882D01*
X104313172Y-143876863D01*
X104329650Y-143841196D01*
X104358643Y-143814248D01*
X104395825Y-143800389D01*
X104427796Y-143801491D01*
X104460619Y-143816853D01*
X104498591Y-143847574D01*
X104538099Y-143889745D01*
X104575530Y-143939456D01*
X104607271Y-143992797D01*
X104610517Y-143999238D01*
X104646239Y-144090272D01*
X104661392Y-144177562D01*
X104655859Y-144261736D01*
X104629521Y-144343422D01*
X104582260Y-144423248D01*
X104516035Y-144499773D01*
X104426218Y-144574692D01*
X104322123Y-144634260D01*
X104203636Y-144678515D01*
X104070646Y-144707499D01*
X103923040Y-144721252D01*
X103896583Y-144722075D01*
X103839556Y-144722989D01*
X103788248Y-144723107D01*
X103747281Y-144722468D01*
X103721276Y-144721114D01*
X103716666Y-144720498D01*
X103668305Y-144708405D01*
X103610066Y-144689702D01*
X103550863Y-144667520D01*
X103499608Y-144644993D01*
X103494314Y-144642365D01*
X103445282Y-144614693D01*
X103390965Y-144578149D01*
X103329363Y-144531173D01*
X103258475Y-144472208D01*
X103176300Y-144399695D01*
X103137884Y-144364774D01*
X103055794Y-144290762D01*
X102985229Y-144230106D01*
X102923165Y-144180792D01*
X102866576Y-144140803D01*
X102812436Y-144108124D01*
X102757721Y-144080740D01*
X102699406Y-144056635D01*
X102647750Y-144038230D01*
X102574169Y-144017016D01*
X102500097Y-144003740D01*
X102421229Y-143998216D01*
X102333259Y-144000253D01*
X102231884Y-144009663D01*
X102172526Y-144017396D01*
X102042004Y-144034450D01*
X101930201Y-144046106D01*
X101835342Y-144052246D01*
X101755649Y-144052749D01*
X101689343Y-144047494D01*
X101634648Y-144036362D01*
X101589785Y-144019233D01*
X101552977Y-143995985D01*
X101529067Y-143973906D01*
X101495717Y-143923079D01*
X101477065Y-143859544D01*
X101473105Y-143785818D01*
X101483835Y-143704423D01*
X101509250Y-143617878D01*
X101529701Y-143568525D01*
X101549701Y-143528093D01*
X101575390Y-143480860D01*
X101604434Y-143430602D01*
X101634499Y-143381092D01*
X101663251Y-143336107D01*
X101688354Y-143299421D01*
X101707477Y-143274809D01*
X101716386Y-143266599D01*
X101755472Y-143255808D01*
X101797441Y-143259669D01*
X101797441Y-143259669D01*
G37*
X101797441Y-143259669D02*
X101833084Y-143277026D01*
X101838606Y-143281977D01*
X101856360Y-143304743D01*
X101863811Y-143329766D01*
X101860330Y-143360221D01*
X101845290Y-143399283D01*
X101818062Y-143450129D01*
X101799064Y-143481976D01*
X101744755Y-143575995D01*
X101704109Y-143657427D01*
X101677290Y-143725733D01*
X101664460Y-143780377D01*
X101665783Y-143820822D01*
X101681421Y-143846528D01*
X101687312Y-143850440D01*
X101715695Y-143858403D01*
X101762262Y-143862051D01*
X101824495Y-143861472D01*
X101899874Y-143856759D01*
X101985880Y-143848001D01*
X102070958Y-143836637D01*
X102173127Y-143823368D01*
X102266879Y-143815585D01*
X102363993Y-143812440D01*
X102409625Y-143812302D01*
X102476302Y-143812893D01*
X102527012Y-143814440D01*
X102566952Y-143817523D01*
X102601317Y-143822721D01*
X102635306Y-143830614D01*
X102674113Y-143841782D01*
X102674208Y-143841810D01*
X102773673Y-143876521D01*
X102868607Y-143919750D01*
X102962130Y-143973463D01*
X103057363Y-144039629D01*
X103157427Y-144120212D01*
X103256291Y-144208640D01*
X103348325Y-144292475D01*
X103429050Y-144361498D01*
X103500955Y-144416950D01*
X103566527Y-144460071D01*
X103628254Y-144492102D01*
X103688623Y-144514283D01*
X103750123Y-144527856D01*
X103815240Y-144534060D01*
X103886462Y-144534138D01*
X103907166Y-144533264D01*
X104026405Y-144520680D01*
X104136150Y-144495805D01*
X104234375Y-144459570D01*
X104319057Y-144412906D01*
X104388170Y-144356746D01*
X104439689Y-144292019D01*
X104442747Y-144286914D01*
X104465245Y-144229033D01*
X104467117Y-144168091D01*
X104448559Y-144104849D01*
X104409762Y-144040069D01*
X104367542Y-143990977D01*
X104341429Y-143961307D01*
X104321668Y-143933691D01*
X104313534Y-143916882D01*
X104313172Y-143876863D01*
X104329650Y-143841196D01*
X104358643Y-143814248D01*
X104395825Y-143800389D01*
X104427796Y-143801491D01*
X104460619Y-143816853D01*
X104498591Y-143847574D01*
X104538099Y-143889745D01*
X104575530Y-143939456D01*
X104607271Y-143992797D01*
X104610517Y-143999238D01*
X104646239Y-144090272D01*
X104661392Y-144177562D01*
X104655859Y-144261736D01*
X104629521Y-144343422D01*
X104582260Y-144423248D01*
X104516035Y-144499773D01*
X104426218Y-144574692D01*
X104322123Y-144634260D01*
X104203636Y-144678515D01*
X104070646Y-144707499D01*
X103923040Y-144721252D01*
X103896583Y-144722075D01*
X103839556Y-144722989D01*
X103788248Y-144723107D01*
X103747281Y-144722468D01*
X103721276Y-144721114D01*
X103716666Y-144720498D01*
X103668305Y-144708405D01*
X103610066Y-144689702D01*
X103550863Y-144667520D01*
X103499608Y-144644993D01*
X103494314Y-144642365D01*
X103445282Y-144614693D01*
X103390965Y-144578149D01*
X103329363Y-144531173D01*
X103258475Y-144472208D01*
X103176300Y-144399695D01*
X103137884Y-144364774D01*
X103055794Y-144290762D01*
X102985229Y-144230106D01*
X102923165Y-144180792D01*
X102866576Y-144140803D01*
X102812436Y-144108124D01*
X102757721Y-144080740D01*
X102699406Y-144056635D01*
X102647750Y-144038230D01*
X102574169Y-144017016D01*
X102500097Y-144003740D01*
X102421229Y-143998216D01*
X102333259Y-144000253D01*
X102231884Y-144009663D01*
X102172526Y-144017396D01*
X102042004Y-144034450D01*
X101930201Y-144046106D01*
X101835342Y-144052246D01*
X101755649Y-144052749D01*
X101689343Y-144047494D01*
X101634648Y-144036362D01*
X101589785Y-144019233D01*
X101552977Y-143995985D01*
X101529067Y-143973906D01*
X101495717Y-143923079D01*
X101477065Y-143859544D01*
X101473105Y-143785818D01*
X101483835Y-143704423D01*
X101509250Y-143617878D01*
X101529701Y-143568525D01*
X101549701Y-143528093D01*
X101575390Y-143480860D01*
X101604434Y-143430602D01*
X101634499Y-143381092D01*
X101663251Y-143336107D01*
X101688354Y-143299421D01*
X101707477Y-143274809D01*
X101716386Y-143266599D01*
X101755472Y-143255808D01*
X101797441Y-143259669D01*
G36*
X105593524Y-142084064D02*
X105685894Y-142106490D01*
X105770193Y-142146147D01*
X105850131Y-142204570D01*
X105892468Y-142244138D01*
X105958912Y-142321835D01*
X106010876Y-142408363D01*
X106050583Y-142507827D01*
X106067473Y-142567415D01*
X106076635Y-142607233D01*
X106082607Y-142643538D01*
X106085796Y-142682043D01*
X106086606Y-142728463D01*
X106085444Y-142788511D01*
X106084745Y-142810832D01*
X106078285Y-142912224D01*
X106065138Y-142999786D01*
X106043693Y-143080237D01*
X106012339Y-143160295D01*
X105989391Y-143208375D01*
X105923327Y-143321016D01*
X105846171Y-143420078D01*
X105759665Y-143504577D01*
X105665556Y-143573530D01*
X105565586Y-143625952D01*
X105461499Y-143660861D01*
X105355040Y-143677272D01*
X105247953Y-143674203D01*
X105183992Y-143662569D01*
X105091160Y-143630122D01*
X105003043Y-143580336D01*
X104926061Y-143516971D01*
X104913987Y-143504525D01*
X104856285Y-143435700D01*
X104810685Y-143363722D01*
X104772826Y-143281215D01*
X104757653Y-143240125D01*
X104746402Y-143206386D01*
X104738421Y-143177038D01*
X104733143Y-143147249D01*
X104729998Y-143112185D01*
X104728418Y-143067014D01*
X104727834Y-143006904D01*
X104727770Y-142986125D01*
X104728211Y-142912943D01*
X104730173Y-142856183D01*
X104734034Y-142811131D01*
X104740173Y-142773071D01*
X104747218Y-142743602D01*
X104793239Y-142609417D01*
X104855350Y-142484849D01*
X104931914Y-142372716D01*
X105016206Y-142280595D01*
X105112716Y-142200629D01*
X105211587Y-142141131D01*
X105314412Y-142101419D01*
X105422781Y-142080808D01*
X105489375Y-142077334D01*
X105593524Y-142084064D01*
X105593524Y-142084064D01*
G37*
X105593524Y-142084064D02*
X105685894Y-142106490D01*
X105770193Y-142146147D01*
X105850131Y-142204570D01*
X105892468Y-142244138D01*
X105958912Y-142321835D01*
X106010876Y-142408363D01*
X106050583Y-142507827D01*
X106067473Y-142567415D01*
X106076635Y-142607233D01*
X106082607Y-142643538D01*
X106085796Y-142682043D01*
X106086606Y-142728463D01*
X106085444Y-142788511D01*
X106084745Y-142810832D01*
X106078285Y-142912224D01*
X106065138Y-142999786D01*
X106043693Y-143080237D01*
X106012339Y-143160295D01*
X105989391Y-143208375D01*
X105923327Y-143321016D01*
X105846171Y-143420078D01*
X105759665Y-143504577D01*
X105665556Y-143573530D01*
X105565586Y-143625952D01*
X105461499Y-143660861D01*
X105355040Y-143677272D01*
X105247953Y-143674203D01*
X105183992Y-143662569D01*
X105091160Y-143630122D01*
X105003043Y-143580336D01*
X104926061Y-143516971D01*
X104913987Y-143504525D01*
X104856285Y-143435700D01*
X104810685Y-143363722D01*
X104772826Y-143281215D01*
X104757653Y-143240125D01*
X104746402Y-143206386D01*
X104738421Y-143177038D01*
X104733143Y-143147249D01*
X104729998Y-143112185D01*
X104728418Y-143067014D01*
X104727834Y-143006904D01*
X104727770Y-142986125D01*
X104728211Y-142912943D01*
X104730173Y-142856183D01*
X104734034Y-142811131D01*
X104740173Y-142773071D01*
X104747218Y-142743602D01*
X104793239Y-142609417D01*
X104855350Y-142484849D01*
X104931914Y-142372716D01*
X105016206Y-142280595D01*
X105112716Y-142200629D01*
X105211587Y-142141131D01*
X105314412Y-142101419D01*
X105422781Y-142080808D01*
X105489375Y-142077334D01*
X105593524Y-142084064D01*
G36*
X102001135Y-141388781D02*
X102102140Y-141412030D01*
X102197169Y-141455249D01*
X102284930Y-141518082D01*
X102319931Y-141550861D01*
X102391791Y-141636402D01*
X102446381Y-141731022D01*
X102484257Y-141836204D01*
X102505972Y-141953428D01*
X102512144Y-142065375D01*
X102508126Y-142172933D01*
X102493977Y-142269765D01*
X102467972Y-142363176D01*
X102428387Y-142460472D01*
X102409770Y-142499291D01*
X102342401Y-142614940D01*
X102262796Y-142716176D01*
X102172500Y-142801588D01*
X102073060Y-142869766D01*
X101966021Y-142919298D01*
X101940094Y-142928029D01*
X101866402Y-142945101D01*
X101785438Y-142953890D01*
X101705883Y-142953922D01*
X101636413Y-142944722D01*
X101636098Y-142944650D01*
X101537622Y-142911749D01*
X101448481Y-142861186D01*
X101369745Y-142794788D01*
X101302484Y-142714379D01*
X101247768Y-142621785D01*
X101206669Y-142518831D01*
X101180255Y-142407342D01*
X101169597Y-142289143D01*
X101175765Y-142166061D01*
X101176432Y-142160625D01*
X101202316Y-142027421D01*
X101244725Y-141901953D01*
X101302265Y-141785951D01*
X101373539Y-141681148D01*
X101457152Y-141589276D01*
X101551708Y-141512067D01*
X101655812Y-141451254D01*
X101768068Y-141408568D01*
X101786367Y-141403620D01*
X101895446Y-141385859D01*
X102001135Y-141388781D01*
X102001135Y-141388781D01*
G37*
X102001135Y-141388781D02*
X102102140Y-141412030D01*
X102197169Y-141455249D01*
X102284930Y-141518082D01*
X102319931Y-141550861D01*
X102391791Y-141636402D01*
X102446381Y-141731022D01*
X102484257Y-141836204D01*
X102505972Y-141953428D01*
X102512144Y-142065375D01*
X102508126Y-142172933D01*
X102493977Y-142269765D01*
X102467972Y-142363176D01*
X102428387Y-142460472D01*
X102409770Y-142499291D01*
X102342401Y-142614940D01*
X102262796Y-142716176D01*
X102172500Y-142801588D01*
X102073060Y-142869766D01*
X101966021Y-142919298D01*
X101940094Y-142928029D01*
X101866402Y-142945101D01*
X101785438Y-142953890D01*
X101705883Y-142953922D01*
X101636413Y-142944722D01*
X101636098Y-142944650D01*
X101537622Y-142911749D01*
X101448481Y-142861186D01*
X101369745Y-142794788D01*
X101302484Y-142714379D01*
X101247768Y-142621785D01*
X101206669Y-142518831D01*
X101180255Y-142407342D01*
X101169597Y-142289143D01*
X101175765Y-142166061D01*
X101176432Y-142160625D01*
X101202316Y-142027421D01*
X101244725Y-141901953D01*
X101302265Y-141785951D01*
X101373539Y-141681148D01*
X101457152Y-141589276D01*
X101551708Y-141512067D01*
X101655812Y-141451254D01*
X101768068Y-141408568D01*
X101786367Y-141403620D01*
X101895446Y-141385859D01*
X102001135Y-141388781D01*
D14*
G04 #@! TO.C,D1*
X104275000Y-55562500D02*
X105275000Y-54962500D01*
X105275000Y-54962500D02*
X105275000Y-56162500D01*
X105275000Y-56162500D02*
X104275000Y-55562500D01*
X104275000Y-54962500D02*
X104275000Y-56162500D01*
G04 #@! TO.C,D2*
X125912968Y-56162500D02*
X125912968Y-54962500D01*
X124912968Y-54962500D02*
X125912968Y-55562500D01*
X124912968Y-56162500D02*
X124912968Y-54962500D01*
X125912968Y-55562500D02*
X124912968Y-56162500D01*
G04 #@! TO.C,D3*
X54962968Y-68761578D02*
X56162968Y-68761578D01*
X56162968Y-67761578D02*
X55562968Y-68761578D01*
X54962968Y-67761578D02*
X56162968Y-67761578D01*
X55562968Y-68761578D02*
X54962968Y-67761578D01*
G04 #@! TO.C,D4*
X58737968Y-68761578D02*
X58137968Y-67761578D01*
X58137968Y-67761578D02*
X59337968Y-67761578D01*
X59337968Y-67761578D02*
X58737968Y-68761578D01*
X58137968Y-68761578D02*
X59337968Y-68761578D01*
G04 #@! TO.C,D5*
X77187968Y-68761578D02*
X78387968Y-68761578D01*
X78387968Y-67761578D02*
X77787968Y-68761578D01*
X77187968Y-67761578D02*
X78387968Y-67761578D01*
X77787968Y-68761578D02*
X77187968Y-67761578D01*
G04 #@! TO.C,D6*
X96837968Y-68761578D02*
X96237968Y-67761578D01*
X96237968Y-67761578D02*
X97437968Y-67761578D01*
X97437968Y-67761578D02*
X96837968Y-68761578D01*
X96237968Y-68761578D02*
X97437968Y-68761578D01*
G04 #@! TO.C,D7*
X125912968Y-76005328D02*
X125912968Y-74805328D01*
X124912968Y-74805328D02*
X125912968Y-75405328D01*
X124912968Y-76005328D02*
X124912968Y-74805328D01*
X125912968Y-75405328D02*
X124912968Y-76005328D01*
G04 #@! TO.C,D8*
X55562968Y-97336578D02*
X54962968Y-96336578D01*
X54962968Y-96336578D02*
X56162968Y-96336578D01*
X56162968Y-96336578D02*
X55562968Y-97336578D01*
X54962968Y-97336578D02*
X56162968Y-97336578D01*
G04 #@! TO.C,D9*
X58325468Y-97336578D02*
X59525468Y-97336578D01*
X59525468Y-96336578D02*
X58925468Y-97336578D01*
X58325468Y-96336578D02*
X59525468Y-96336578D01*
X58925468Y-97336578D02*
X58325468Y-96336578D01*
G04 #@! TO.C,D10*
X77787968Y-97336578D02*
X77187968Y-96336578D01*
X77187968Y-96336578D02*
X78387968Y-96336578D01*
X78387968Y-96336578D02*
X77787968Y-97336578D01*
X77187968Y-97336578D02*
X78387968Y-97336578D01*
G04 #@! TO.C,D11*
X96237968Y-97336578D02*
X97437968Y-97336578D01*
X97437968Y-96336578D02*
X96837968Y-97336578D01*
X96237968Y-96336578D02*
X97437968Y-96336578D01*
X96837968Y-97336578D02*
X96237968Y-96336578D01*
G04 #@! TO.C,D12*
X125912968Y-104774078D02*
X124912968Y-105374078D01*
X124912968Y-105374078D02*
X124912968Y-104174078D01*
X124912968Y-104174078D02*
X125912968Y-104774078D01*
X125912968Y-105374078D02*
X125912968Y-104174078D01*
G04 #@! TO.C,D13*
X55562968Y-116386578D02*
X54962968Y-115386578D01*
X54962968Y-115386578D02*
X56162968Y-115386578D01*
X56162968Y-115386578D02*
X55562968Y-116386578D01*
X54962968Y-116386578D02*
X56162968Y-116386578D01*
G04 #@! TO.C,D14*
X58737968Y-116386578D02*
X58137968Y-115386578D01*
X58137968Y-115386578D02*
X59337968Y-115386578D01*
X59337968Y-115386578D02*
X58737968Y-116386578D01*
X58137968Y-116386578D02*
X59337968Y-116386578D01*
G04 #@! TO.C,D15*
X77187968Y-116386578D02*
X78387968Y-116386578D01*
X78387968Y-115386578D02*
X77787968Y-116386578D01*
X77187968Y-115386578D02*
X78387968Y-115386578D01*
X77787968Y-116386578D02*
X77187968Y-115386578D01*
G04 #@! TO.C,D16*
X93662968Y-117767828D02*
X94262968Y-118767828D01*
X94262968Y-118767828D02*
X93062968Y-118767828D01*
X93062968Y-118767828D02*
X93662968Y-117767828D01*
X94262968Y-117767828D02*
X93062968Y-117767828D01*
G04 #@! TO.C,D17*
X125912968Y-124424078D02*
X125912968Y-123224078D01*
X124912968Y-123224078D02*
X125912968Y-123824078D01*
X124912968Y-124424078D02*
X124912968Y-123224078D01*
X125912968Y-123824078D02*
X124912968Y-124424078D01*
G04 #@! TO.C,D18*
X54962968Y-135436578D02*
X56162968Y-135436578D01*
X56162968Y-134436578D02*
X55562968Y-135436578D01*
X54962968Y-134436578D02*
X56162968Y-134436578D01*
X55562968Y-135436578D02*
X54962968Y-134436578D01*
G04 #@! TO.C,D19*
X58737968Y-135436578D02*
X58137968Y-134436578D01*
X58137968Y-134436578D02*
X59337968Y-134436578D01*
X59337968Y-134436578D02*
X58737968Y-135436578D01*
X58137968Y-135436578D02*
X59337968Y-135436578D01*
G04 #@! TO.C,D20*
X77187968Y-135436578D02*
X78387968Y-135436578D01*
X78387968Y-134436578D02*
X77787968Y-135436578D01*
X77187968Y-134436578D02*
X78387968Y-134436578D01*
X77787968Y-135436578D02*
X77187968Y-134436578D01*
G04 #@! TO.C,D21*
X125912968Y-142874078D02*
X124912968Y-143474078D01*
X124912968Y-143474078D02*
X124912968Y-142274078D01*
X124912968Y-142274078D02*
X125912968Y-142874078D01*
X125912968Y-143474078D02*
X125912968Y-142274078D01*
G04 #@! TO.C,D22*
X54962968Y-154486578D02*
X56162968Y-154486578D01*
X56162968Y-153486578D02*
X55562968Y-154486578D01*
X54962968Y-153486578D02*
X56162968Y-153486578D01*
X55562968Y-154486578D02*
X54962968Y-153486578D01*
G04 #@! TO.C,D23*
X58737968Y-154486578D02*
X58137968Y-153486578D01*
X58137968Y-153486578D02*
X59337968Y-153486578D01*
X59337968Y-153486578D02*
X58737968Y-154486578D01*
X58137968Y-154486578D02*
X59337968Y-154486578D01*
G04 #@! TO.C,D24*
X77187968Y-154486578D02*
X78387968Y-154486578D01*
X78387968Y-153486578D02*
X77787968Y-154486578D01*
X77187968Y-153486578D02*
X78387968Y-153486578D01*
X77787968Y-154486578D02*
X77187968Y-153486578D01*
G04 #@! TO.C,D25*
X93662968Y-155867828D02*
X94262968Y-156867828D01*
X94262968Y-156867828D02*
X93062968Y-156867828D01*
X93062968Y-156867828D02*
X93662968Y-155867828D01*
X94262968Y-155867828D02*
X93062968Y-155867828D01*
G04 #@! TO.C,D26*
X125912968Y-160936578D02*
X125912968Y-159736578D01*
X124912968Y-159736578D02*
X125912968Y-160336578D01*
X124912968Y-160936578D02*
X124912968Y-159736578D01*
X125912968Y-160336578D02*
X124912968Y-160936578D01*
G04 #@! TO.C,D27*
X75406718Y-173536578D02*
X74806718Y-172536578D01*
X74806718Y-172536578D02*
X76006718Y-172536578D01*
X76006718Y-172536578D02*
X75406718Y-173536578D01*
X74806718Y-173536578D02*
X76006718Y-173536578D01*
G04 #@! TO.C,D28*
X77187968Y-173536578D02*
X78387968Y-173536578D01*
X78387968Y-172536578D02*
X77787968Y-173536578D01*
X77187968Y-172536578D02*
X78387968Y-172536578D01*
X77787968Y-173536578D02*
X77187968Y-172536578D01*
G04 #@! TO.C,D29*
X125912968Y-163511578D02*
X124912968Y-164111578D01*
X124912968Y-164111578D02*
X124912968Y-162911578D01*
X124912968Y-162911578D02*
X125912968Y-163511578D01*
X125912968Y-164111578D02*
X125912968Y-162911578D01*
G04 #@! TO.C,JP1*
X108818000Y-58594000D02*
X106532000Y-58594000D01*
X106532000Y-58594000D02*
X106532000Y-56816000D01*
X106532000Y-56816000D02*
X108818000Y-56816000D01*
X108818000Y-56816000D02*
X108818000Y-58594000D01*
G04 #@! TO.C,JP2*
X108512000Y-105994000D02*
X108512000Y-104216000D01*
X110798000Y-105994000D02*
X108512000Y-105994000D01*
X110798000Y-104216000D02*
X110798000Y-105994000D01*
X108512000Y-104216000D02*
X110798000Y-104216000D01*
G04 #@! TO.C,JP3*
X96954000Y-154472000D02*
X96954000Y-156758000D01*
X96954000Y-156758000D02*
X95176000Y-156758000D01*
X95176000Y-156758000D02*
X95176000Y-154472000D01*
X95176000Y-154472000D02*
X96954000Y-154472000D01*
G04 #@! TO.C,JP4*
X71082000Y-43446000D02*
X73368000Y-43446000D01*
X73368000Y-43446000D02*
X73368000Y-45224000D01*
X73368000Y-45224000D02*
X71082000Y-45224000D01*
X71082000Y-45224000D02*
X71082000Y-43446000D01*
G04 #@! TO.C,JP5*
X71082000Y-47764000D02*
X71082000Y-45986000D01*
X73368000Y-47764000D02*
X71082000Y-47764000D01*
X73368000Y-45986000D02*
X73368000Y-47764000D01*
X71082000Y-45986000D02*
X73368000Y-45986000D01*
G04 #@! TO.C,JP6*
X71082000Y-50304000D02*
X71082000Y-48526000D01*
X73368000Y-50304000D02*
X71082000Y-50304000D01*
X73368000Y-48526000D02*
X73368000Y-50304000D01*
X71082000Y-48526000D02*
X73368000Y-48526000D01*
G04 #@! TO.C,JP7*
X71082000Y-51066000D02*
X73368000Y-51066000D01*
X73368000Y-51066000D02*
X73368000Y-52844000D01*
X73368000Y-52844000D02*
X71082000Y-52844000D01*
X71082000Y-52844000D02*
X71082000Y-51066000D01*
G04 #@! TO.C,MCU1*
X41116718Y-41274078D02*
X41116718Y-38734078D01*
X71596718Y-41274078D02*
X41116718Y-41274078D01*
X71596718Y-53974078D02*
X71596718Y-56514078D01*
X71596718Y-56514078D02*
X41116718Y-56514078D01*
X41116718Y-53974078D02*
X71596718Y-53974078D01*
X41116718Y-56514078D02*
X41116718Y-53974078D01*
X71596718Y-38734078D02*
X71596718Y-41274078D01*
X41116718Y-38734078D02*
X71596718Y-38734078D01*
G04 #@! TO.C,P1*
X74140000Y-43065000D02*
X76680000Y-43065000D01*
G04 #@! TO.C,U1*
X102775000Y-40773740D02*
G75*
G03X102775000Y-40773740I-250000J0D01*
G01*
G04 #@! TO.C,U2*
X121825000Y-40773740D02*
G75*
G03X121825000Y-40773740I-250000J0D01*
G01*
G04 #@! TO.C,U3*
X50125000Y-63523740D02*
G75*
G03X50125000Y-63523740I-250000J0D01*
G01*
G04 #@! TO.C,U4*
X69175000Y-63523740D02*
G75*
G03X69175000Y-63523740I-250000J0D01*
G01*
G04 #@! TO.C,U5*
X88225000Y-63523740D02*
G75*
G03X88225000Y-63523740I-250000J0D01*
G01*
G04 #@! TO.C,U6*
X107275000Y-63523740D02*
G75*
G03X107275000Y-63523740I-250000J0D01*
G01*
G04 #@! TO.C,U7*
X126325000Y-63523740D02*
G75*
G03X126325000Y-63523740I-250000J0D01*
G01*
G04 #@! TO.C,U8*
X45625000Y-88398740D02*
G75*
G03X45625000Y-88398740I-250000J0D01*
G01*
G04 #@! TO.C,U9*
X64675000Y-88398740D02*
G75*
G03X64675000Y-88398740I-250000J0D01*
G01*
G04 #@! TO.C,U10*
X83725000Y-88398740D02*
G75*
G03X83725000Y-88398740I-250000J0D01*
G01*
G04 #@! TO.C,U11*
X102775000Y-88398740D02*
G75*
G03X102775000Y-88398740I-250000J0D01*
G01*
G04 #@! TO.C,U12*
X121825000Y-88398740D02*
G75*
G03X121825000Y-88398740I-250000J0D01*
G01*
G04 #@! TO.C,U13*
X50125000Y-111148740D02*
G75*
G03X50125000Y-111148740I-250000J0D01*
G01*
G04 #@! TO.C,U14*
X69175000Y-111148740D02*
G75*
G03X69175000Y-111148740I-250000J0D01*
G01*
G04 #@! TO.C,U15*
X88225000Y-111148740D02*
G75*
G03X88225000Y-111148740I-250000J0D01*
G01*
G04 #@! TO.C,U16*
X107275000Y-120673740D02*
G75*
G03X107275000Y-120673740I-250000J0D01*
G01*
G04 #@! TO.C,U17*
X126325000Y-111148740D02*
G75*
G03X126325000Y-111148740I-250000J0D01*
G01*
G04 #@! TO.C,U18*
X45625000Y-126498740D02*
G75*
G03X45625000Y-126498740I-250000J0D01*
G01*
G04 #@! TO.C,U19*
X64675000Y-126498740D02*
G75*
G03X64675000Y-126498740I-250000J0D01*
G01*
G04 #@! TO.C,U20*
X83725000Y-126498740D02*
G75*
G03X83725000Y-126498740I-250000J0D01*
G01*
G04 #@! TO.C,U21*
X121825000Y-126498740D02*
G75*
G03X121825000Y-126498740I-250000J0D01*
G01*
G04 #@! TO.C,U22*
X50125000Y-149248740D02*
G75*
G03X50125000Y-149248740I-250000J0D01*
G01*
G04 #@! TO.C,U23*
X69175000Y-149248740D02*
G75*
G03X69175000Y-149248740I-250000J0D01*
G01*
G04 #@! TO.C,U24*
X88225000Y-149248740D02*
G75*
G03X88225000Y-149248740I-250000J0D01*
G01*
G04 #@! TO.C,U25*
X107275000Y-158773740D02*
G75*
G03X107275000Y-158773740I-250000J0D01*
G01*
G04 #@! TO.C,U26*
X126325000Y-149248740D02*
G75*
G03X126325000Y-149248740I-250000J0D01*
G01*
G04 #@! TO.C,U27*
X55150000Y-164598740D02*
G75*
G03X55150000Y-164598740I-250000J0D01*
G01*
G04 #@! TO.C,U28*
X83725000Y-164598740D02*
G75*
G03X83725000Y-164598740I-250000J0D01*
G01*
G04 #@! TO.C,U29*
X121825000Y-164598740D02*
G75*
G03X121825000Y-164598740I-250000J0D01*
G01*
G04 #@! TO.C,P3*
X92835152Y-43472695D02*
X92835152Y-42659895D01*
X93686657Y-43395285D02*
X93647952Y-43433990D01*
X93531838Y-43472695D01*
X93454428Y-43472695D01*
X93338314Y-43433990D01*
X93260904Y-43356580D01*
X93222200Y-43279171D01*
X93183495Y-43124352D01*
X93183495Y-43008238D01*
X93222200Y-42853419D01*
X93260904Y-42776009D01*
X93338314Y-42698600D01*
X93454428Y-42659895D01*
X93531838Y-42659895D01*
X93647952Y-42698600D01*
X93686657Y-42737304D01*
X93996295Y-43433990D02*
X94112409Y-43472695D01*
X94305933Y-43472695D01*
X94383342Y-43433990D01*
X94422047Y-43395285D01*
X94460752Y-43317876D01*
X94460752Y-43240466D01*
X94422047Y-43163057D01*
X94383342Y-43124352D01*
X94305933Y-43085647D01*
X94151114Y-43046942D01*
X94073704Y-43008238D01*
X94035000Y-42969533D01*
X93996295Y-42892123D01*
X93996295Y-42814714D01*
X94035000Y-42737304D01*
X94073704Y-42698600D01*
X94151114Y-42659895D01*
X94344638Y-42659895D01*
X94460752Y-42698600D01*
X94809095Y-43472695D02*
X94809095Y-42659895D01*
X95118733Y-42659895D01*
X95196142Y-42698600D01*
X95234847Y-42737304D01*
X95273552Y-42814714D01*
X95273552Y-42930828D01*
X95234847Y-43008238D01*
X95196142Y-43046942D01*
X95118733Y-43085647D01*
X94809095Y-43085647D01*
G04 #@! TO.C,R1*
X83208283Y-54341445D02*
X82937350Y-53954397D01*
X82743826Y-54341445D02*
X82743826Y-53528645D01*
X83053464Y-53528645D01*
X83130873Y-53567350D01*
X83169578Y-53606054D01*
X83208283Y-53683464D01*
X83208283Y-53799578D01*
X83169578Y-53876988D01*
X83130873Y-53915692D01*
X83053464Y-53954397D01*
X82743826Y-53954397D01*
X83982378Y-54341445D02*
X83517921Y-54341445D01*
X83750150Y-54341445D02*
X83750150Y-53528645D01*
X83672740Y-53644759D01*
X83595330Y-53722169D01*
X83517921Y-53760873D01*
G04 #@! TO.C,R2*
X83258283Y-56643945D02*
X82987350Y-56256897D01*
X82793826Y-56643945D02*
X82793826Y-55831145D01*
X83103464Y-55831145D01*
X83180873Y-55869850D01*
X83219578Y-55908554D01*
X83258283Y-55985964D01*
X83258283Y-56102078D01*
X83219578Y-56179488D01*
X83180873Y-56218192D01*
X83103464Y-56256897D01*
X82793826Y-56256897D01*
X83567921Y-55908554D02*
X83606626Y-55869850D01*
X83684035Y-55831145D01*
X83877559Y-55831145D01*
X83954969Y-55869850D01*
X83993673Y-55908554D01*
X84032378Y-55985964D01*
X84032378Y-56063373D01*
X83993673Y-56179488D01*
X83529216Y-56643945D01*
X84032378Y-56643945D01*
G04 #@! TO.C,SW30*
X91204695Y-48642323D02*
X90817647Y-48913257D01*
X91204695Y-49106780D02*
X90391895Y-49106780D01*
X90391895Y-48797142D01*
X90430600Y-48719733D01*
X90469304Y-48681028D01*
X90546714Y-48642323D01*
X90662828Y-48642323D01*
X90740238Y-48681028D01*
X90778942Y-48719733D01*
X90817647Y-48797142D01*
X90817647Y-49106780D01*
X91165990Y-47984342D02*
X91204695Y-48061752D01*
X91204695Y-48216571D01*
X91165990Y-48293980D01*
X91088580Y-48332685D01*
X90778942Y-48332685D01*
X90701533Y-48293980D01*
X90662828Y-48216571D01*
X90662828Y-48061752D01*
X90701533Y-47984342D01*
X90778942Y-47945638D01*
X90856352Y-47945638D01*
X90933761Y-48332685D01*
X91165990Y-47636000D02*
X91204695Y-47558590D01*
X91204695Y-47403771D01*
X91165990Y-47326361D01*
X91088580Y-47287657D01*
X91049876Y-47287657D01*
X90972466Y-47326361D01*
X90933761Y-47403771D01*
X90933761Y-47519885D01*
X90895057Y-47597295D01*
X90817647Y-47636000D01*
X90778942Y-47636000D01*
X90701533Y-47597295D01*
X90662828Y-47519885D01*
X90662828Y-47403771D01*
X90701533Y-47326361D01*
X91165990Y-46629676D02*
X91204695Y-46707085D01*
X91204695Y-46861904D01*
X91165990Y-46939314D01*
X91088580Y-46978019D01*
X90778942Y-46978019D01*
X90701533Y-46939314D01*
X90662828Y-46861904D01*
X90662828Y-46707085D01*
X90701533Y-46629676D01*
X90778942Y-46590971D01*
X90856352Y-46590971D01*
X90933761Y-46978019D01*
X90662828Y-46358742D02*
X90662828Y-46049104D01*
X90391895Y-46242628D02*
X91088580Y-46242628D01*
X91165990Y-46203923D01*
X91204695Y-46126514D01*
X91204695Y-46049104D01*
G04 #@! TD*
M02*
