M48
;DRILL file {KiCad (5.0.0)} date 09/18/18 23:33:17
;FORMAT={-:-/ absolute / inch / decimal}
FMAT,2
INCH,TZ
T1C0.0157
T2C0.0320
T3C0.0472
T4C0.0512
T5C0.0591
T6C0.1850
%
G90
G05
M72
T1
X1.5827Y-2.2648
X1.5846Y-4.94
X1.5866Y-3.4518
X1.5876Y-5.6594
X1.5886Y-4.2972
X1.6004Y-4.1722
X1.6181Y-1.7825
X1.6181Y-2.1093
X1.623Y-3.0177
X1.6703Y-5.0433
X1.6776Y-5.7961
X1.6781Y-3.5462
X1.6998Y-4.3022
X1.7057Y-4.9518
X1.7106Y-2.4291
X1.7195Y-3.1575
X1.7224Y-3.5522
X1.7235Y-4.4305
X1.7323Y-5.0502
X1.7411Y-5.94
X1.75Y-2.0728
X1.7717Y-3.4518
X1.7756Y-2.114
X1.876Y-2.9498
X1.9055Y-6.4508
X1.9057Y-1.8956
X1.9872Y-2.0728
X2.0159Y-5.805
X2.0205Y-2.4156
X2.0217Y-2.5315
X2.0318Y-4.3015
X2.0531Y-6.5462
X2.0584Y-2.415
X2.0654Y-2.0785
X2.0695Y-3.5468
X2.0718Y-4.2962
X2.0719Y-5.0462
X2.0728Y-5.796
X2.0855Y-3.483
X2.0901Y-2.1247
X2.0965Y-2.4183
X2.098Y-5.001
X2.0994Y-6.5522
X2.1022Y-1.7608
X2.122Y-2.4823
X2.1329Y-6.4518
X2.1486Y-2.3868
X2.1535Y-5.7559
X2.1703Y-4.2608
X2.1752Y-3.4124
X2.186Y-4.815
X2.1929Y-2.4656
X2.1998Y-2.127
X2.202Y-1.8915
X2.2116Y-2.4262
X2.249Y-6.3219
X2.2549Y-4.3406
X2.2795Y-2.3632
X2.2904Y-3.4144
X2.2963Y-2.124
X2.3051Y-2.4587
X2.373Y-5.7598
X2.3848Y-3.0167
X2.3957Y-2.125
X2.4124Y-4.252
X2.4203Y-2.3642
X2.427Y-4.296
X2.4272Y-3.546
X2.4278Y-5.046
X2.44Y-5.8002
X2.448Y-6.546
X2.4602Y-2.4175
X2.4695Y-3.5531
X2.4774Y-5.0512
X2.479Y-6.4965
X2.4959Y-2.1293
X2.5049Y-4.9518
X2.5138Y-3.4518
X2.5337Y-1.9567
X2.5846Y-6.3868
X2.5947Y-2.1317
X2.624Y-6.4833
X2.6437Y-2.1211
X2.6978Y-2.1339
X2.7433Y-1.7777
X2.7608Y-1.9449
X2.764Y-5.8031
X2.7724Y-2.4225
X2.7736Y-4.3022
X2.7832Y-1.875
X2.7923Y-5.0492
X2.7953Y-2.1319
X2.8104Y-2.4258
X2.8203Y-3.5466
X2.8228Y-4.296
X2.8232Y-5.7959
X2.8254Y-1.6955
X2.8543Y-5.7598
X2.8665Y-5.004
X2.8711Y-6.4262
X2.872Y-3.5025
X2.8967Y-2.3967
X2.936Y-3.1063
X2.9518Y-2.4262
X2.9518Y-6.5079
X2.9656Y-4.6949
X3.0226Y-1.8337
X3.0768Y-4.253
X3.1053Y-2.0728
X3.1289Y-1.8573
X3.1555Y-2.4085
X3.1752Y-1.9557
X3.177Y-4.296
X3.1772Y-6.546
X3.1776Y-5.0461
X3.1782Y-3.5462
X3.1866Y-2.3954
X3.189Y-5.8004
X3.1978Y-2.4272
X3.2116Y-2.0758
X3.2205Y-6.5522
X3.2215Y-3.5522
X3.2244Y-5.0512
X3.2313Y-1.7559
X3.2421Y-4.9518
X3.2553Y-2.251
X3.2638Y-3.4518
X3.2756Y-6.4518
X3.2885Y-2.2539
X3.3947Y-1.7254
X3.4429Y-2.2323
X3.514Y-5.8031
X3.5207Y-2.4183
X3.5266Y-4.3031
X3.5689Y-2.2569
X3.5689Y-2.4183
X3.5705Y-6.5465
X3.5712Y-3.5464
X3.5713Y-4.2963
X3.5722Y-5.7431
X3.5724Y-5.0461
X3.573Y-5.796
X3.575Y-1.8445
X3.6083Y-3.502
X3.621Y-6.4425
X3.622Y-2.3829
X3.6656Y-5.1864
X3.7343Y-1.8415
X3.7402Y-3.8435
X3.7687Y-2.2323
X3.8012Y-1.6142
X3.8583Y-2.7126
X3.877Y-1.6378
X3.9222Y-5.9813
X3.9287Y-1.6713
X3.9287Y-3.5463
X3.9291Y-6.1714
X3.936Y-2.4183
X3.9528Y-4.6801
X3.966Y-3.5488
X3.9694Y-1.6772
X4.0108Y-3.4518
X4.0551Y-4.3947
X4.2705Y-4.6752
X4.2707Y-6.1781
X4.2707Y-2.4183
X4.2726Y-3.553
X4.2963Y-1.6772
X4.3077Y-4.6776
X4.3169Y-2.2913
X4.3224Y-6.1711
X4.323Y-3.546
X4.3247Y-2.4207
X4.3652Y-2.6995
X4.3663Y-2.2014
X4.3898Y-1.6329
X4.4114Y-6.6575
X4.4232Y-5.0984
X4.4355Y-3.4985
X4.6063Y-6.4941
X4.6122Y-2.4252
X4.6447Y-1.6516
X4.6703Y-5.7874
X4.6775Y-5.0461
X4.6778Y-3.5461
X4.6779Y-6.5462
X4.6969Y-4.2992
X4.7057Y-1.7421
X4.7136Y-1.6496
X4.7146Y-2.435
X4.7234Y-3.5512
X4.7313Y-5.0531
X4.7333Y-4.9341
X4.736Y-6.5531
X4.7608Y-3.4518
X4.9606Y-5.685
X4.9915Y-1.8226
X5.0207Y-5.8031
X5.0303Y-2.427
X5.0327Y-4.3004
X5.0646Y-1.6736
X5.0665Y-5.0478
X5.0717Y-4.2962
X5.0721Y-5.7962
X5.0722Y-6.5461
X5.0733Y-3.5459
X5.0826Y-2.4094
X5.1063Y-2.9035
X5.1083Y-4.065
X5.1102Y-4.81
X5.1142Y-5.5591
X5.1161Y-6.253
X5.1664Y-2.4094
X5.1664Y-3.622
X5.1664Y-4.2185
X5.1664Y-5.6683
X5.1664Y-5.1073
X5.1693Y-4.9341
X5.1821Y-5.6988
X5.191Y-4.1791
T2
X2.3125Y-4.4125
X2.3125Y-4.7125
X3.0625Y-5.9125
X3.0625Y-6.2125
X3.0625Y-2.5375
X3.0625Y-2.8375
X4.7875Y-5.625
X5.0875Y-5.625
X3.0625Y-5.1625
X3.0625Y-5.4625
X2.1875Y-5.1625
X2.1875Y-5.4625
X2.1875Y-4.4125
X2.1875Y-4.7125
X3.6875Y-6.0062
X3.6875Y-6.3062
X4.7875Y-4.875
X5.0875Y-4.875
X2.1875Y-5.9125
X2.1875Y-6.2125
X4.7875Y-2.9687
X5.0875Y-2.9687
X4.7875Y-2.1875
X5.0875Y-2.1875
X3.701Y-1.775
X3.701Y-1.875
X3.701Y-1.975
X3.801Y-1.775
X3.801Y-1.875
X3.801Y-1.975
X1.6688Y-1.575
X1.6688Y-2.175
X1.7188Y-1.625
X1.7188Y-2.225
X1.7688Y-1.575
X1.7688Y-2.175
X1.8188Y-1.625
X1.8188Y-2.225
X1.8688Y-1.575
X1.8688Y-2.175
X1.9188Y-1.625
X1.9188Y-2.225
X1.9688Y-1.575
X1.9688Y-2.175
X2.0188Y-1.625
X2.0188Y-2.225
X2.0688Y-1.575
X2.0688Y-2.175
X2.1188Y-1.625
X2.1188Y-2.225
X2.1688Y-1.575
X2.1688Y-2.175
X2.2188Y-1.625
X2.2188Y-2.225
X2.2688Y-1.575
X2.2688Y-2.175
X2.3188Y-1.625
X2.3188Y-2.225
X2.3688Y-1.575
X2.3688Y-2.175
X2.4188Y-1.625
X2.4188Y-2.225
X2.4688Y-1.575
X2.4688Y-2.175
X2.5188Y-1.625
X2.5188Y-2.225
X2.5688Y-1.575
X2.5688Y-2.175
X2.6188Y-1.625
X2.6188Y-2.225
X2.6688Y-1.575
X2.6688Y-2.175
X2.7188Y-1.625
X2.7188Y-2.225
X2.7688Y-1.575
X2.7688Y-2.175
X2.8188Y-1.625
X2.8188Y-2.225
X2.1875Y-2.5375
X2.1875Y-2.8375
X3.975Y-2.1875
X4.275Y-2.1875
X3.6875Y-4.5062
X3.6875Y-4.8062
X1.6687Y-1.9249
X1.6687Y-2.0249
X1.6688Y-1.725
X1.6688Y-1.825
X1.7687Y-1.9249
X1.7687Y-2.0249
X1.7688Y-1.725
X1.7688Y-1.825
X1.8687Y-1.9249
X1.8687Y-2.0249
X1.8688Y-1.725
X1.8688Y-1.825
X1.9687Y-1.9249
X1.9687Y-2.0249
X1.9688Y-1.725
X1.9688Y-1.825
X2.0687Y-1.9249
X2.0687Y-2.0249
X2.0688Y-1.725
X2.0688Y-1.825
X2.1687Y-1.9249
X2.1687Y-2.0249
X2.1688Y-1.725
X2.1688Y-1.825
X2.2687Y-1.9249
X2.2687Y-2.0249
X2.2688Y-1.725
X2.2688Y-1.825
X2.3687Y-1.9249
X2.3687Y-2.0249
X2.3688Y-1.725
X2.3688Y-1.825
X2.4687Y-1.9249
X2.4687Y-2.0249
X2.4688Y-1.725
X2.4688Y-1.825
X2.5687Y-1.9249
X2.5687Y-2.0249
X2.5688Y-1.725
X2.5688Y-1.825
X2.3125Y-5.1625
X2.3125Y-5.4625
X3.1812Y-2.125
X3.3813Y-2.125
X2.3199Y-3.6625
X2.3199Y-3.9625
X3.8125Y-3.6625
X3.8125Y-3.9625
X2.9688Y-6.6625
X2.9688Y-6.9625
X2.1875Y-3.6625
X2.1875Y-3.9625
X4.7875Y-6.3125
X5.0875Y-6.3125
X3.1812Y-2.2188
X3.3813Y-2.2188
X2.9689Y-1.7455
X2.9689Y-1.8455
X2.9689Y-1.9455
X2.9689Y-2.0455
X4.7875Y-4.125
X5.0875Y-4.125
X3.0625Y-3.6625
X3.0625Y-3.9625
X2.3125Y-5.9125
X2.3125Y-6.2125
X3.0625Y-4.4125
X3.0625Y-4.7125
X4.7875Y-6.4375
X5.0875Y-6.4375
X2.3125Y-2.5375
X2.3125Y-2.8375
X3.8125Y-2.5375
X3.8125Y-2.8375
X3.0625Y-6.6625
X3.0625Y-6.9625
T3
X2.4242Y-6.1535
X2.625Y-6.2322
X2.8258Y-6.1535
X1.6742Y-4.6535
X1.875Y-4.7322
X2.0758Y-4.6535
X3.1742Y-2.7785
X3.375Y-2.8572
X3.5758Y-2.7785
X4.6742Y-4.6535
X4.875Y-4.7322
X5.0758Y-4.6535
X3.9242Y-3.9035
X4.125Y-3.9822
X4.3258Y-3.9035
X4.6742Y-5.4035
X4.875Y-5.4822
X5.0758Y-5.4035
X3.9242Y-2.7785
X4.125Y-2.8572
X4.3258Y-2.7785
X3.1742Y-6.9035
X3.375Y-6.9822
X3.5758Y-6.9035
X1.6742Y-2.7785
X1.875Y-2.8572
X2.0758Y-2.7785
X3.1742Y-6.1535
X3.375Y-6.2322
X3.5758Y-6.1535
X3.1742Y-5.4035
X3.375Y-5.4822
X3.5758Y-5.4035
X2.4242Y-3.9035
X2.625Y-3.9822
X2.8258Y-3.9035
X3.9242Y-5.0285
X4.125Y-5.1072
X4.3258Y-5.0285
X3.9242Y-6.5285
X4.125Y-6.6072
X4.3258Y-6.5285
X3.1742Y-4.6535
X3.375Y-4.7322
X3.5758Y-4.6535
X4.6742Y-2.7785
X4.875Y-2.8572
X5.0758Y-2.7785
X2.4243Y-5.4034
X2.6251Y-5.4821
X2.8259Y-5.4034
X1.6742Y-3.9035
X1.875Y-3.9822
X2.0758Y-3.9035
X2.4242Y-4.6535
X2.625Y-4.7322
X2.8258Y-4.6535
X4.6742Y-3.9035
X4.875Y-3.9822
X5.0758Y-3.9035
X4.6742Y-2.0285
X4.875Y-2.1072
X5.0758Y-2.0285
X2.0492Y-6.9035
X2.25Y-6.9822
X2.4508Y-6.9035
X2.4242Y-2.7785
X2.625Y-2.8572
X2.8258Y-2.7785
X4.6742Y-6.9035
X4.875Y-6.9822
X5.0758Y-6.9035
X3.1742Y-3.9035
X3.375Y-3.9822
X3.5758Y-3.9035
X4.6742Y-6.1535
X4.875Y-6.2322
X5.0758Y-6.1535
X1.6742Y-5.4035
X1.875Y-5.4822
X2.0758Y-5.4035
X1.6742Y-6.1535
X1.875Y-6.2322
X2.0758Y-6.1535
X3.9242Y-2.0285
X4.125Y-2.1072
X4.3258Y-2.0285
T4
X3.575Y-1.747
X3.575Y-2.003
T5
X3.225Y-3.85
X3.275Y-3.9074
X3.275Y-3.9271
X3.275Y-3.95
X3.475Y-3.9074
X3.475Y-3.9271
X3.475Y-3.95
X3.525Y-3.85
X4.725Y-6.1
X4.775Y-6.1574
X4.775Y-6.1771
X4.775Y-6.2
X4.975Y-6.1574
X4.975Y-6.1771
X4.975Y-6.2
X5.025Y-6.1
X1.725Y-5.35
X1.775Y-5.4074
X1.775Y-5.4271
X1.775Y-5.45
X1.975Y-5.4074
X1.975Y-5.4271
X1.975Y-5.45
X2.025Y-5.35
X1.725Y-6.1
X1.775Y-6.1574
X1.775Y-6.1771
X1.775Y-6.2
X1.975Y-6.1574
X1.975Y-6.1771
X1.975Y-6.2
X2.025Y-6.1
X3.975Y-1.975
X4.025Y-2.0324
X4.025Y-2.0521
X4.025Y-2.075
X4.225Y-2.0324
X4.225Y-2.0521
X4.225Y-2.075
X4.275Y-1.975
X2.475Y-6.1
X2.525Y-6.1574
X2.525Y-6.1771
X2.525Y-6.2
X2.725Y-6.1574
X2.725Y-6.1771
X2.725Y-6.2
X2.775Y-6.1
X1.725Y-4.6
X1.775Y-4.6574
X1.775Y-4.6771
X1.775Y-4.7
X1.975Y-4.6574
X1.975Y-4.6771
X1.975Y-4.7
X2.025Y-4.6
X3.225Y-2.725
X3.275Y-2.7824
X3.275Y-2.8021
X3.275Y-2.825
X3.475Y-2.7824
X3.475Y-2.8021
X3.475Y-2.825
X3.525Y-2.725
X4.725Y-4.6
X4.775Y-4.6574
X4.775Y-4.6771
X4.775Y-4.7
X4.975Y-4.6574
X4.975Y-4.6771
X4.975Y-4.7
X5.025Y-4.6
X3.975Y-3.85
X4.025Y-3.9074
X4.025Y-3.9271
X4.025Y-3.95
X4.225Y-3.9074
X4.225Y-3.9271
X4.225Y-3.95
X4.275Y-3.85
X4.725Y-5.35
X4.775Y-5.4074
X4.775Y-5.4271
X4.775Y-5.45
X4.975Y-5.4074
X4.975Y-5.4271
X4.975Y-5.45
X5.025Y-5.35
X3.975Y-2.725
X4.025Y-2.7824
X4.025Y-2.8021
X4.025Y-2.825
X4.225Y-2.7824
X4.225Y-2.8021
X4.225Y-2.825
X4.275Y-2.725
X3.225Y-6.85
X3.275Y-6.9074
X3.275Y-6.9271
X3.275Y-6.95
X3.475Y-6.9074
X3.475Y-6.9271
X3.475Y-6.95
X3.525Y-6.85
X1.725Y-2.725
X1.775Y-2.7824
X1.775Y-2.8021
X1.775Y-2.825
X1.975Y-2.7824
X1.975Y-2.8021
X1.975Y-2.825
X2.025Y-2.725
X3.225Y-6.1
X3.275Y-6.1574
X3.275Y-6.1771
X3.275Y-6.2
X3.475Y-6.1574
X3.475Y-6.1771
X3.475Y-6.2
X3.525Y-6.1
X3.225Y-5.35
X3.275Y-5.4074
X3.275Y-5.4271
X3.275Y-5.45
X3.475Y-5.4074
X3.475Y-5.4271
X3.475Y-5.45
X3.525Y-5.35
X2.475Y-3.85
X2.525Y-3.9074
X2.525Y-3.9271
X2.525Y-3.95
X2.725Y-3.9074
X2.725Y-3.9271
X2.725Y-3.95
X2.775Y-3.85
X3.975Y-4.975
X4.025Y-5.0324
X4.025Y-5.0521
X4.025Y-5.075
X4.225Y-5.0324
X4.225Y-5.0521
X4.225Y-5.075
X4.275Y-4.975
X3.975Y-6.475
X4.025Y-6.5324
X4.025Y-6.5521
X4.025Y-6.575
X4.225Y-6.5324
X4.225Y-6.5521
X4.225Y-6.575
X4.275Y-6.475
X3.225Y-4.6
X3.275Y-4.6574
X3.275Y-4.6771
X3.275Y-4.7
X3.475Y-4.6574
X3.475Y-4.6771
X3.475Y-4.7
X3.525Y-4.6
X4.725Y-2.725
X4.775Y-2.7824
X4.775Y-2.8021
X4.775Y-2.825
X4.975Y-2.7824
X4.975Y-2.8021
X4.975Y-2.825
X5.025Y-2.725
X2.4751Y-5.3499
X2.5251Y-5.4073
X2.5251Y-5.427
X2.5251Y-5.4499
X2.7251Y-5.4073
X2.7251Y-5.427
X2.7251Y-5.4499
X2.7751Y-5.3499
X1.725Y-3.85
X1.775Y-3.9074
X1.775Y-3.9271
X1.775Y-3.95
X1.975Y-3.9074
X1.975Y-3.9271
X1.975Y-3.95
X2.025Y-3.85
X2.475Y-4.6
X2.525Y-4.6574
X2.525Y-4.6771
X2.525Y-4.7
X2.725Y-4.6574
X2.725Y-4.6771
X2.725Y-4.7
X2.775Y-4.6
X4.725Y-3.85
X4.775Y-3.9074
X4.775Y-3.9271
X4.775Y-3.95
X4.975Y-3.9074
X4.975Y-3.9271
X4.975Y-3.95
X5.025Y-3.85
X4.725Y-1.975
X4.775Y-2.0324
X4.775Y-2.0521
X4.775Y-2.075
X4.975Y-2.0324
X4.975Y-2.0521
X4.975Y-2.075
X5.025Y-1.975
X2.1Y-6.85
X2.15Y-6.9074
X2.15Y-6.9271
X2.15Y-6.95
X2.35Y-6.9074
X2.35Y-6.9271
X2.35Y-6.95
X2.4Y-6.85
X2.475Y-2.725
X2.525Y-2.7824
X2.525Y-2.8021
X2.525Y-2.825
X2.725Y-2.7824
X2.725Y-2.8021
X2.725Y-2.825
X2.775Y-2.725
X4.725Y-6.85
X4.775Y-6.9074
X4.775Y-6.9271
X4.775Y-6.95
X4.975Y-6.9074
X4.975Y-6.9271
X4.975Y-6.95
X5.025Y-6.85
T6
X2.25Y-5.625
X3.75Y-3.1875
X4.5Y-3.1875
X4.5Y-6.375
X3.75Y-5.625
X4.5Y-5.625
X4.5Y-4.875
X2.25Y-4.125
X2.25Y-3.1875
X4.5Y-2.25
X4.5Y-4.125
X3.75Y-4.125
T0
M30
